<svg width="24" height="24" viewBox="0 0 24 24" fill="none" xmlns="http://www.w3.org/2000/svg">
<path d="M6 17.5H5.79289L5.64645 17.6464L2.5 20.7929V4C2.5 3.60218 2.65804 3.22064 2.93934 2.93934C3.22064 2.65804 3.60218 2.5 4 2.5H20C20.3978 2.5 20.7794 2.65804 21.0607 2.93934C21.342 3.22064 21.5 3.60218 21.5 4V16C21.5 16.3978 21.342 16.7794 21.0607 17.0607C20.7794 17.342 20.3978 17.5 20 17.5H6ZM4 3.5H3.5V4V17.17V18.3771L4.35355 17.5236L5.37711 16.5H20H20.5V16V4V3.5H20H4ZM6.5 7.5H17.5V8.5H6.5V7.5ZM6.5 11.5H14.5V12.5H6.5V11.5Z" fill="black" stroke="#959596"/>
</svg>
