<svg width="24" height="24" viewBox="0 0 24 24" fill="none" xmlns="http://www.w3.org/2000/svg">
<path d="M13.07 10.41C13.6774 9.5613 14.0041 8.54375 14.0041 7.50004C14.0041 6.45632 13.6774 5.43877 13.07 4.59004C13.6388 4.20257 14.3118 3.99684 15 4.00004C15.9283 4.00004 16.8185 4.36879 17.4749 5.02516C18.1313 5.68154 18.5 6.57178 18.5 7.50004C18.5 8.42829 18.1313 9.31853 17.4749 9.97491C16.8185 10.6313 15.9283 11 15 11C14.3118 11.0032 13.6388 10.7975 13.07 10.41ZM5.5 7.50004C5.5 6.8078 5.70527 6.13111 6.08986 5.55554C6.47444 4.97997 7.02107 4.53137 7.66061 4.26646C8.30015 4.00155 9.00388 3.93224 9.68282 4.06729C10.3617 4.20234 10.9854 4.53568 11.4749 5.02516C11.9644 5.51465 12.2977 6.13829 12.4327 6.81722C12.5678 7.49615 12.4985 8.19989 12.2336 8.83943C11.9687 9.47897 11.5201 10.0256 10.9445 10.4102C10.3689 10.7948 9.69223 11 9 11C8.07174 11 7.1815 10.6313 6.52513 9.97491C5.86875 9.31853 5.5 8.42829 5.5 7.50004ZM7.5 7.50004C7.5 7.79671 7.58797 8.08672 7.7528 8.33339C7.91762 8.58007 8.15189 8.77232 8.42597 8.88586C8.70006 8.99939 9.00166 9.02909 9.29264 8.97121C9.58361 8.91334 9.85088 8.77048 10.0607 8.5607C10.2704 8.35092 10.4133 8.08364 10.4712 7.79267C10.5291 7.5017 10.4994 7.2001 10.3858 6.92601C10.2723 6.65192 10.08 6.41765 9.83335 6.25283C9.58668 6.08801 9.29667 6.00004 9 6.00004C8.60218 6.00004 8.22064 6.15807 7.93934 6.43938C7.65804 6.72068 7.5 7.10221 7.5 7.50004ZM16 17V19H2V17C2 17 2 13 9 13C16 13 16 17 16 17ZM14 17C13.86 16.22 12.67 15 9 15C5.33 15 4.07 16.31 4 17M15.95 13C16.5629 13.4768 17.064 14.0819 17.4182 14.7729C17.7723 15.4639 17.9709 16.2241 18 17V19H22V17C22 17 22 13.37 15.94 13H15.95Z" fill="white"/>
</svg>
