<svg width="24" height="24" viewBox="0 0 24 24" fill="none" xmlns="http://www.w3.org/2000/svg">
<path d="M2.34333 6.00028V6C2.34333 5.08192 3.08627 4.33333 4 4.33333H20C20.9159 4.33333 21.6667 5.08409 21.6667 6V18C21.6667 18.9159 20.9159 19.6667 20 19.6667H4C3.08414 19.6667 2.3334 18.916 2.33333 18.0001C2.33333 18.0001 2.33333 18 2.33333 18L2.34333 6.00028ZM20 18.3333H20.3333V18V8V7.39858L19.8233 7.71733L12 12.6069L4.17667 7.71733L3.66667 7.39858V8V18V18.3333H4H20ZM11.8233 11.2827L12 11.3931L12.1767 11.2827L20.1767 6.28267L21.1623 5.66667H20H4H2.83773L3.82333 6.28267L11.8233 11.2827Z" fill="white" stroke="white" stroke-width="0.666667"/>
</svg>
