<svg width="188" height="32" viewBox="0 0 188 32" fill="none" xmlns="http://www.w3.org/2000/svg">
<rect width="188" height="32" fill="white"/>
<path d="M53.0025 12.7446L51.9995 19.0309C51.9957 19.054 51.9971 19.0776 52.0034 19.1001C52.0098 19.1226 52.021 19.1435 52.0363 19.1612C52.0516 19.1789 52.0706 19.1931 52.092 19.2027C52.1133 19.2124 52.1365 19.2172 52.16 19.2169H53.347C53.3889 19.2173 53.4295 19.2027 53.4615 19.1757C53.4935 19.1488 53.5148 19.1113 53.5215 19.0701L54.5245 12.7837C54.5282 12.7606 54.5269 12.737 54.5205 12.7145C54.5142 12.692 54.5029 12.6712 54.4876 12.6534C54.4724 12.6357 54.4534 12.6215 54.432 12.6119C54.4106 12.6023 54.3874 12.5974 54.364 12.5977H53.177C53.135 12.5969 53.0941 12.6113 53.062 12.6383C53.0299 12.6654 53.0087 12.7031 53.0025 12.7446ZM51.735 14.5791H50.6087C50.5669 14.5787 50.5263 14.5932 50.4943 14.6201C50.4624 14.6471 50.4411 14.6845 50.4345 14.7257L50.3972 14.9571C50.3972 14.9571 49.5225 14.011 47.9737 14.6504C47.0852 15.0165 46.6587 15.7729 46.4772 16.327C46.4772 16.327 45.9012 18.0111 47.204 18.9381C47.204 18.9381 48.412 19.8297 49.7722 18.8833L49.7487 19.0309C49.7433 19.0656 49.7494 19.1011 49.7661 19.132C49.7828 19.1629 49.8092 19.1875 49.8412 19.202C49.8625 19.212 49.8857 19.2169 49.9092 19.2169H51.0362C51.0782 19.2178 51.1191 19.2033 51.1512 19.1763C51.1833 19.1493 51.2045 19.1115 51.2107 19.0701L51.8962 14.7651C51.9001 14.7421 51.8987 14.7184 51.8923 14.696C51.8858 14.6735 51.8745 14.6527 51.859 14.6352C51.8437 14.6173 51.8247 14.603 51.8033 14.5933C51.7818 14.5835 51.7585 14.5788 51.735 14.5791ZM50.0777 16.9582C50.0338 17.259 49.8813 17.5335 49.649 17.7301C49.4156 17.9274 49.1186 18.034 48.8127 18.0301C48.6928 18.0315 48.5733 18.0142 48.4587 17.9787C47.9725 17.8241 47.695 17.3617 47.7747 16.8605C47.819 16.5598 47.9716 16.2856 48.204 16.0891C48.4371 15.8917 48.7339 15.7848 49.0397 15.7881C49.1597 15.7869 49.2792 15.8044 49.3937 15.84C49.883 15.9936 50.1592 16.4567 50.079 16.9585H50.0777V16.9582ZM44.0637 17.0772C44.6745 17.0772 45.2652 16.8607 45.7292 16.4672C46.1923 16.075 46.4988 15.5301 46.5932 14.9315C46.7905 13.6863 45.8082 12.5994 44.4157 12.5994H42.1725C42.1306 12.599 42.09 12.6136 42.058 12.6406C42.026 12.6676 42.0048 12.7051 41.9982 12.7463L40.995 19.0326C40.9895 19.0673 40.9956 19.1028 41.0123 19.1337C41.029 19.1646 41.0554 19.1892 41.0875 19.2037C41.109 19.2137 41.132 19.2187 41.1555 19.2187H42.3432C42.3851 19.2191 42.4257 19.2045 42.4577 19.1775C42.4897 19.1506 42.5109 19.113 42.5175 19.0718L42.812 17.2258C42.8182 17.1843 42.8393 17.1465 42.8714 17.1194C42.9035 17.0924 42.9444 17.0779 42.9865 17.0787L44.0637 17.0772ZM45.0572 14.8748C44.984 15.3352 44.6245 15.6741 43.9367 15.6741H43.0575L43.3245 14H44.188C44.899 14.0012 45.1305 14.4165 45.0572 14.8761V14.8748Z" fill="#0070E0"/>
<path d="M39.6418 14.6857L38.2833 16.9564L37.5938 14.7025C37.583 14.6665 37.5608 14.635 37.5304 14.6127C37.5001 14.5905 37.4634 14.5786 37.4258 14.579H36.1998C36.1681 14.5786 36.1372 14.5896 36.113 14.61C36.0888 14.6305 36.0728 14.659 36.068 14.6902C36.065 14.711 36.0672 14.7321 36.0743 14.7518L37.3098 18.5485L36.1923 20.3376C36.1828 20.3524 36.1764 20.3689 36.1735 20.3861C36.1707 20.4034 36.1714 20.4211 36.1756 20.4381C36.1798 20.4551 36.1874 20.471 36.198 20.485C36.2086 20.4989 36.222 20.5106 36.2373 20.5192C36.2577 20.5309 36.2809 20.5369 36.3045 20.5366H37.625C37.6627 20.5368 37.6998 20.5272 37.7327 20.5088C37.7656 20.4905 37.7932 20.464 37.8128 20.4319L41.2638 14.779C41.2763 14.7593 41.2831 14.7366 41.2836 14.7133C41.2841 14.69 41.2782 14.667 41.2665 14.6468C41.2549 14.6266 41.238 14.6098 41.2176 14.5983C41.1973 14.5868 41.1742 14.5809 41.1508 14.5813H39.8308C39.7929 14.5809 39.7556 14.5903 39.7225 14.6087C39.6893 14.627 39.6615 14.6535 39.6418 14.6857ZM35.5048 14.579H34.3775C34.3356 14.5786 34.2949 14.5932 34.2629 14.6202C34.2308 14.6473 34.2096 14.6848 34.203 14.7261L34.1665 14.9573C34.1665 14.9573 33.291 14.0112 31.7423 14.6506C30.854 15.0167 30.4273 15.7731 30.2465 16.3272C30.2465 16.3272 29.67 18.0113 30.9725 18.9383C30.9725 18.9383 32.1808 19.8299 33.541 18.8834L33.5175 19.0311C33.512 19.0658 33.518 19.1013 33.5348 19.1322C33.5515 19.1631 33.5779 19.1877 33.61 19.2022C33.6313 19.2121 33.6545 19.2171 33.678 19.2171H34.805C34.8469 19.2174 34.8874 19.2028 34.9194 19.1758C34.9513 19.1489 34.9726 19.1114 34.9793 19.0702L35.665 14.7653C35.6706 14.7306 35.6646 14.695 35.6479 14.664C35.6311 14.633 35.6047 14.6084 35.5725 14.594C35.5512 14.5842 35.5282 14.5791 35.5048 14.579ZM33.8473 16.9587C33.8029 17.2591 33.6504 17.5331 33.4183 17.7295C33.185 17.9268 32.8883 18.0336 32.5825 18.0303C32.4627 18.0316 32.3435 18.0143 32.229 17.9789C31.743 17.8243 31.4658 17.3619 31.5455 16.8604C31.5899 16.5591 31.7431 16.2844 31.9763 16.0878C32.2103 15.8904 32.508 15.784 32.8145 15.7883C32.9345 15.787 33.0543 15.8045 33.1688 15.8402C33.653 15.9938 33.9288 16.4566 33.8488 16.9587H33.8473ZM27.8335 17.0774C28.4432 17.0771 29.033 16.8606 29.4975 16.4666C29.9601 16.0744 30.2663 15.5297 30.3605 14.9314C30.558 13.6865 29.5755 12.5996 28.1835 12.5996H25.94C25.8982 12.5992 25.8575 12.6138 25.8255 12.6407C25.7935 12.6676 25.7722 12.705 25.7655 12.7463L24.7655 19.0308C24.7599 19.0656 24.766 19.1012 24.7827 19.1321C24.7994 19.1631 24.8259 19.1877 24.858 19.2022C24.8793 19.2119 24.9025 19.2171 24.926 19.2171H26.113C26.155 19.2175 26.1956 19.2029 26.2277 19.1759C26.2597 19.1489 26.2809 19.1113 26.2875 19.07L26.5815 17.224C26.5878 17.1826 26.6089 17.1448 26.641 17.1178C26.6731 17.0907 26.714 17.0763 26.756 17.0771L27.8335 17.0774ZM28.827 14.8748C28.7538 15.3352 28.3945 15.6741 27.7068 15.6741H26.8275L27.094 13.9999H27.9575C28.6688 14.0012 28.9 14.4167 28.827 14.876V14.8748Z" fill="#003087"/>
<path d="M20.1598 12.9227C20.1865 11.5346 19.0388 10.4697 17.4605 10.4697H14.196C14.1199 10.4697 14.0464 10.4968 13.9885 10.546C13.9307 10.5953 13.8924 10.6636 13.8805 10.7386L12.5725 18.8918C12.5667 18.9287 12.5689 18.9665 12.5791 19.0025C12.5893 19.0385 12.6072 19.0719 12.6315 19.1003C12.6559 19.1288 12.6861 19.1516 12.7202 19.1673C12.7542 19.1829 12.7913 19.1911 12.8288 19.1911H14.7628L14.4605 21.0789C14.4547 21.1159 14.4569 21.1537 14.4671 21.1896C14.4773 21.2256 14.4952 21.259 14.5195 21.2875C14.5439 21.3159 14.5741 21.3387 14.6082 21.3544C14.6422 21.3701 14.6793 21.3782 14.7168 21.3782H16.2923C16.3683 21.3782 16.436 21.351 16.494 21.3019C16.5515 21.2525 16.561 21.1844 16.573 21.1094L17.0355 18.395C17.0473 18.3202 17.0855 18.2229 17.1433 18.1736C17.201 18.1242 17.2515 18.0973 17.3278 18.0973H18.2918C19.8375 18.0973 21.1488 17.0012 21.3885 15.4769C21.5583 14.3951 21.0933 13.4108 20.1598 12.9227Z" fill="#001C64"/>
<path d="M15.1813 16.1841L14.6995 19.2311L14.397 21.1424C14.3912 21.1794 14.3935 21.2171 14.4037 21.2531C14.4139 21.2891 14.4318 21.3225 14.4562 21.3509C14.4806 21.3793 14.5108 21.4021 14.5449 21.4178C14.579 21.4334 14.616 21.4415 14.6535 21.4414H16.321C16.397 21.4414 16.4705 21.4143 16.5282 21.365C16.586 21.3157 16.6242 21.2475 16.636 21.1726L17.0755 18.3947C17.0873 18.3198 17.1256 18.2515 17.1834 18.2022C17.2412 18.153 17.3147 18.1259 17.3908 18.1258H18.3723C19.918 18.1258 21.2293 17.0011 21.4693 15.4768C21.6393 14.395 21.0933 13.4104 20.1598 12.9224C20.1573 13.0376 20.1473 13.1525 20.1295 13.2665C19.8898 14.7903 18.578 15.9153 17.0328 15.9153H15.4965C15.4204 15.9153 15.3469 15.9425 15.2891 15.9918C15.2313 16.0411 15.1931 16.1092 15.1813 16.1841Z" fill="#0070E0"/>
<path d="M14.6993 19.2315H12.7593C12.7218 19.2314 12.6847 19.2233 12.6507 19.2077C12.6166 19.192 12.5864 19.1692 12.5621 19.1407C12.5377 19.1123 12.5199 19.0789 12.5097 19.0429C12.4996 19.0069 12.4974 18.9691 12.5033 18.9322L13.8113 10.658C13.8231 10.5831 13.8614 10.5148 13.9192 10.4656C13.9769 10.4163 14.0505 10.3892 14.1265 10.3892H17.4605C19.0388 10.3892 20.1865 11.5348 20.1598 12.9227C19.767 12.7172 19.3055 12.5997 18.8 12.5997H16.0205C15.9444 12.5997 15.8708 12.6268 15.813 12.6761C15.7552 12.7253 15.7169 12.7936 15.705 12.8686L15.1815 16.1844L14.699 19.2315H14.6993Z" fill="#003087"/>
<g clip-path="url(#clip0_80_4555)">
<path d="M84.3113 12.2007C82.6449 12.2007 81.1487 13.0678 81.1487 14.659C81.1487 16.4915 83.7917 16.6167 83.7917 17.5285C83.7917 17.9128 83.3437 18.2615 82.5911 18.2615C81.516 18.2615 80.7097 17.7788 80.7097 17.7788L80.3692 19.3878C80.3692 19.3878 81.292 19.799 82.5284 19.799C84.3561 19.799 85.7896 18.8962 85.7896 17.2692C85.7896 15.3383 83.1376 15.2132 83.1376 14.364C83.1376 14.06 83.505 13.7293 84.2575 13.7293C85.1087 13.7293 85.8075 14.0779 85.8075 14.0779L86.1479 12.5225C86.139 12.5225 85.3774 12.2007 84.3113 12.2007ZM69.0448 12.3169L69 12.5493C69 12.5493 69.6988 12.6745 70.3349 12.9337C71.1502 13.2287 71.204 13.3985 71.3473 13.926L72.8435 19.6739H74.8504L77.9234 12.3169H75.9255L73.9455 17.3229L73.1392 13.0767C73.0675 12.594 72.6912 12.3169 72.2253 12.3169H69.0448ZM78.7297 12.3169L77.1618 19.6739H79.0701L80.6291 12.3169H78.7297ZM89.3553 12.3169C88.8984 12.3169 88.6565 12.5583 88.4773 12.9873L85.682 19.6739H87.6799L88.0652 18.5565H90.5021L90.735 19.6739H92.5L90.968 12.3169H89.3553ZM89.6151 14.3103L90.2064 17.0726H88.6207L89.6151 14.3103Z" fill="#1434CB"/>
</g>
<g clip-path="url(#clip1_80_4555)">
<path d="M103.561 14.1284H102.5V17.8282H103.546C104.105 17.8282 104.507 17.6984 104.866 17.3967C105.282 17.051 105.54 16.5189 105.54 15.971C105.54 14.891 104.723 14.1284 103.561 14.1284ZM104.393 16.9075C104.164 17.1086 103.877 17.1955 103.404 17.1955H103.218V14.7475H103.404C103.863 14.7475 104.15 14.8334 104.393 15.0502C104.651 15.2807 104.795 15.6264 104.795 15.972C104.794 16.3313 104.651 16.6906 104.393 16.9075Z" fill="black"/>
<path d="M106.586 14.1284H105.869V17.8282H106.586V14.1284Z" fill="black"/>
<path d="M108.35 15.5394C107.92 15.3813 107.791 15.2807 107.791 15.0785C107.791 14.8481 108.02 14.6752 108.322 14.6752C108.537 14.6752 108.709 14.7611 108.91 14.978L109.283 14.4741C108.968 14.2007 108.609 14.0562 108.192 14.0562C107.533 14.0562 107.045 14.5171 107.045 15.1215C107.045 15.64 107.274 15.8987 107.948 16.1439C108.235 16.2444 108.378 16.3167 108.45 16.3596C108.593 16.4455 108.665 16.5901 108.665 16.7483C108.665 17.051 108.421 17.2668 108.106 17.2668C107.762 17.2668 107.489 17.094 107.317 16.7776L106.858 17.2092C107.188 17.6984 107.59 17.9142 108.134 17.9142C108.88 17.9142 109.41 17.4103 109.41 16.6907C109.411 16.1156 109.168 15.8422 108.35 15.5394Z" fill="black"/>
<path d="M109.64 15.9861C109.64 17.0808 110.486 17.9156 111.59 17.9156C111.905 17.9156 112.164 17.858 112.493 17.6999V16.8503C112.206 17.1384 111.949 17.2536 111.619 17.2536C110.888 17.2536 110.386 16.7204 110.386 15.9725C110.386 15.2675 110.917 14.705 111.591 14.705C111.935 14.705 112.193 14.8202 112.494 15.123V14.2734C112.179 14.1152 111.921 14.043 111.606 14.043C110.516 14.0419 109.64 14.9061 109.64 15.9861Z" fill="black"/>
<path d="M118.315 16.6194L117.34 14.1284H116.551L118.114 17.9299H118.502L120.093 14.1284H119.319L118.315 16.6194Z" fill="black"/>
<path d="M120.422 17.8282H122.459V17.2092H121.14V16.2015H122.416V15.5677H121.14V14.7475H122.459V14.1284H120.422V17.8282Z" fill="black"/>
<path d="M125.312 15.2221C125.312 14.5307 124.838 14.1274 124.007 14.1274H122.932V17.8273H123.649V16.3461H123.749L124.738 17.8294H125.627L124.466 16.2738C125.011 16.1586 125.312 15.7846 125.312 15.2221ZM123.864 15.8276H123.649V14.7046H123.864C124.308 14.7046 124.552 14.8921 124.552 15.2514C124.567 15.6254 124.323 15.8276 123.864 15.8276Z" fill="black"/>
<path d="M114.759 17.9576C115.836 17.9576 116.709 17.0811 116.709 15.9998C116.709 14.9185 115.836 14.042 114.759 14.042C113.682 14.042 112.809 14.9185 112.809 15.9998C112.809 17.0811 113.682 17.9576 114.759 17.9576Z" fill="url(#paint0_linear_80_4555)"/>
<path opacity="0.65" d="M114.759 17.9587C115.835 17.9587 116.709 17.0819 116.709 16.0008C116.709 14.9198 115.836 14.042 114.759 14.042C113.681 14.042 112.809 14.9188 112.809 15.9998C112.809 17.0808 113.682 17.9587 114.759 17.9587Z" fill="url(#paint1_radial_80_4555)"/>
<path d="M125.814 14.2871C125.814 14.2148 125.771 14.1865 125.684 14.1865H125.57V14.5322H125.655V14.3876L125.755 14.5175H125.855L125.741 14.374C125.785 14.373 125.814 14.33 125.814 14.2871ZM125.671 14.33L125.656 14.2441H125.671C125.713 14.2441 125.728 14.2588 125.728 14.2871C125.728 14.3154 125.699 14.33 125.671 14.33Z" fill="black"/>
<path d="M125.699 14.042C125.527 14.042 125.397 14.1719 125.397 14.3447C125.397 14.5176 125.527 14.6475 125.699 14.6475C125.856 14.6475 126 14.5176 126 14.3447C125.986 14.1855 125.856 14.042 125.699 14.042ZM125.699 14.5888C125.57 14.5888 125.455 14.4736 125.455 14.3437C125.455 14.2002 125.555 14.0986 125.699 14.0986C125.828 14.0986 125.928 14.2138 125.928 14.3437C125.928 14.4882 125.828 14.5888 125.699 14.5888Z" fill="black"/>
</g>
<g clip-path="url(#clip2_80_4555)">
<path d="M150.927 10.2979H144.573V21.7013H150.927V10.2979Z" fill="#FF5F00"/>
<path d="M144.976 15.9999C144.976 13.7837 146.005 11.6682 147.74 10.2981C144.593 7.82001 140.034 8.36399 137.553 11.5271C135.072 14.6701 135.617 19.2235 138.784 21.7016C141.426 23.7768 145.118 23.7768 147.76 21.7016C146.005 20.3316 144.976 18.2161 144.976 15.9999Z" fill="#EB001B"/>
<path d="M159.5 15.9999C159.5 20.0092 156.252 23.253 152.238 23.253C150.604 23.253 149.031 22.709 147.76 21.7016C150.907 19.2235 151.451 14.6701 148.97 11.507C148.607 11.0638 148.204 10.6407 147.76 10.2981C150.907 7.82001 155.486 8.36399 157.947 11.5271C158.955 12.7964 159.5 14.3679 159.5 15.9999Z" fill="#F79E1B"/>
<path d="M158.814 20.493V20.2512H158.915V20.2109H158.673V20.2512H158.774V20.493H158.814ZM159.278 20.493V20.2109H159.197L159.117 20.4124L159.036 20.2109H158.955V20.493H159.016V20.2714L159.097 20.4527H159.157L159.238 20.2714V20.493H159.278Z" fill="#F79E1B"/>
</g>
<defs>
<linearGradient id="paint0_linear_80_4555" x1="115.757" y1="17.5694" x2="114.399" y2="15.452" gradientUnits="userSpaceOnUse">
<stop stop-color="#F9A020"/>
<stop offset="0.2041" stop-color="#F99D20"/>
<stop offset="0.4348" stop-color="#F79320"/>
<stop offset="0.6196" stop-color="#F68820"/>
<stop offset="0.7969" stop-color="#F57E20"/>
<stop offset="1" stop-color="#F47521"/>
</linearGradient>
<radialGradient id="paint1_radial_80_4555" cx="0" cy="0" r="1" gradientUnits="userSpaceOnUse" gradientTransform="translate(115.536 17.4206) rotate(-117.709) scale(3.44468 2.66547)">
<stop stop-color="#FF932C"/>
<stop offset="0.5677" stop-color="#E86D20"/>
<stop offset="0.8604" stop-color="#E85718" stop-opacity="0.8653"/>
<stop offset="1" stop-color="#640000"/>
</radialGradient>
<clipPath id="clip0_80_4555">
<rect width="23.5" height="7.59833" fill="white" transform="translate(69 12.2007)"/>
</clipPath>
<clipPath id="clip1_80_4555">
<rect width="23.5" height="3.91667" fill="white" transform="translate(102.5 14.0415)"/>
</clipPath>
<clipPath id="clip2_80_4555">
<rect width="23.5" height="14.5062" fill="white" transform="translate(136 8.74707)"/>
</clipPath>
</defs>
</svg>
