<svg width="14" height="14" viewBox="0 0 14 14" fill="none" xmlns="http://www.w3.org/2000/svg">
<path d="M13.3334 8.33331V8.99998C13.3334 10.2733 12.62 11.38 11.5667 11.94L12 13.6666H10.6667L10.3334 12.3333H4.33335L4.00002 13.6666H2.66669L3.10002 11.94C2.56629 11.6566 2.11982 11.2332 1.80857 10.7152C1.49731 10.1972 1.33303 9.60428 1.33335 8.99998V8.33331H0.666687V6.99998H12.6667V2.33331C12.6667 2.1565 12.5964 1.98693 12.4714 1.86191C12.3464 1.73688 12.1768 1.66665 12 1.66665C11.6667 1.66665 11.4134 1.89331 11.3334 2.19331C11.7534 2.55331 12 3.08665 12 3.66665H8.00002C8.00002 3.13621 8.21073 2.62751 8.58581 2.25243C8.96088 1.87736 9.46959 1.66665 10 1.66665H10.1134C10.3867 0.893313 11.1267 0.333313 12 0.333313C12.5305 0.333313 13.0392 0.544027 13.4142 0.9191C13.7893 1.29417 14 1.80288 14 2.33331V8.33331H13.3334ZM12 8.33331H2.66669V8.99998C2.66669 9.53041 2.8774 10.0391 3.25247 10.4142C3.62755 10.7893 4.13625 11 4.66669 11H10C10.5305 11 11.0392 10.7893 11.4142 10.4142C11.7893 10.0391 12 9.53041 12 8.99998V8.33331Z" fill="#959596"/>
</svg>
