<svg width="12" height="10" viewBox="0 0 12 10" fill="none" xmlns="http://www.w3.org/2000/svg">
<path d="M10.6667 3.66665V1.66665C10.6667 1.31302 10.5262 0.973886 10.2761 0.723837C10.0261 0.473789 9.68696 0.333313 9.33333 0.333313H2.66667C2.31304 0.333313 1.97391 0.473789 1.72386 0.723837C1.47381 0.973886 1.33333 1.31302 1.33333 1.66665V3.66665C0.979711 3.66665 0.640573 3.80712 0.390524 4.05717C0.140476 4.30722 0 4.64636 0 4.99998V8.33331H0.886667L1.33333 9.66665H2L2.44667 8.33331H9.55333L10 9.66665H10.6667L11.1133 8.33331H12V4.99998C12 4.64636 11.8595 4.30722 11.6095 4.05717C11.3594 3.80712 11.0203 3.66665 10.6667 3.66665ZM2.66667 1.66665H9.33333V3.66665H2.66667M10.6667 6.99998H1.33333V4.99998H10.6667V6.99998Z" fill="#959596"/>
</svg>
