<svg width="1448" height="945" viewBox="0 0 1448 945" fill="none" xmlns="http://www.w3.org/2000/svg">
<g opacity="0.4">
<path d="M211.394 230.567H172.144C156.829 230.567 142.621 222.616 134.602 209.562L87.7997 133.358H87.8455L63.2349 94.8179H74.0813C86.1257 94.8179 95.8863 85.0585 95.8863 73.0141V72.0934C95.8863 60.0598 86.1269 50.3004 74.0813 50.3004H34.8099L4 2H113.365L99.0354 31.6783L121.449 31.7566C126.218 31.7783 130.665 29.3379 133.216 25.3126L147.047 3.51969C178.277 10.1517 201.701 37.8897 201.701 71.0943V73.9999C201.701 104.201 182.326 129.864 155.331 139.258L211.382 230.558L211.394 230.567Z" stroke="#D9DDE1" stroke-width="4" stroke-miterlimit="10"/>
<path d="M185.125 2.00098H224.374C239.69 2.00098 253.897 9.95263 261.916 23.0057L308.719 99.2105H308.674L333.285 137.75H322.438C310.394 137.75 300.633 147.511 300.633 159.554V160.475C300.633 172.508 310.393 182.268 322.438 182.268H361.71L392.52 230.568H283.155L297.484 200.89L275.07 200.812C270.301 200.79 265.854 203.23 263.302 207.256L249.472 229.049C218.241 222.417 194.818 194.678 194.818 161.474V158.568C194.818 128.367 214.192 102.704 241.188 93.3112L185.136 2.01183L185.125 2.00218V2.00098Z" stroke="#D9DDE1" stroke-width="4" stroke-miterlimit="10"/>
<path d="M466.946 230.567H427.696C412.38 230.567 398.173 222.616 390.153 209.562L343.35 133.358H343.395L318.784 94.8179H329.631C341.675 94.8179 351.436 85.0585 351.436 73.0141V72.0934C351.436 60.0598 341.675 50.3004 329.631 50.3004H290.36L259.55 2H368.914L354.584 31.6783L376.999 31.7566C381.767 31.7783 386.214 29.3379 388.766 25.3126L402.596 3.51969C433.827 10.1517 457.25 37.8897 457.25 71.0943V73.9999C457.25 104.201 437.876 129.864 410.88 139.258L466.933 230.558L466.943 230.567H466.946Z" stroke="#D9DDE1" stroke-width="4" stroke-miterlimit="10"/>
<path d="M440.677 2.00098H479.926C495.242 2.00098 509.449 9.95263 517.47 23.0057L564.272 99.2105H564.226L588.837 137.75H577.99C565.946 137.75 556.185 147.511 556.185 159.554V160.475C556.185 172.508 565.946 182.268 577.99 182.268H617.262L648.072 230.568H538.707L553.036 200.89L530.623 200.812C525.854 200.79 521.407 203.23 518.856 207.256L505.025 229.049C473.795 222.417 450.371 194.678 450.371 161.474V158.568C450.371 128.367 469.745 102.704 496.741 93.3112L440.689 2.01183L440.677 2.00218V2.00098Z" stroke="#D9DDE1" stroke-width="4" stroke-miterlimit="10"/>
<path d="M722.498 230.567H683.248C667.932 230.567 653.725 222.616 645.705 209.562L598.902 133.358H598.947L574.336 94.8179H585.183C597.227 94.8179 606.988 85.0585 606.988 73.0141V72.0934C606.988 60.0598 597.227 50.3004 585.183 50.3004H545.911L515.102 2H624.466L610.136 31.6783L632.551 31.7566C637.319 31.7783 641.766 29.3379 644.318 25.3126L658.148 3.51969C689.379 10.1517 712.802 37.8897 712.802 71.0943V73.9999C712.802 104.201 693.428 129.864 666.432 139.258L722.484 230.558L722.495 230.567H722.498Z" stroke="#D9DDE1" stroke-width="4" stroke-miterlimit="10"/>
<path d="M696.229 2.00098H735.478C750.794 2.00098 765.001 9.95263 773.022 23.0057L819.824 99.2105H819.779L844.389 137.75H833.542C821.498 137.75 811.737 147.511 811.737 159.554V160.475C811.737 172.508 821.498 182.268 833.542 182.268H872.814L903.624 230.568H794.259L808.588 200.89L786.175 200.812C781.406 200.79 776.959 203.23 774.408 207.256L760.577 229.049C729.347 222.417 705.923 194.678 705.923 161.474V158.568C705.923 128.367 725.297 102.704 752.293 93.3112L696.241 2.01183L696.229 2.00218V2.00098Z" stroke="#D9DDE1" stroke-width="4" stroke-miterlimit="10"/>
<path d="M978.051 230.567H938.801C923.486 230.567 909.278 222.616 901.258 209.562L854.456 133.358H854.5L829.89 94.8179H840.736C852.781 94.8179 862.541 85.0585 862.541 73.0141V72.0934C862.541 60.0598 852.781 50.3004 840.736 50.3004H801.465L770.655 2H880.02L865.689 31.6783L888.104 31.7566C892.873 31.7783 897.32 29.3379 899.871 25.3126L913.701 3.51969C944.932 10.1517 968.355 37.8897 968.355 71.0943V73.9999C968.355 104.201 948.981 129.864 921.986 139.258L978.038 230.558L978.05 230.567H978.051Z" stroke="#D9DDE1" stroke-width="4" stroke-miterlimit="10"/>
<path d="M951.781 2.00098H991.03C1006.35 2.00098 1020.55 9.95263 1028.57 23.0057L1075.38 99.2105H1075.33L1099.94 137.75H1089.1C1077.05 137.75 1067.29 147.511 1067.29 159.554V160.475C1067.29 172.508 1077.05 182.268 1089.1 182.268H1128.37L1159.18 230.568H1049.81L1064.14 200.89L1041.73 200.812C1036.96 200.79 1032.51 203.23 1029.96 207.256L1016.13 229.049C984.9 222.417 961.476 194.678 961.476 161.474V158.568C961.476 128.367 980.85 102.704 1007.85 93.3112L951.794 2.01183L951.782 2.00218L951.781 2.00098Z" stroke="#D9DDE1" stroke-width="4" stroke-miterlimit="10"/>
<path d="M1233.6 230.567H1194.35C1179.04 230.567 1164.83 222.616 1156.81 209.562L1110.01 133.358H1110.05L1085.44 94.8179H1096.29C1108.33 94.8179 1118.09 85.0585 1118.09 73.0141V72.0934C1118.09 60.0598 1108.33 50.3004 1096.29 50.3004H1057.02L1026.21 2H1135.57L1121.24 31.6783L1143.66 31.7566C1148.42 31.7783 1152.87 29.3379 1155.42 25.3126L1169.25 3.51969C1200.48 10.1517 1223.91 37.8897 1223.91 71.0943V73.9999C1223.91 104.201 1204.53 129.864 1177.54 139.258L1233.59 230.558L1233.6 230.567H1233.6Z" stroke="#D9DDE1" stroke-width="4" stroke-miterlimit="10"/>
<path d="M1207.33 2.00098H1246.58C1261.9 2.00098 1276.11 9.95263 1284.13 23.0057L1330.93 99.2105H1330.88L1355.49 137.75H1344.65C1332.6 137.75 1322.84 147.511 1322.84 159.554V160.475C1322.84 172.508 1332.6 182.268 1344.65 182.268H1383.92L1414.73 230.568H1305.36L1319.69 200.89L1297.28 200.812C1292.51 200.79 1288.06 203.23 1285.51 207.256L1271.68 229.049C1240.45 222.417 1217.03 194.678 1217.03 161.474V158.568C1217.03 128.367 1236.4 102.704 1263.4 93.3112L1207.35 2.01183L1207.33 2.00218L1207.33 2.00098Z" stroke="#D9DDE1" stroke-width="4" stroke-miterlimit="10"/>
<path d="M240.665 472.411H201.415C186.1 472.411 171.892 464.459 163.873 451.407L117.071 375.202H117.115L92.5046 336.661H103.351C115.395 336.661 125.156 326.902 125.156 314.858V313.938C125.156 301.904 115.397 292.145 103.351 292.145H64.0797L33.2698 243.844H142.635L128.305 273.523L150.72 273.601C155.489 273.623 159.936 271.182 162.487 267.157L176.318 245.364C207.548 251.996 230.972 279.735 230.972 312.939V315.844C230.972 346.046 211.597 371.708 184.602 381.102L240.654 472.402L240.665 472.411Z" stroke="#D9DDE1" stroke-width="4" stroke-miterlimit="10"/>
<path d="M214.396 243.846H253.645C268.961 243.846 283.168 251.797 291.187 264.85L337.99 341.055H337.944L362.555 379.595H351.708C339.664 379.595 329.903 389.354 329.903 401.399V402.32C329.903 414.353 339.663 424.112 351.708 424.112H390.98L421.79 472.413H312.425L326.754 442.735L304.341 442.656C299.572 442.635 295.125 445.075 292.573 449.1L278.743 470.893C247.512 464.261 224.089 436.523 224.089 403.319V400.413C224.089 370.212 243.463 344.549 270.459 335.155L214.408 243.855L214.396 243.846Z" stroke="#D9DDE1" stroke-width="4" stroke-miterlimit="10"/>
<path d="M496.217 472.411H456.967C441.651 472.411 427.444 464.459 419.424 451.407L372.621 375.202H372.666L348.055 336.661H358.902C370.946 336.661 380.707 326.902 380.707 314.858V313.938C380.707 301.904 370.946 292.145 358.902 292.145H319.63L288.821 243.844H398.185L383.855 273.523L406.269 273.601C411.038 273.623 415.485 271.182 418.037 267.157L431.867 245.364C463.098 251.996 486.521 279.735 486.521 312.939V315.844C486.521 346.046 467.147 371.708 440.151 381.102L496.203 472.402L496.214 472.411H496.217Z" stroke="#D9DDE1" stroke-width="4" stroke-miterlimit="10"/>
<path d="M469.948 243.846H509.197C524.513 243.846 538.72 251.797 546.739 264.85L593.542 341.055H593.496L618.107 379.595H607.26C595.216 379.595 585.455 389.354 585.455 401.399V402.32C585.455 414.353 595.215 424.112 607.26 424.112H646.532L677.341 472.413H567.977L582.306 442.735L559.892 442.656C555.124 442.635 550.677 445.075 548.125 449.1L534.295 470.893C503.064 464.261 479.641 436.523 479.641 403.319V400.413C479.641 370.212 499.015 344.549 526.011 335.155L469.96 243.855L469.948 243.846Z" stroke="#D9DDE1" stroke-width="4" stroke-miterlimit="10"/>
<path d="M751.769 472.411H712.519C697.203 472.411 682.996 464.459 674.976 451.407L628.173 375.202H628.218L603.607 336.661H614.454C626.498 336.661 636.259 326.902 636.259 314.858V313.938C636.259 301.904 626.498 292.145 614.454 292.145H575.182L544.373 243.844H653.737L639.407 273.523L661.821 273.601C666.59 273.623 671.037 271.182 673.589 267.157L687.419 245.364C718.65 251.996 742.073 279.735 742.073 312.939V315.844C742.073 346.046 722.699 371.708 695.703 381.102L751.755 472.402L751.766 472.411H751.769Z" stroke="#D9DDE1" stroke-width="4" stroke-miterlimit="10"/>
<path d="M725.5 243.846H764.749C780.065 243.846 794.272 251.797 802.293 264.85L849.095 341.055H849.049L873.66 379.595H862.813C850.769 379.595 841.008 389.354 841.008 401.399V402.32C841.008 414.353 850.769 424.112 862.813 424.112H902.085L932.895 472.413H823.53L837.859 442.735L815.446 442.656C810.677 442.635 806.23 445.075 803.679 449.1L789.848 470.893C758.618 464.261 735.194 436.523 735.194 403.319V400.413C735.194 370.212 754.568 344.549 781.564 335.155L725.512 243.855L725.5 243.846Z" stroke="#D9DDE1" stroke-width="4" stroke-miterlimit="10"/>
<path d="M1007.32 472.411H968.071C952.755 472.411 938.548 464.459 930.528 451.407L883.725 375.202H883.77L859.159 336.661H870.006C882.05 336.661 891.811 326.902 891.811 314.858V313.938C891.811 301.904 882.05 292.145 870.006 292.145H830.734L799.925 243.844H909.289L894.959 273.523L917.374 273.601C922.142 273.623 926.589 271.182 929.141 267.157L942.971 245.364C974.202 251.996 997.625 279.735 997.625 312.939V315.844C997.625 346.046 978.251 371.708 951.255 381.102L1007.31 472.402L1007.32 472.411H1007.32Z" stroke="#D9DDE1" stroke-width="4" stroke-miterlimit="10"/>
<path d="M981.052 243.846H1020.3C1035.62 243.846 1049.82 251.797 1057.84 264.85L1104.65 341.055H1104.6L1129.21 379.595H1118.37C1106.32 379.595 1096.56 389.354 1096.56 401.399V402.32C1096.56 414.353 1106.32 424.112 1118.37 424.112H1157.64L1188.45 472.413H1079.08L1093.41 442.735L1071 442.656C1066.23 442.635 1061.78 445.075 1059.23 449.1L1045.4 470.893C1014.17 464.261 990.747 436.523 990.747 403.319V400.413C990.747 370.212 1010.12 344.549 1037.12 335.155L981.065 243.855L981.054 243.846H981.052Z" stroke="#D9DDE1" stroke-width="4" stroke-miterlimit="10"/>
<path d="M1262.87 472.411H1223.62C1208.31 472.411 1194.1 464.459 1186.08 451.407L1139.28 375.202H1139.32L1114.71 336.661H1125.56C1137.6 336.661 1147.36 326.902 1147.36 314.858V313.938C1147.36 301.904 1137.6 292.145 1125.56 292.145H1086.29L1055.48 243.844H1164.84L1150.51 273.523L1172.93 273.601C1177.69 273.623 1182.14 271.182 1184.69 267.157L1198.52 245.364C1229.75 251.996 1253.18 279.735 1253.18 312.939V315.844C1253.18 346.046 1233.8 371.708 1206.81 381.102L1262.86 472.402L1262.87 472.411H1262.87Z" stroke="#D9DDE1" stroke-width="4" stroke-miterlimit="10"/>
<path d="M1236.6 243.846H1275.85C1291.17 243.846 1305.38 251.797 1313.4 264.85L1360.2 341.055H1360.15L1384.76 379.595H1373.92C1361.87 379.595 1352.11 389.354 1352.11 401.399V402.32C1352.11 414.353 1361.87 424.112 1373.92 424.112H1413.19L1444 472.413H1334.64L1348.97 442.735L1326.55 442.656C1321.78 442.635 1317.33 445.075 1314.78 449.1L1300.95 470.893C1269.72 464.261 1246.3 436.523 1246.3 403.319V400.413C1246.3 370.212 1265.67 344.549 1292.67 335.155L1236.62 243.855L1236.61 243.846H1236.6Z" stroke="#D9DDE1" stroke-width="4" stroke-miterlimit="10"/>
</g>
<g opacity="0.4">
<path d="M211.394 700.98H172.144C156.829 700.98 142.621 693.029 134.602 679.976L87.7997 603.771H87.8455L63.2349 565.231H74.0813C86.1257 565.231 95.8863 555.472 95.8863 543.427V542.506C95.8863 530.473 86.1269 520.714 74.0813 520.714H34.8099L4 472.413H113.365L99.0354 502.091L121.449 502.17C126.218 502.191 130.665 499.751 133.216 495.726L147.047 473.933C178.277 480.565 201.701 508.303 201.701 541.507V544.413C201.701 574.614 182.326 600.277 155.331 609.671L211.382 700.971L211.394 700.98Z" stroke="#D9DDE1" stroke-width="4" stroke-miterlimit="10"/>
<path d="M185.125 472.415H224.374C239.69 472.415 253.897 480.366 261.916 493.419L308.719 569.624H308.674L333.285 608.164H322.438C310.394 608.164 300.633 617.924 300.633 629.968V630.888C300.633 642.922 310.393 652.681 322.438 652.681H361.71L392.52 700.982H283.155L297.484 671.303L275.07 671.225C270.301 671.203 265.854 673.644 263.302 677.669L249.472 699.462C218.241 692.83 194.818 665.092 194.818 631.887V628.982C194.818 598.78 214.192 573.118 241.188 563.725L185.136 472.425L185.125 472.416V472.415Z" stroke="#D9DDE1" stroke-width="4" stroke-miterlimit="10"/>
<path d="M466.946 700.98H427.696C412.38 700.98 398.173 693.029 390.153 679.976L343.35 603.771H343.395L318.784 565.231H329.631C341.675 565.231 351.436 555.472 351.436 543.427V542.506C351.436 530.473 341.675 520.714 329.631 520.714H290.36L259.55 472.413H368.914L354.584 502.091L376.999 502.17C381.767 502.191 386.214 499.751 388.766 495.726L402.596 473.933C433.827 480.565 457.25 508.303 457.25 541.507V544.413C457.25 574.614 437.876 600.277 410.88 609.671L466.933 700.971L466.943 700.98H466.946Z" stroke="#D9DDE1" stroke-width="4" stroke-miterlimit="10"/>
<path d="M440.677 472.415H479.926C495.242 472.415 509.449 480.366 517.47 493.419L564.272 569.624H564.226L588.837 608.164H577.99C565.946 608.164 556.185 617.924 556.185 629.968V630.888C556.185 642.922 565.946 652.681 577.99 652.681H617.262L648.072 700.982H538.707L553.036 671.303L530.623 671.225C525.854 671.203 521.407 673.644 518.856 677.669L505.025 699.462C473.795 692.83 450.371 665.092 450.371 631.887V628.982C450.371 598.78 469.745 573.118 496.741 563.725L440.689 472.425L440.677 472.416V472.415Z" stroke="#D9DDE1" stroke-width="4" stroke-miterlimit="10"/>
<path d="M722.498 700.98H683.248C667.932 700.98 653.725 693.029 645.705 679.976L598.902 603.771H598.947L574.336 565.231H585.183C597.227 565.231 606.988 555.472 606.988 543.427V542.506C606.988 530.473 597.227 520.714 585.183 520.714H545.911L515.102 472.413H624.466L610.136 502.091L632.551 502.17C637.319 502.191 641.766 499.751 644.318 495.726L658.148 473.933C689.379 480.565 712.802 508.303 712.802 541.507V544.413C712.802 574.614 693.428 600.277 666.432 609.671L722.484 700.971L722.495 700.98H722.498Z" stroke="#D9DDE1" stroke-width="4" stroke-miterlimit="10"/>
<path d="M696.229 472.415H735.478C750.794 472.415 765.001 480.366 773.022 493.419L819.824 569.624H819.779L844.389 608.164H833.542C821.498 608.164 811.737 617.924 811.737 629.968V630.888C811.737 642.922 821.498 652.681 833.542 652.681H872.814L903.624 700.982H794.259L808.588 671.303L786.175 671.225C781.406 671.203 776.959 673.644 774.408 677.669L760.577 699.462C729.347 692.83 705.923 665.092 705.923 631.887V628.982C705.923 598.78 725.297 573.118 752.293 563.725L696.241 472.425L696.229 472.416V472.415Z" stroke="#D9DDE1" stroke-width="4" stroke-miterlimit="10"/>
<path d="M978.051 700.98H938.801C923.486 700.98 909.278 693.029 901.258 679.976L854.456 603.771H854.5L829.89 565.231H840.736C852.781 565.231 862.541 555.472 862.541 543.427V542.506C862.541 530.473 852.781 520.714 840.736 520.714H801.465L770.655 472.413H880.02L865.689 502.091L888.104 502.17C892.873 502.191 897.32 499.751 899.871 495.726L913.701 473.933C944.932 480.565 968.355 508.303 968.355 541.507V544.413C968.355 574.614 948.981 600.277 921.986 609.671L978.038 700.971L978.05 700.98H978.051Z" stroke="#D9DDE1" stroke-width="4" stroke-miterlimit="10"/>
<path d="M951.781 472.415H991.03C1006.35 472.415 1020.55 480.366 1028.57 493.419L1075.38 569.624H1075.33L1099.94 608.164H1089.1C1077.05 608.164 1067.29 617.924 1067.29 629.968V630.888C1067.29 642.922 1077.05 652.681 1089.1 652.681H1128.37L1159.18 700.982H1049.81L1064.14 671.303L1041.73 671.225C1036.96 671.203 1032.51 673.644 1029.96 677.669L1016.13 699.462C984.9 692.83 961.476 665.092 961.476 631.887V628.982C961.476 598.78 980.85 573.118 1007.85 563.725L951.794 472.425L951.782 472.416L951.781 472.415Z" stroke="#D9DDE1" stroke-width="4" stroke-miterlimit="10"/>
<path d="M1233.6 700.98H1194.35C1179.04 700.98 1164.83 693.029 1156.81 679.976L1110.01 603.771H1110.05L1085.44 565.231H1096.29C1108.33 565.231 1118.09 555.472 1118.09 543.427V542.506C1118.09 530.473 1108.33 520.714 1096.29 520.714H1057.02L1026.21 472.413H1135.57L1121.24 502.091L1143.66 502.17C1148.42 502.191 1152.87 499.751 1155.42 495.726L1169.25 473.933C1200.48 480.565 1223.91 508.303 1223.91 541.507V544.413C1223.91 574.614 1204.53 600.277 1177.54 609.671L1233.59 700.971L1233.6 700.98H1233.6Z" stroke="#D9DDE1" stroke-width="4" stroke-miterlimit="10"/>
<path d="M1207.33 472.415H1246.58C1261.9 472.415 1276.11 480.366 1284.13 493.419L1330.93 569.624H1330.88L1355.49 608.164H1344.65C1332.6 608.164 1322.84 617.924 1322.84 629.968V630.888C1322.84 642.922 1332.6 652.681 1344.65 652.681H1383.92L1414.73 700.982H1305.36L1319.69 671.303L1297.28 671.225C1292.51 671.203 1288.06 673.644 1285.51 677.669L1271.68 699.462C1240.45 692.83 1217.03 665.092 1217.03 631.887V628.982C1217.03 598.78 1236.4 573.118 1263.4 563.725L1207.35 472.425L1207.33 472.416L1207.33 472.415Z" stroke="#D9DDE1" stroke-width="4" stroke-miterlimit="10"/>
<path d="M240.665 942.825H201.415C186.1 942.825 171.892 934.872 163.873 921.82L117.071 845.615H117.115L92.5046 807.074H103.351C115.395 807.074 125.156 797.315 125.156 785.271V784.351C125.156 772.317 115.397 762.558 103.351 762.558H64.0797L33.2698 714.257H142.635L128.305 743.936L150.72 744.014C155.489 744.036 159.936 741.595 162.487 737.57L176.318 715.777C207.548 722.409 230.972 750.148 230.972 783.352V786.257C230.972 816.459 211.597 842.121 184.602 851.516L240.654 942.815L240.665 942.825Z" stroke="#D9DDE1" stroke-width="4" stroke-miterlimit="10"/>
<path d="M214.396 714.259H253.645C268.961 714.259 283.168 722.21 291.187 735.264L337.99 811.468H337.944L362.555 850.008H351.708C339.664 850.008 329.903 859.768 329.903 871.812V872.733C329.903 884.766 339.663 894.526 351.708 894.526H390.98L421.79 942.826H312.425L326.754 913.148L304.341 913.069C299.572 913.048 295.125 915.488 292.573 919.513L278.743 941.306C247.512 934.674 224.089 906.936 224.089 873.732V870.826C224.089 840.625 243.463 814.962 270.459 805.568L214.408 714.268L214.396 714.259Z" stroke="#D9DDE1" stroke-width="4" stroke-miterlimit="10"/>
<path d="M496.217 942.825H456.967C441.651 942.825 427.444 934.872 419.424 921.82L372.621 845.615H372.666L348.055 807.074H358.902C370.946 807.074 380.707 797.315 380.707 785.271V784.351C380.707 772.317 370.946 762.558 358.902 762.558H319.63L288.821 714.257H398.185L383.855 743.936L406.269 744.014C411.038 744.036 415.485 741.595 418.037 737.57L431.867 715.777C463.098 722.409 486.521 750.148 486.521 783.352V786.257C486.521 816.459 467.147 842.121 440.151 851.516L496.203 942.815L496.214 942.825H496.217Z" stroke="#D9DDE1" stroke-width="4" stroke-miterlimit="10"/>
<path d="M469.948 714.259H509.197C524.513 714.259 538.72 722.21 546.739 735.264L593.542 811.468H593.496L618.107 850.008H607.26C595.216 850.008 585.455 859.768 585.455 871.812V872.733C585.455 884.766 595.215 894.526 607.26 894.526H646.532L677.341 942.826H567.977L582.306 913.148L559.892 913.069C555.124 913.048 550.677 915.488 548.125 919.513L534.295 941.306C503.064 934.674 479.641 906.936 479.641 873.732V870.826C479.641 840.625 499.015 814.962 526.011 805.568L469.96 714.268L469.948 714.259Z" stroke="#D9DDE1" stroke-width="4" stroke-miterlimit="10"/>
<path d="M751.769 942.825H712.519C697.203 942.825 682.996 934.872 674.976 921.82L628.173 845.615H628.218L603.607 807.074H614.454C626.498 807.074 636.259 797.315 636.259 785.271V784.351C636.259 772.317 626.498 762.558 614.454 762.558H575.182L544.373 714.257H653.737L639.407 743.936L661.821 744.014C666.59 744.036 671.037 741.595 673.589 737.57L687.419 715.777C718.65 722.409 742.073 750.148 742.073 783.352V786.257C742.073 816.459 722.699 842.121 695.703 851.516L751.755 942.815L751.766 942.825H751.769Z" stroke="#D9DDE1" stroke-width="4" stroke-miterlimit="10"/>
<path d="M725.5 714.259H764.749C780.065 714.259 794.272 722.21 802.293 735.264L849.095 811.468H849.049L873.66 850.008H862.813C850.769 850.008 841.008 859.768 841.008 871.812V872.733C841.008 884.766 850.769 894.526 862.813 894.526H902.085L932.895 942.826H823.53L837.859 913.148L815.446 913.069C810.677 913.048 806.23 915.488 803.679 919.513L789.848 941.306C758.618 934.674 735.194 906.936 735.194 873.732V870.826C735.194 840.625 754.568 814.962 781.564 805.568L725.512 714.268L725.5 714.259Z" stroke="#D9DDE1" stroke-width="4" stroke-miterlimit="10"/>
<path d="M1007.32 942.825H968.071C952.755 942.825 938.548 934.872 930.528 921.82L883.725 845.615H883.77L859.159 807.074H870.006C882.05 807.074 891.811 797.315 891.811 785.271V784.351C891.811 772.317 882.05 762.558 870.006 762.558H830.734L799.925 714.257H909.289L894.959 743.936L917.374 744.014C922.142 744.036 926.589 741.595 929.141 737.57L942.971 715.777C974.202 722.409 997.625 750.148 997.625 783.352V786.257C997.625 816.459 978.251 842.121 951.255 851.516L1007.31 942.815L1007.32 942.825H1007.32Z" stroke="#D9DDE1" stroke-width="4" stroke-miterlimit="10"/>
<path d="M981.052 714.259H1020.3C1035.62 714.259 1049.82 722.21 1057.84 735.264L1104.65 811.468H1104.6L1129.21 850.008H1118.37C1106.32 850.008 1096.56 859.768 1096.56 871.812V872.733C1096.56 884.766 1106.32 894.526 1118.37 894.526H1157.64L1188.45 942.826H1079.08L1093.41 913.148L1071 913.069C1066.23 913.048 1061.78 915.488 1059.23 919.513L1045.4 941.306C1014.17 934.674 990.747 906.936 990.747 873.732V870.826C990.747 840.625 1010.12 814.962 1037.12 805.568L981.065 714.268L981.054 714.259H981.052Z" stroke="#D9DDE1" stroke-width="4" stroke-miterlimit="10"/>
<path d="M1262.87 942.825H1223.62C1208.31 942.825 1194.1 934.872 1186.08 921.82L1139.28 845.615H1139.32L1114.71 807.074H1125.56C1137.6 807.074 1147.36 797.315 1147.36 785.271V784.351C1147.36 772.317 1137.6 762.558 1125.56 762.558H1086.29L1055.48 714.257H1164.84L1150.51 743.936L1172.93 744.014C1177.69 744.036 1182.14 741.595 1184.69 737.57L1198.52 715.777C1229.75 722.409 1253.18 750.148 1253.18 783.352V786.257C1253.18 816.459 1233.8 842.121 1206.81 851.516L1262.86 942.815L1262.87 942.825H1262.87Z" stroke="#D9DDE1" stroke-width="4" stroke-miterlimit="10"/>
<path d="M1236.6 714.259H1275.85C1291.17 714.259 1305.38 722.21 1313.4 735.264L1360.2 811.468H1360.15L1384.76 850.008H1373.92C1361.87 850.008 1352.11 859.768 1352.11 871.812V872.733C1352.11 884.766 1361.87 894.526 1373.92 894.526H1413.19L1444 942.826H1334.64L1348.97 913.148L1326.55 913.069C1321.78 913.048 1317.33 915.488 1314.78 919.513L1300.95 941.306C1269.72 934.674 1246.3 906.936 1246.3 873.732V870.826C1246.3 840.625 1265.67 814.962 1292.67 805.568L1236.62 714.268L1236.61 714.259H1236.6Z" stroke="#D9DDE1" stroke-width="4" stroke-miterlimit="10"/>
</g>
</svg>
