<svg width="25" height="25" viewBox="0 0 25 25" fill="none" xmlns="http://www.w3.org/2000/svg">
<path d="M20.5 15.6504C19.3 15.6504 18 15.4504 16.9 15.0504H16.6C16.3 15.0504 16.1 15.1504 15.9 15.3504L13.7 17.5504C10.9 16.0504 8.5 13.7504 7.1 10.9504L9.3 8.75039C9.6 8.45039 9.7 8.05039 9.5 7.75039C9.2 6.65039 9 5.35039 9 4.15039C9 3.65039 8.5 3.15039 8 3.15039H4.5C4 3.15039 3.5 3.65039 3.5 4.15039C3.5 13.5504 11.1 21.1504 20.5 21.1504C21 21.1504 21.5 20.6504 21.5 20.1504V16.6504C21.5 16.1504 21 15.6504 20.5 15.6504ZM5.5 5.15039H7C7.1 6.05039 7.3 6.95039 7.5 7.75039L6.3 8.95039C5.9 7.75039 5.6 6.45039 5.5 5.15039ZM19.5 19.1504C18.2 19.0504 16.9 18.7504 15.7 18.3504L16.9 17.1504C17.7 17.3504 18.6 17.5504 19.5 17.5504V19.1504Z" fill="black"/>
</svg>
