<svg width="16" height="16" viewBox="0 0 16 16" fill="none" xmlns="http://www.w3.org/2000/svg">
<path d="M10 13.2533C10.0267 13.4533 9.96003 13.6667 9.80669 13.8067C9.74502 13.8685 9.67176 13.9175 9.59111 13.951C9.51046 13.9844 9.42401 14.0016 9.33669 14.0016C9.24938 14.0016 9.16293 13.9844 9.08228 13.951C9.00163 13.9175 8.92837 13.8685 8.86669 13.8067L6.19336 11.1333C6.12069 11.0622 6.06543 10.9753 6.0319 10.8793C5.99836 10.7833 5.98745 10.6809 6.00003 10.58V7.16667L2.80669 3.08C2.69843 2.94102 2.64958 2.76484 2.67082 2.58995C2.69205 2.41507 2.78165 2.2557 2.92003 2.14667C3.04669 2.05333 3.18669 2 3.33336 2H12.6667C12.8134 2 12.9534 2.05333 13.08 2.14667C13.2184 2.2557 13.308 2.41507 13.3292 2.58995C13.3505 2.76484 13.3016 2.94102 13.1934 3.08L10 7.16667V13.2533ZM4.69336 3.33333L7.33336 6.70667V10.3867L8.66669 11.72V6.7L11.3067 3.33333H4.69336Z" fill="black"/>
</svg>
