<svg width="16" height="17" viewBox="0 0 16 17" fill="none" xmlns="http://www.w3.org/2000/svg">
<path d="M4.33301 4.64401V3.10401C4.3331 2.85538 4.43192 2.61696 4.60776 2.44119C4.7836 2.26542 5.02205 2.16667 5.27067 2.16667H13.3953C13.644 2.16667 13.8825 2.26546 14.0584 2.44131C14.2342 2.61715 14.333 2.85565 14.333 3.10434V11.2293C14.3329 11.4779 14.2341 11.7163 14.0584 11.892C13.8826 12.0678 13.6442 12.1666 13.3957 12.1667H11.8383" stroke="black" stroke-width="1.33333" stroke-linecap="round" stroke-linejoin="round"/>
<path d="M10.7292 4.83334H2.6035C2.35493 4.83352 2.11661 4.93239 1.9409 5.10822C1.7652 5.28404 1.6665 5.52244 1.6665 5.77101V13.8957C1.6665 14.1444 1.76529 14.3829 1.94114 14.5587C2.11699 14.7346 2.35549 14.8333 2.60417 14.8333H10.7292C10.9777 14.8333 11.2161 14.7345 11.3919 14.5587C11.5676 14.3829 11.6664 14.1446 11.6665 13.896V5.77034C11.6663 5.52183 11.5675 5.28355 11.3918 5.10786C11.216 4.93217 10.9777 4.83343 10.7292 4.83334Z" stroke="black" stroke-width="1.33333" stroke-linejoin="round"/>
</svg>
