<svg width="36" height="36" viewBox="0 0 36 36" fill="none" xmlns="http://www.w3.org/2000/svg">
<path d="M3 18C3 14.0218 4.58035 10.2064 7.3934 7.3934C10.2064 4.58035 14.0218 3 18 3C19.9698 3 21.9204 3.38799 23.7403 4.14181C25.5601 4.89563 27.2137 6.00052 28.6066 7.3934C29.9995 8.78628 31.1044 10.4399 31.8582 12.2598C32.612 14.0796 33 16.0302 33 18C33 21.9783 31.4197 25.7936 28.6066 28.6066C25.7936 31.4197 21.9783 33 18 33C16.0302 33 14.0796 32.612 12.2598 31.8582C10.4399 31.1044 8.78628 29.9995 7.3934 28.6066C4.58035 25.7936 3 21.9783 3 18ZM15 25.5L22.5 18L15 10.5V25.5Z" fill="white"/>
</svg>
