<svg width="48" height="49" viewBox="0 0 48 49" fill="none" xmlns="http://www.w3.org/2000/svg">
<path d="M44.4056 20.1877C43.0931 19.2145 41.4806 18.5002 39.7781 18.1148C39.4986 18.052 39.2427 17.9108 39.0403 17.708C38.838 17.5051 38.6975 17.2489 38.6353 16.9692C37.9041 13.7114 36.33 10.9177 34.0163 8.80078C31.3266 6.33609 27.7697 4.98047 24 4.98047C20.6859 4.98047 17.625 6.01922 15.1528 7.98516C13.4773 9.31965 12.1287 11.0191 11.2097 12.9539C11.1101 13.1656 10.9623 13.3511 10.7782 13.4955C10.5941 13.6398 10.3787 13.7392 10.1494 13.7855C7.64156 14.2917 5.3775 15.367 3.64875 16.8905C1.26187 18.9998 0 21.8039 0 25.0055C0 28.2417 1.35844 31.193 3.82406 33.3267C6.17906 35.3602 9.34969 36.4805 12.75 36.4805H22.5V22.102L19.0603 25.5417C18.9167 25.6853 18.7454 25.7982 18.5569 25.8737C18.3684 25.9491 18.1665 25.9855 17.9634 25.9806C17.7604 25.9757 17.5605 25.9296 17.3758 25.8451C17.1912 25.7607 17.0256 25.6396 16.8891 25.4892C16.3453 24.892 16.3978 23.9611 16.9688 23.3902L22.9397 17.4202C23.221 17.1391 23.6023 16.9812 24 16.9812C24.3977 16.9812 24.779 17.1391 25.0603 17.4202L31.0312 23.3883C31.62 23.978 31.6538 24.9445 31.0678 25.5361C30.9288 25.6765 30.7634 25.788 30.5812 25.8643C30.3989 25.9406 30.2034 25.9802 30.0059 25.9807C29.8083 25.9812 29.6126 25.9427 29.4299 25.8674C29.2473 25.7921 29.0813 25.6814 28.9416 25.5417L25.5 22.102V36.4805H37.125C40.0631 36.4805 42.7416 35.6555 44.6672 34.1583C46.8478 32.4614 48 30.0333 48 27.143C48 24.3361 46.7569 21.9295 44.4056 20.1877ZM22.5 42.5198C22.5 42.9177 22.658 43.2992 22.9393 43.5805C23.2206 43.8618 23.6022 44.0198 24 44.0198C24.3978 44.0198 24.7794 43.8618 25.0607 43.5805C25.342 43.2992 25.5 42.9177 25.5 42.5198V36.4805H22.5V42.5198Z" fill="#959596"/>
</svg>
