<svg width="20" height="20" viewBox="0 0 20 20" fill="none" xmlns="http://www.w3.org/2000/svg">
<path d="M9.99999 5.41669C10.5525 5.41669 11.0824 5.63618 11.4731 6.02688C11.8638 6.41758 12.0833 6.94749 12.0833 7.50002C12.0833 7.77361 12.0294 8.04452 11.9247 8.29728C11.82 8.55004 11.6666 8.7797 11.4731 8.97316C11.2797 9.16662 11.05 9.32007 10.7972 9.42477C10.5445 9.52947 10.2736 9.58335 9.99999 9.58335C9.44746 9.58335 8.91755 9.36386 8.52685 8.97316C8.13615 8.58246 7.91666 8.05256 7.91666 7.50002C7.91666 6.94749 8.13615 6.41758 8.52685 6.02688C8.91755 5.63618 9.44746 5.41669 9.99999 5.41669ZM9.99999 1.66669C11.5471 1.66669 13.0308 2.28127 14.1248 3.37523C15.2187 4.46919 15.8333 5.95292 15.8333 7.50002C15.8333 11.875 9.99999 18.3334 9.99999 18.3334C9.99999 18.3334 4.16666 11.875 4.16666 7.50002C4.16666 5.95292 4.78124 4.46919 5.8752 3.37523C6.96916 2.28127 8.45289 1.66669 9.99999 1.66669ZM9.99999 3.33335C8.89492 3.33335 7.83511 3.77234 7.05371 4.55374C6.27231 5.33514 5.83332 6.39495 5.83332 7.50002C5.83332 8.33335 5.83332 10 9.99999 15.5917C14.1667 10 14.1667 8.33335 14.1667 7.50002C14.1667 6.39495 13.7277 5.33514 12.9463 4.55374C12.1649 3.77234 11.1051 3.33335 9.99999 3.33335Z" fill="#959596"/>
</svg>
