<svg width="366" height="240" viewBox="0 0 366 240" fill="none" xmlns="http://www.w3.org/2000/svg">
<path d="M66.4116 203.241C72.9942 198.648 75.2086 192.988 75.9609 184.998C76.3097 180.988 75.7943 176.949 74.4494 173.156C73.1045 169.362 70.9615 165.9 68.165 163.005C63.4874 158.225 57.0505 155.082 53.562 149.367C49.8491 143.3 49.9765 134.982 44.8197 130.056C41.2766 126.677 36.0955 125.773 31.788 123.431C28.2753 121.52 25.3875 118.669 22.1721 116.29C18.9566 113.912 15.1406 111.94 11.1546 112.238C5.14237 112.693 0.458752 118.596 0.173609 124.62C-0.111533 130.645 3.24951 136.408 7.84819 140.309C11.185 143.142 15.2922 145.308 17.4763 149.1C21.5775 156.216 17.2943 166.087 21.7231 173.04C24.9386 178.106 32.237 180.526 33.2502 186.442C33.6202 188.62 33.0014 190.834 33.0196 193.042C33.0742 199.94 39.5233 205.504 46.3182 206.723C53.1131 207.943 60.0354 205.819 66.4359 203.241" fill="#F5F5F5"/>
<path d="M24.186 136.487C24.3967 136.781 24.6388 137.052 24.908 137.294L27.0921 139.49C28.0567 140.424 29.2215 141.583 30.4834 143.015C31.7454 144.447 33.2924 145.97 34.7849 147.869C35.5553 148.791 36.3622 149.755 37.2116 150.762C38.061 151.769 38.8314 152.886 39.6869 154.002C41.4341 156.217 43.0783 158.746 44.8619 161.367C48.574 167.154 51.8724 173.195 54.7327 179.447C57.5093 185.746 59.8367 192.233 61.6975 198.861C62.474 201.936 63.2749 204.842 63.7723 207.621C64.0393 209.004 64.379 210.327 64.555 211.625C64.7309 212.924 64.9372 214.155 65.1131 215.344C65.5257 217.71 65.6652 219.876 65.8775 221.775C66.0899 223.674 66.1991 225.306 66.2598 226.629C66.3204 227.951 66.3993 228.928 66.4478 229.717C66.4517 230.08 66.4944 230.442 66.5752 230.797C66.6234 230.439 66.6376 230.077 66.6177 229.717C66.6177 228.922 66.6177 227.897 66.5813 226.616C66.5449 225.336 66.5206 223.619 66.3386 221.714C66.1566 219.809 66.0717 217.631 65.6955 215.247C65.5297 214.034 65.3578 212.784 65.1798 211.498C64.9978 210.199 64.6945 208.859 64.4397 207.469C63.9725 204.666 63.2263 201.742 62.4316 198.642C60.5976 191.967 58.2696 185.437 55.4668 179.107C52.5877 172.804 49.2501 166.721 45.4807 160.906C43.6607 158.285 41.9984 155.755 40.2147 153.547C39.3411 152.431 38.5402 151.321 37.6909 150.32L35.2277 147.444C33.6989 145.581 32.1336 144.059 30.8171 142.669C29.5006 141.28 28.3176 140.139 27.3165 139.235L25.0233 137.148C24.7642 136.904 24.484 136.682 24.186 136.487Z" fill="#E0E0E0"/>
<path d="M361.461 85.2037C361.461 85.2037 355.673 81.3755 348.618 95.2201C341.562 109.065 338.911 117.061 338.911 117.061C338.911 117.061 337.042 119.961 335.052 118.062C333.062 116.163 330.332 110.782 326.947 111.758C323.434 112.759 322.275 116.679 322.943 122.442C323.61 128.206 324.617 140.873 324.708 142.02C324.799 143.167 324.144 144.805 322.585 143.731C321.025 142.657 312.022 132.634 307.521 137.191C303.019 141.747 307.521 157.484 307.982 159.213C308.443 160.942 308.103 161.683 307.278 162.113C306.453 162.544 303.753 158.886 301.078 156.137C298.402 153.389 294.817 150.677 292.438 153.523C290.06 156.368 289.302 168.18 300.544 187.364L306.331 195.912L316.688 195.336C338.771 192.757 347.738 185.022 348.581 181.43C349.424 177.839 345.093 176.577 341.301 176.11C337.509 175.642 332.953 175.661 332.807 174.751C332.662 173.841 333.038 173.119 334.694 172.445C336.35 171.772 351.633 165.887 352.555 159.553C353.477 153.219 340.063 152.067 338.267 151.466C336.472 150.865 337.4 149.349 338.352 148.742C339.305 148.135 350.037 141.286 355.042 138.355C360.047 135.425 362.474 132.137 361.164 128.727C359.896 125.439 353.956 126.501 351.244 126.052C348.533 125.603 349.722 122.369 349.722 122.369C349.722 122.369 354.454 115.405 361.255 101.451C368.056 87.497 361.34 85.137 361.34 85.137" fill="#EBEBEB"/>
<path d="M355.122 97.5923C355.122 97.5923 355.085 97.6954 354.994 97.8896C354.903 98.0837 354.764 98.381 354.594 98.7571C354.224 99.5276 353.69 100.638 353.01 102.07C351.627 104.951 349.607 109.101 347.089 114.203C342.048 124.444 334.955 138.531 327.111 154.063C319.267 169.594 312.132 183.669 307.048 193.886L301.036 205.983C300.326 207.403 299.78 208.513 299.398 209.277C299.21 209.641 299.07 209.92 298.967 210.127L298.809 210.412C298.809 210.412 298.845 210.309 298.936 210.114L299.337 209.247C299.707 208.476 300.241 207.36 300.92 205.928C302.298 203.053 304.324 198.903 306.842 193.795C311.883 183.554 318.975 169.466 326.826 153.929C334.676 138.392 341.793 124.329 346.883 114.118L352.895 102.015L354.533 98.7268C354.721 98.3628 354.861 98.0776 354.964 97.8774C355.067 97.6772 355.122 97.5923 355.122 97.5923Z" fill="#E0E0E0"/>
<path d="M330.441 119.421C330.554 119.645 330.642 119.881 330.702 120.125C330.854 120.58 331.048 121.247 331.309 122.072C331.776 123.722 332.365 126.016 332.965 128.564C333.566 131.112 334.082 133.344 334.482 135.086L334.955 137.057C335.034 137.295 335.083 137.542 335.101 137.791C334.988 137.567 334.9 137.331 334.84 137.088C334.688 136.633 334.494 135.965 334.264 135.14C333.815 133.484 333.256 131.178 332.656 128.636C332.055 126.094 331.503 123.862 331.091 122.127C330.896 121.344 330.733 120.689 330.605 120.155C330.522 119.918 330.467 119.671 330.441 119.421Z" fill="#E0E0E0"/>
<path d="M336.029 137.973C336.029 137.888 340.683 136.469 346.482 134.8C352.282 133.132 356.996 131.852 357.021 131.937C357.045 132.022 352.367 133.441 346.567 135.11C340.768 136.778 336.054 138.058 336.029 137.973Z" fill="#E0E0E0"/>
<path d="M322.87 161.282C323.123 161.247 323.379 161.235 323.635 161.246H325.703C327.457 161.246 329.871 161.246 332.535 161.137C335.198 161.027 337.607 160.87 339.354 160.73L341.417 160.566C341.671 160.541 341.927 160.541 342.181 160.566C341.938 160.643 341.688 160.694 341.435 160.718C340.949 160.791 340.221 160.882 339.372 160.979C337.631 161.179 335.222 161.385 332.547 161.482C329.871 161.58 327.451 161.555 325.703 161.482C324.824 161.446 324.12 161.41 323.628 161.373C323.373 161.372 323.119 161.342 322.87 161.282Z" fill="#E0E0E0"/>
<path d="M314.104 145.618C314.261 145.792 314.395 145.986 314.504 146.194L315.505 147.832C316.336 149.215 317.465 151.144 318.696 153.292C319.928 155.44 321.026 157.381 321.808 158.795L322.718 160.481C322.842 160.68 322.94 160.894 323.01 161.118C322.855 160.942 322.721 160.749 322.609 160.542L321.608 158.91C320.777 157.521 319.649 155.591 318.417 153.45C317.185 151.308 316.087 149.367 315.311 147.947C314.953 147.286 314.643 146.734 314.401 146.261C314.275 146.059 314.175 145.843 314.104 145.618Z" fill="#E0E0E0"/>
<path d="M299.901 164.722C300.094 164.954 300.265 165.204 300.411 165.468L301.697 167.555C302.771 169.327 304.239 171.802 305.841 174.514C307.442 177.226 308.874 179.719 309.906 181.515C310.391 182.383 310.791 183.105 311.119 183.657C311.279 183.914 311.413 184.186 311.519 184.47C311.328 184.236 311.158 183.986 311.01 183.724L309.724 181.631C308.65 179.859 307.182 177.384 305.58 174.678C303.978 171.972 302.547 169.473 301.515 167.671L300.302 165.529C300.142 165.274 300.008 165.004 299.901 164.722Z" fill="#E0E0E0"/>
<path d="M311.361 183.918C311.68 183.864 312.003 183.842 312.326 183.851L314.953 183.76C317.173 183.687 320.237 183.572 323.61 183.354C326.984 183.135 330.041 182.856 332.25 182.638L334.87 182.383C335.19 182.336 335.513 182.318 335.835 182.328C335.523 182.416 335.205 182.477 334.883 182.51C334.276 182.607 333.378 182.729 332.28 182.868C330.072 183.141 327.02 183.475 323.635 183.669C320.249 183.863 317.179 183.972 314.959 183.991C313.849 183.991 312.951 183.991 312.326 183.991C312.003 183.997 311.68 183.972 311.361 183.918Z" fill="#E0E0E0"/>
<path d="M236.733 15.55H278.382C279.252 15.55 280.087 15.8958 280.703 16.5114C281.318 17.1269 281.664 17.9617 281.664 18.8322V46.4304C281.664 47.3009 281.318 48.1357 280.703 48.7512C280.087 49.3668 279.252 49.7126 278.382 49.7126H256.468L246.039 60.1415V49.7126H236.733C236.089 49.7126 235.472 49.4569 235.017 49.0018C234.562 48.5467 234.306 47.9294 234.306 47.2858V17.9829C234.305 17.6637 234.368 17.3474 234.489 17.0523C234.611 16.7572 234.789 16.489 235.015 16.263C235.24 16.037 235.508 15.8577 235.803 15.7354C236.098 15.613 236.414 15.55 236.733 15.55Z" fill="#E0E0E0"/>
<path d="M250.553 33.2107C250.553 33.6906 250.411 34.1598 250.144 34.5589C249.878 34.958 249.499 35.269 249.055 35.4527C248.612 35.6364 248.124 35.6844 247.653 35.5908C247.182 35.4972 246.75 35.266 246.41 34.9267C246.071 34.5873 245.84 34.1549 245.746 33.6841C245.653 33.2134 245.701 32.7254 245.884 32.282C246.068 31.8386 246.379 31.4596 246.778 31.1929C247.177 30.9263 247.646 30.7839 248.126 30.7839C248.77 30.7839 249.387 31.0396 249.842 31.4947C250.298 31.9498 250.553 32.5671 250.553 33.2107Z" fill="#FAFAFA"/>
<path d="M260.248 33.2107C260.248 33.6906 260.106 34.1598 259.839 34.5589C259.572 34.958 259.193 35.269 258.75 35.4527C258.307 35.6364 257.819 35.6844 257.348 35.5908C256.877 35.4972 256.445 35.266 256.105 34.9267C255.766 34.5873 255.535 34.1549 255.441 33.6841C255.348 33.2134 255.396 32.7254 255.579 32.282C255.763 31.8386 256.074 31.4596 256.473 31.1929C256.872 30.9263 257.341 30.7839 257.821 30.7839C258.465 30.7839 259.082 31.0396 259.537 31.4947C259.992 31.9498 260.248 32.5671 260.248 33.2107Z" fill="#FAFAFA"/>
<path d="M269.937 33.2107C269.937 33.6906 269.794 34.1598 269.528 34.5589C269.261 34.958 268.882 35.269 268.438 35.4527C267.995 35.6364 267.507 35.6844 267.036 35.5908C266.566 35.4972 266.133 35.266 265.794 34.9267C265.454 34.5873 265.223 34.1549 265.13 33.6841C265.036 33.2134 265.084 32.7254 265.268 32.282C265.451 31.8386 265.762 31.4596 266.162 31.1929C266.561 30.9263 267.03 30.7839 267.51 30.7839C268.153 30.7839 268.771 31.0396 269.226 31.4947C269.681 31.9498 269.937 32.5671 269.937 33.2107Z" fill="#FAFAFA"/>
<path d="M304.397 223.929C293.974 213.791 293.792 198.108 296.51 184.494C296.959 182.219 297.117 179.768 298.518 177.936C299.919 176.104 302.698 175.145 304.585 176.443C306.156 177.523 306.575 179.622 307.26 181.412C308.176 183.799 309.747 185.878 311.792 187.412C313.127 188.401 314.826 189.159 316.421 188.626C318.569 187.855 319.248 185.167 319.606 182.892C320.266 178.646 320.929 174.399 321.596 170.152C321.954 167.877 322.33 165.547 323.386 163.478C324.442 161.41 326.341 159.687 328.604 159.432C330.867 159.177 333.342 160.864 333.457 163.163C333.5 164.121 333.154 165.056 333.063 166.008C332.972 166.961 333.239 168.083 334.094 168.49C334.949 168.896 335.975 168.411 336.763 167.853C339.487 165.935 341.562 163.236 343.534 160.536C345.506 157.836 347.441 155.076 349.977 152.898C352.513 150.72 355.789 149.258 359.077 149.579C362.366 149.901 365.514 152.503 365.818 155.84C366.121 159.177 363.719 162.132 361.255 164.394C357.608 167.757 353.492 170.573 349.037 172.755C348.236 173.149 347.368 173.574 346.956 174.368C346.216 175.806 347.411 177.547 348.824 178.288C350.432 179.131 352.301 179.252 354.042 179.756C355.783 180.259 357.573 181.345 357.973 183.135C358.525 185.61 356.184 187.734 354.006 189.02C349.651 191.594 344.886 193.398 339.918 194.353C338.147 194.692 336.278 194.959 334.755 195.9C333.233 196.84 332.062 198.769 332.62 200.504C333.178 202.24 335.18 203.095 336.988 203.059C338.796 203.022 340.519 202.318 342.29 201.961C345.615 201.293 349.619 202.167 351.178 205.194C352.21 207.184 351.918 209.678 350.905 211.692C349.892 213.706 348.248 215.302 346.543 216.752C340.573 221.817 333.384 225.506 325.716 226.835C318.047 228.163 311.216 227.757 304.439 223.947" fill="#AB5517"/>
<path d="M302.577 234.06C304.249 227.807 306.519 221.728 309.353 215.908C312.845 208.814 316.742 201.927 321.026 195.281L324.363 190.027C325.461 188.304 326.553 186.599 327.724 184.997C329.973 181.921 332.391 178.972 334.968 176.164C337.394 173.464 339.821 170.995 342.102 168.702C344.383 166.409 346.549 164.322 348.606 162.495C351.83 159.598 355.279 156.961 358.92 154.609C360.212 153.777 361.231 153.165 361.953 152.788L362.748 152.327C362.837 152.273 362.93 152.226 363.027 152.188C362.946 152.254 362.861 152.314 362.772 152.37L361.996 152.861C361.316 153.286 360.309 153.923 359.035 154.772C355.432 157.165 352.013 159.824 348.806 162.726C346.768 164.546 344.62 166.663 342.357 168.963C340.094 171.262 337.692 173.737 335.265 176.437C332.703 179.235 330.297 182.172 328.057 185.234C326.899 186.83 325.819 188.528 324.715 190.251C323.61 191.974 322.512 193.728 321.384 195.487C317.112 202.124 313.213 208.995 309.705 216.066C306.866 221.859 304.576 227.906 302.868 234.127" fill="#263238"/>
<path d="M327.851 184.991C327.793 184.659 327.771 184.321 327.785 183.984C327.785 183.335 327.785 182.401 327.785 181.236C327.827 178.919 328.003 175.721 328.209 172.196C328.416 168.672 328.549 165.474 328.561 163.163C328.561 162.004 328.561 161.07 328.561 160.421C328.534 160.085 328.547 159.747 328.598 159.414C328.677 159.741 328.72 160.077 328.725 160.415C328.786 161.058 328.834 161.998 328.864 163.157C328.931 165.474 328.864 168.684 328.64 172.215C328.416 175.746 328.234 178.846 328.088 181.248C328.027 182.334 327.979 183.25 327.942 183.99C327.947 184.326 327.916 184.662 327.851 184.991Z" fill="#263238"/>
<path d="M358.004 184.294C357.598 184.313 357.192 184.295 356.79 184.239C356.026 184.184 354.922 184.1 353.563 184.039C350.833 183.887 347.059 183.82 342.891 183.924C338.723 184.027 334.956 184.294 332.232 184.561C330.873 184.682 329.805 184.815 329.016 184.9C328.615 184.969 328.209 185 327.803 184.991C328.182 184.867 328.572 184.78 328.968 184.73C329.72 184.597 330.788 184.421 332.177 184.257C334.901 183.911 338.675 183.602 342.861 183.493C346.428 183.392 349.998 183.473 353.557 183.736C354.922 183.839 356.026 183.966 356.784 184.075C357.197 184.105 357.606 184.179 358.004 184.294Z" fill="#263238"/>
<path d="M309.808 215.429C309.808 215.429 309.742 215.301 309.663 215.041C309.584 214.78 309.469 214.355 309.335 213.9C309.056 212.911 308.686 211.473 308.255 209.653C307.388 206.074 306.35 201.087 305.276 195.572C304.203 190.057 303.214 185.064 302.425 181.467C302.037 179.719 301.715 178.281 301.473 177.22C301.375 176.753 301.291 176.37 301.224 176.061C301.186 175.927 301.166 175.788 301.163 175.648C301.163 175.648 301.23 175.776 301.309 176.037C301.388 176.298 301.503 176.722 301.636 177.177C301.915 178.166 302.285 179.604 302.716 181.424C303.578 185.004 304.621 189.991 305.695 195.511C306.769 201.032 307.758 206.013 308.546 209.611L309.493 213.858C309.596 214.319 309.681 214.707 309.748 215.016C309.786 215.151 309.806 215.289 309.808 215.429Z" fill="#263238"/>
<path d="M350.729 209.235C350.596 209.284 350.458 209.317 350.316 209.332L349.103 209.526L344.717 210.193C341.016 210.764 335.914 211.607 330.278 212.541C324.641 213.475 319.564 214.295 315.832 214.768C313.976 215.016 312.471 215.198 311.428 215.302L310.215 215.417C310.076 215.44 309.935 215.44 309.796 215.417C309.928 215.366 310.067 215.334 310.208 215.32L311.422 215.126L315.802 214.458C319.503 213.888 324.611 213.045 330.247 212.11C335.883 211.176 340.998 210.375 344.717 209.884C346.573 209.635 348.078 209.453 349.121 209.35L350.335 209.235C350.466 209.218 350.598 209.218 350.729 209.235Z" fill="#263238"/>
<path d="M24.4837 176.073C27.7659 175.194 31.3575 176.025 34.2453 177.808C37.092 179.7 39.4665 182.22 41.1858 185.174C44.6742 190.749 45.8694 198.217 45.9847 204.794C38.7044 204.454 32.492 198.684 29.5313 195.56C24.8538 190.622 19.3875 178.858 24.4837 176.098" fill="#AB5517"/>
<path d="M57.7 209.222C54.7151 206.881 53.3986 202.755 54.0599 199.018C54.4377 197.153 55.1833 195.382 56.253 193.808C57.3228 192.234 58.6953 190.889 60.2906 189.851C61.7405 188.862 63.5424 188.086 65.2229 188.595C65.9982 188.88 66.6825 189.369 67.2044 190.009C67.7263 190.65 68.0666 191.418 68.1896 192.235C68.4211 193.878 68.2117 195.553 67.5829 197.089C65.7083 202.397 62.9236 207.19 57.7 209.271" fill="#AB5517"/>
<path d="M64.3246 230.026C64.0282 229.669 63.7832 229.273 63.5966 228.849C63.178 228.072 62.5834 226.932 61.8979 225.506C60.0322 221.791 58.6732 217.843 57.8574 213.766C56.9959 208.913 57.6268 204.387 58.8402 201.42C59.2893 200.236 59.8887 199.115 60.6238 198.084C60.8668 197.687 61.1721 197.333 61.5278 197.034C61.6552 197.113 60.3569 198.642 59.3255 201.602C58.072 205.489 57.8175 209.628 58.5854 213.639C59.3985 217.654 60.6687 221.562 62.3711 225.287C63.627 228.187 64.4217 229.977 64.3246 230.026Z" fill="#263238"/>
<path d="M29.4341 184.664C30.0094 185.162 30.5394 185.71 31.0175 186.302C32.0004 187.388 33.3957 188.983 35.1005 190.973C38.504 194.947 43.1209 200.523 48.0715 206.802C53.0221 213.081 57.3477 218.875 60.4176 223.122C61.9525 225.245 63.178 226.974 64.0031 228.188C64.4618 228.791 64.8678 229.432 65.2165 230.105C64.6867 229.56 64.2018 228.974 63.7665 228.351L59.9929 223.431C56.8199 219.269 52.4214 213.53 47.483 207.257C42.5446 200.984 37.9944 195.366 34.6941 191.307L30.7809 186.484C30.2831 185.915 29.8327 185.306 29.4341 184.664Z" fill="#263238"/>
<path d="M52.7729 217.328C49.6165 214.848 45.9147 213.156 41.974 212.392C38.0334 211.629 33.9675 211.815 30.1132 212.935C28.1657 213.542 25.9999 214.713 25.8057 216.739C25.6116 218.766 27.5105 220.379 29.3427 221.271C33.1929 223.099 37.4977 223.745 41.7148 223.13C45.9319 222.514 49.8725 220.665 53.0399 217.813" fill="#AB5517"/>
<path d="M34.9609 216.648C35.3629 216.46 35.79 216.332 36.2289 216.266C36.7315 216.138 37.2424 216.045 37.7578 215.987C38.4347 215.878 39.1173 215.807 39.8023 215.775C41.5914 215.672 43.3862 215.752 45.1593 216.011C49.5226 216.647 53.6773 218.293 57.2931 220.816C58.7618 221.842 60.1236 223.013 61.3579 224.311C61.8401 224.8 62.2919 225.319 62.7108 225.864C63.0478 226.258 63.356 226.675 63.6329 227.114C63.9069 227.46 64.1296 227.844 64.2942 228.254C64.179 228.339 63.1355 226.768 60.9878 224.675C59.7287 223.457 58.3644 222.352 56.9109 221.374C55.1165 220.199 53.2128 219.199 51.2262 218.39C49.2265 217.619 47.1558 217.048 45.0441 216.685C43.3139 216.4 41.5617 216.27 39.8084 216.296C36.8477 216.357 34.9913 216.788 34.9609 216.648Z" fill="#263238"/>
<path d="M134.761 19.6513L129.671 23.8981L127.195 22.794L126.686 20.6948C126.686 20.6948 132.146 16.6604 131.946 16.448C131.436 15.9581 130.775 15.6546 130.071 15.5865C128.759 15.4171 127.434 15.7725 126.382 16.5754L125.424 17.2974C124.545 17.9426 123.863 18.819 123.452 19.8291C123.042 20.8391 122.92 21.9432 123.1 23.0185C123.109 23.0817 123.121 23.1445 123.137 23.2065L108.048 35.7467C107.031 35.4092 105.931 35.4177 104.92 35.7709C103.908 36.1242 103.042 36.8023 102.456 37.6995C101.87 38.5967 101.597 39.6626 101.681 40.731C101.764 41.7993 102.199 42.81 102.917 43.6054C103.635 44.4008 104.596 44.9362 105.65 45.1281C106.704 45.3201 107.793 45.1577 108.745 44.6664C109.697 44.175 110.46 43.3824 110.915 42.412C111.369 41.4416 111.49 40.3481 111.258 39.3019L126.176 26.7799C126.769 27.296 127.532 27.5728 128.318 27.5565C129.068 27.5707 129.813 27.433 130.509 27.1514C131.204 26.8699 131.835 26.4505 132.364 25.9184L133.626 24.705C134.253 24.0427 134.689 23.2236 134.888 22.3341C135.088 21.4447 135.044 20.5179 134.761 19.6513ZM105.64 42.3839C105.237 42.2047 104.897 41.9102 104.662 41.5374C104.427 41.1647 104.307 40.7306 104.319 40.29C104.331 39.8495 104.473 39.4224 104.728 39.0628C104.983 38.7031 105.338 38.4272 105.75 38.2698C106.162 38.1125 106.611 38.0808 107.04 38.1789C107.47 38.2769 107.861 38.5003 108.164 38.8206C108.466 39.141 108.667 39.5439 108.74 39.9784C108.814 40.4129 108.757 40.8595 108.576 41.2615C108.457 41.5307 108.285 41.7735 108.071 41.9759C107.857 42.1783 107.606 42.3363 107.33 42.4407C107.055 42.5451 106.762 42.5938 106.467 42.5841C106.173 42.5743 105.883 42.5063 105.616 42.3839H105.64Z" fill="#AB5517"/>
<path d="M157.578 48.5902L141.331 49.9492L141.386 49.9188C138.615 53.2358 135.163 55.9192 131.266 57.7874C127.368 59.6557 123.114 60.6654 118.793 60.7482C115.213 60.7975 111.65 60.2332 108.261 59.0798C104.595 57.8239 101.208 55.8686 98.2869 53.3224C95.0908 50.5477 92.5107 47.1349 90.7125 43.3035C88.9143 39.472 87.9378 35.3066 87.8458 31.0752C87.8034 30.5219 87.8034 29.9661 87.8458 29.4128C87.8458 28.8608 87.9065 28.3026 87.9307 27.7445C87.9652 27.1863 88.0362 26.631 88.1431 26.0821L88.4161 24.4016C88.5314 23.8495 88.6891 23.3035 88.8226 22.7575C88.956 22.2115 89.0834 21.6473 89.2715 21.1134C89.4596 20.5795 89.6598 20.0456 89.8782 19.5117L90.1694 18.7048C90.2665 18.4379 90.4121 18.1831 90.5274 17.9222C92.3387 13.9446 94.9755 10.3979 98.2626 7.51752C101.34 4.79927 104.943 2.7415 108.848 1.47151C112.753 0.201527 116.877 -0.25365 120.965 0.134142C126.205 0.621102 131.229 2.46053 135.544 5.47233C139.86 8.48413 143.32 12.565 145.584 17.3155C145.933 17.9802 146.234 18.6697 146.482 19.3782C146.731 20.0759 146.992 20.7554 147.222 21.441C147.615 22.779 147.921 24.1407 148.138 25.5179C148.229 26.1853 148.357 26.8344 148.411 27.4836C148.466 28.1327 148.472 28.7758 148.502 29.4007C148.502 29.7162 148.502 30.0074 148.551 30.335C148.599 30.6626 148.521 30.9417 148.508 31.2511C148.508 31.8578 148.454 32.4645 148.423 33.0226V32.968C154.181 42.7478 157.281 48.0078 157.615 48.5841L148.272 33.0651C148.296 32.4908 148.32 31.9023 148.345 31.2996C148.345 30.9963 148.375 30.6929 148.381 30.3896C148.387 30.0863 148.351 29.7829 148.332 29.4614C148.302 28.8547 148.266 28.2055 148.235 27.5564C148.205 26.9072 148.041 26.2702 147.95 25.6028C147.732 24.2377 147.426 22.888 147.034 21.5623C146.804 20.8828 146.543 20.2094 146.288 19.5178C146.039 18.8163 145.741 18.1331 145.396 17.4732C143.408 13.2749 140.472 9.59546 136.82 6.72449C133.168 3.85353 128.9 1.86946 124.351 0.928488C119.802 -0.0124841 115.096 0.115332 110.605 1.30187C106.114 2.48841 101.96 4.70128 98.4689 7.76626C95.22 10.6247 92.6145 14.14 90.8246 18.0799C90.7033 18.3408 90.5638 18.5835 90.4667 18.8504L90.1755 19.6512L89.5688 21.2347C89.3807 21.7686 89.2776 22.3207 89.1259 22.8606C88.9742 23.4006 88.8347 23.9405 88.7194 24.4865C88.6042 25.0326 88.5556 25.5907 88.4707 26.1367C88.3688 26.6821 88.2999 27.2332 88.2644 27.7869C88.2341 28.339 88.2037 28.885 88.1795 29.4371C88.1401 29.9844 88.1401 30.5339 88.1795 31.0812C88.3174 37.2183 90.3274 43.1667 93.9403 48.1295C97.5531 53.0924 102.596 56.8326 108.394 58.8493C111.753 59.994 115.281 60.5582 118.829 60.5177C123.116 60.4427 127.337 59.451 131.209 57.6093C135.081 55.7676 138.514 53.1185 141.277 49.84H141.313L157.578 48.5902Z" fill="#263238"/>
<path d="M299.063 73.2338H69.1959C64.314 73.2338 60.3564 77.1913 60.3564 82.0732V228.097C60.3564 232.978 64.314 236.936 69.1959 236.936H299.063C303.945 236.936 307.903 232.978 307.903 228.097V82.0732C307.903 77.1913 303.945 73.2338 299.063 73.2338Z" fill="#455A64"/>
<path d="M50.3525 224.827H318.55V228.352C318.55 231.216 317.413 233.962 315.388 235.988C313.362 238.013 310.616 239.151 307.751 239.151H61.1516C59.7334 239.151 58.3292 238.871 57.019 238.329C55.7088 237.786 54.5183 236.99 53.5155 235.988C52.5127 234.985 51.7173 233.794 51.1746 232.484C50.6319 231.174 50.3525 229.77 50.3525 228.352V224.827Z" fill="#455A64"/>
<path d="M300.914 79.7375H67.3521V217.977H300.914V79.7375Z" fill="#F5F5F5"/>
<path d="M160.072 224.827H161.115H164.149L175.463 224.778L213.302 224.699H213.582L213.442 224.942C212.969 225.755 212.453 226.628 211.943 227.514C211.434 228.4 210.864 229.334 210.354 230.232L210.305 230.311H210.214L163.384 230.226H163.342V230.19L160.915 226.204L160.308 225.191L160.108 224.857L160.345 225.209C160.496 225.452 160.715 225.785 161 226.222C161.57 227.114 162.414 228.418 163.5 230.117L163.439 230.081L210.269 229.996L210.129 230.074L211.719 227.35C212.235 226.471 212.744 225.591 213.224 224.778L213.357 225.021L175.676 224.936L164.252 224.863H161.152H160.345L160.072 224.827Z" fill="#263238"/>
<path fill-rule="evenodd" clip-rule="evenodd" d="M152.816 105.455C153.242 104.887 153.742 104.379 154.302 103.944L153.95 102.009L156.941 100.729L158.094 102.324C158.797 102.23 159.509 102.23 160.211 102.324L161.328 100.711L164.361 101.924L164.052 103.865C164.618 104.293 165.126 104.793 165.562 105.352L167.498 105L168.778 107.991L167.182 109.144C167.276 109.846 167.276 110.558 167.182 111.261L168.796 112.383L167.583 115.417L165.647 115.107C165.22 115.675 164.72 116.185 164.161 116.624L164.513 118.553L161.522 119.833L160.369 118.238C159.664 118.332 158.95 118.332 158.246 118.238L157.129 119.858L154.096 118.644L154.405 116.703C153.836 116.277 153.326 115.777 152.889 115.216L150.959 115.568L149.691 112.553L151.287 111.4C151.19 110.698 151.19 109.985 151.287 109.283L149.691 108.161L150.905 105.127L152.846 105.437L152.816 105.455ZM156.056 108.816C155.794 109.454 155.728 110.156 155.866 110.831C156.003 111.507 156.337 112.127 156.827 112.613C157.316 113.099 157.939 113.429 158.616 113.561C159.293 113.693 159.994 113.621 160.63 113.355C161.266 113.089 161.809 112.641 162.191 112.066C162.572 111.491 162.775 110.817 162.773 110.127C162.771 109.437 162.564 108.764 162.18 108.191C161.795 107.619 161.25 107.173 160.612 106.911C160.188 106.736 159.733 106.647 159.274 106.648C158.816 106.65 158.362 106.741 157.939 106.918C157.515 107.095 157.131 107.354 156.808 107.68C156.485 108.005 156.229 108.391 156.056 108.816Z" fill="#E0E0E0"/>
<path fill-rule="evenodd" clip-rule="evenodd" d="M140.688 168.186C141.923 166.54 143.369 165.063 144.99 163.794L143.965 158.188L152.634 154.493L155.977 159.11C158.013 158.813 160.08 158.788 162.123 159.037L165.356 154.354L174.105 157.873L173.201 163.49C174.849 164.723 176.326 166.17 177.593 167.792L183.199 166.773L186.894 175.466L182.277 178.803C182.575 180.839 182.598 182.907 182.344 184.949L187.033 188.189L183.514 196.931L177.897 196.027C176.663 197.675 175.217 199.152 173.595 200.419L174.614 206.025L165.945 209.726L162.608 205.109C160.572 205.405 158.505 205.427 156.462 205.176L153.229 209.86L144.48 206.347L145.384 200.723C143.735 199.492 142.257 198.045 140.992 196.421L135.386 197.447L131.685 188.777L136.302 185.434C136.007 183.4 135.984 181.335 136.235 179.295L131.552 176.073L135.064 167.325L140.688 168.229V168.186ZM150.068 177.93C149.322 179.786 149.142 181.821 149.553 183.779C149.964 185.737 150.946 187.529 152.375 188.928C153.805 190.328 155.617 191.272 157.583 191.642C159.549 192.011 161.58 191.79 163.42 191.005C165.26 190.22 166.826 188.907 167.919 187.232C169.013 185.557 169.585 183.595 169.564 181.595C169.543 179.594 168.929 177.645 167.8 175.994C166.671 174.343 165.077 173.063 163.221 172.318C161.988 171.823 160.67 171.576 159.341 171.591C158.013 171.606 156.701 171.883 155.479 172.405C154.258 172.927 153.151 173.685 152.223 174.635C151.294 175.585 150.562 176.709 150.068 177.942V177.93Z" fill="#F5F5F5"/>
<path d="M102.067 185.264C102.201 184.83 102.406 184.42 102.674 184.051C103.403 182.998 104.475 182.23 105.707 181.879C106.627 181.612 107.599 181.583 108.533 181.796C109.467 182.008 110.332 182.454 111.046 183.093C111.465 183.456 111.825 183.881 112.114 184.354C112.42 184.844 112.647 185.378 112.787 185.938C113.098 187.122 113.019 188.376 112.562 189.512C112.106 190.648 111.295 191.607 110.251 192.247C109.287 192.849 108.165 193.147 107.03 193.103C106.002 193.066 105.004 192.752 104.142 192.193C103.23 191.601 102.508 190.76 102.061 189.769C101.615 188.778 101.463 187.68 101.624 186.605C101.687 186.145 101.824 185.699 102.03 185.283C101.912 185.724 101.817 186.172 101.745 186.623C101.603 187.86 101.876 189.109 102.522 190.173C102.994 190.954 103.655 191.604 104.443 192.064C105.232 192.524 106.123 192.779 107.036 192.806C108.106 192.836 109.162 192.549 110.069 191.98C111.059 191.377 111.829 190.472 112.266 189.399C112.703 188.325 112.783 187.14 112.496 186.017C112.234 184.967 111.666 184.019 110.864 183.293C110.137 182.642 109.252 182.195 108.298 181.994C107.464 181.824 106.601 181.851 105.78 182.073C104.57 182.39 103.502 183.104 102.746 184.1C102.267 184.809 102.103 185.283 102.067 185.264Z" fill="#263238"/>
<path d="M96.9095 179.877H96.7154L96.1087 179.798L93.779 179.452L93.8336 179.416L91.9165 184.27L91.8862 184.172L94.4889 185.95L94.5313 185.986V186.041C94.3996 187.163 94.4159 188.297 94.5799 189.414V189.475L94.5253 189.517L91.9772 191.368L92.0136 191.234L94.0763 196.021L93.9368 195.948L97.037 195.378H97.1158L97.1644 195.445C97.8645 196.332 98.6807 197.122 99.5911 197.793L99.6639 197.841V197.926C99.5122 198.891 99.3424 199.952 99.1725 201.038L99.0815 200.881L103.935 202.822L103.759 202.877L105.549 200.28L105.597 200.207H105.688C106.806 200.341 107.936 200.327 109.049 200.165H109.14L109.195 200.238L111.045 202.792L110.857 202.743L115.656 200.693L115.559 200.868C115.377 199.886 115.189 198.83 114.995 197.768V197.671L115.068 197.611C115.954 196.92 116.743 196.114 117.416 195.214L117.476 195.135H117.573L120.686 195.639L120.51 195.736C121.165 194.118 121.814 192.5 122.457 190.882L122.512 191.07L119.921 189.25L119.842 189.196V189.105C119.979 187.988 119.966 186.858 119.806 185.744V185.653L119.885 185.598L122.439 183.778L122.384 183.96L120.346 179.161L120.51 179.252L117.403 179.81H117.318L117.264 179.738C116.563 178.849 115.747 178.057 114.837 177.384L114.77 177.335V177.25C114.946 176.182 115.11 175.151 115.274 174.138L115.359 174.283L110.505 172.33L110.651 172.287L108.831 174.872L108.788 174.933H108.722C107.602 174.783 106.468 174.783 105.349 174.933H105.288L105.251 174.884C104.584 173.956 103.977 173.119 103.431 172.324L103.541 172.354L98.7296 174.411L98.7721 174.332C98.9905 175.545 99.1725 176.589 99.3181 177.438V177.469C98.6446 177.992 98.0211 178.577 97.4556 179.216L97.0491 179.701L96.9095 179.859C96.9428 179.797 96.9814 179.738 97.0248 179.683C97.1098 179.568 97.2372 179.398 97.4131 179.179C97.9571 178.522 98.567 177.923 99.2332 177.39V177.438C99.0693 176.595 98.8813 175.576 98.6265 174.338V174.283H98.6811L103.468 172.215H103.541L103.583 172.275L105.44 174.823L105.336 174.781C106.472 174.612 107.625 174.596 108.764 174.732L108.661 174.781C109.225 173.956 109.814 173.094 110.445 172.184L110.499 172.105L110.59 172.142L115.444 174.077L115.547 174.114V174.217C115.383 175.23 115.219 176.261 115.049 177.329L114.995 177.196C115.919 177.893 116.747 178.709 117.458 179.622L117.318 179.574L120.419 179.003H120.534L120.582 179.113C121.242 180.674 121.925 182.272 122.633 183.906L122.682 184.021L122.578 184.094L120.03 185.914L120.091 185.768C120.258 186.908 120.27 188.065 120.127 189.208L120.061 189.062L122.657 190.852L122.76 190.925L122.712 191.04L120.771 195.894L120.722 196.009H120.595L117.482 195.511L117.64 195.445C116.942 196.366 116.126 197.192 115.213 197.902L115.268 197.744C115.462 198.812 115.656 199.867 115.838 200.844V200.972L115.717 200.947L110.918 202.992L110.803 203.04L110.73 202.943L108.91 200.383L109.055 200.45C107.915 200.611 106.758 200.621 105.616 200.48L105.761 200.42L103.941 203.01L103.874 203.107L103.765 203.065L98.9116 201.111L98.8024 201.069V200.953C98.9783 199.874 99.1543 198.812 99.306 197.847L99.3606 197.981C98.4481 197.282 97.6321 196.466 96.9338 195.554L97.0612 195.602L93.961 196.161H93.864L93.8215 196.07C93.1056 194.383 92.4282 192.781 91.7891 191.265L91.7527 191.186L91.8255 191.131L94.3857 189.311L94.3433 189.414C94.182 188.278 94.1718 187.125 94.3129 185.986L94.3554 186.077L91.7709 184.257L91.7163 184.221V184.16C92.5232 182.195 93.1845 180.569 93.688 179.307V179.27H93.7244L96.0299 179.665L96.6365 179.774L96.9095 179.877Z" fill="#263238"/>
<path fill-rule="evenodd" clip-rule="evenodd" d="M85.0308 115.853C86.0183 113.188 87.361 110.667 89.0228 108.361L85.4615 101.354L95.4658 93.0542L101.696 97.847C104.27 96.6533 106.992 95.8105 109.79 95.3414L112.216 87.873L125.157 89.0864L126.176 96.8763C128.833 97.8612 131.346 99.1955 133.651 100.844L140.658 97.2888L148.951 107.293L144.165 113.518C145.349 116.089 146.187 118.807 146.658 121.599L154.12 124.025L152.907 136.966L145.117 137.979C144.152 140.645 142.834 143.169 141.198 145.484L144.753 152.491L134.749 160.791L128.518 156.004C125.939 157.188 123.213 158.021 120.413 158.479L117.986 165.948L105.045 164.734L104.026 156.95C101.361 155.979 98.8373 154.657 96.5214 153.019L89.5203 156.574L81.2208 146.57L85.9893 140.345C84.8 137.77 83.9575 135.049 83.4837 132.252L76.0215 129.825L77.2349 116.885L85.0186 115.866L85.0308 115.853ZM101.26 125.039C101.001 127.788 101.564 130.552 102.877 132.981C104.19 135.41 106.194 137.395 108.636 138.684C111.077 139.974 113.846 140.51 116.593 140.225C119.339 139.94 121.939 138.846 124.064 137.083C126.189 135.319 127.742 132.965 128.528 130.318C129.315 127.671 129.298 124.85 128.48 122.213C127.662 119.576 126.081 117.24 123.935 115.502C121.789 113.764 119.176 112.702 116.427 112.45C112.747 112.112 109.084 113.248 106.24 115.608C103.397 117.968 101.606 121.36 101.26 125.039Z" fill="#E0E0E0"/>
<path d="M307.903 224.827C307.903 224.911 252.482 224.978 184.139 224.978C115.796 224.978 60.375 224.911 60.375 224.827C60.375 224.742 115.784 224.681 184.139 224.681C252.494 224.681 307.903 224.748 307.903 224.827Z" fill="#263238"/>
<path d="M174.76 38.8346C170.944 40.509 168.723 44.6285 167.892 48.7115C167.061 52.7945 167.328 57.017 166.97 61.1728C166.612 65.3286 165.472 69.6664 162.438 72.5239C159.611 75.1933 155.455 76.2793 153.047 79.3309C152.148 80.4671 151.553 81.8128 151.317 83.2419C151.08 84.6711 151.211 86.1368 151.696 87.5016C152.181 88.8665 153.005 90.0859 154.09 91.0454C155.175 92.0049 156.486 92.6731 157.9 92.9874C155.995 96.0209 156.948 100.213 159.387 102.816C161.825 105.418 165.399 106.662 168.924 107.196C175.124 108.142 181.737 107.099 186.973 103.647C192.208 100.195 195.873 94.2008 195.861 87.9337" fill="#263238"/>
<path d="M158.228 100.462C157.934 100.049 157.707 99.5923 157.554 99.109C157.126 97.7889 157.043 96.3813 157.312 95.0199C157.489 94.0791 157.782 93.1641 158.185 92.2959C158.671 91.3146 159.258 90.3873 159.939 89.5294C161.557 87.6347 163.31 85.8605 165.186 84.2209C167.008 82.5389 168.712 80.7348 170.289 78.8214C171.579 77.2618 172.676 75.5528 173.559 73.7312C174.146 72.502 174.589 71.2094 174.881 69.8788C174.996 69.4116 175.027 69.0355 175.081 68.7868C175.094 68.6564 175.123 68.5281 175.166 68.4045C175.18 68.5336 175.18 68.6637 175.166 68.7928C175.13 69.0476 175.118 69.4298 175.021 69.9031C174.771 71.2569 174.351 72.5738 173.771 73.8223C172.911 75.6738 171.823 77.4103 170.531 78.9912C168.961 80.9305 167.253 82.7552 165.423 84.4514C163.553 86.0799 161.801 87.8398 160.181 89.7174C159.504 90.5511 158.92 91.4564 158.44 92.4172C158.031 93.2594 157.732 94.1504 157.548 95.0684C157.264 96.4006 157.314 97.7826 157.694 99.0908C157.845 99.5579 158.023 100.016 158.228 100.462Z" fill="#455A64"/>
<path d="M220.395 52.5397C220.395 58.1455 222.979 63.2841 225.303 65.177C228.597 67.8464 233.427 69.1386 236.606 70.0305C241.241 71.3227 245.099 75.3814 245.706 80.1621C246.313 84.9428 243.158 90.045 238.498 91.2463C241.429 94.2372 240.555 99.3819 238.147 102.773C233.578 109.259 224.46 111.752 216.912 109.35C209.365 106.947 203.565 100.25 201.296 92.6477" fill="#263238"/>
<path d="M231.922 107.76C232.563 107.622 233.169 107.355 233.705 106.978C234.324 106.525 234.834 105.941 235.198 105.267C235.693 104.383 235.968 103.392 235.999 102.379C235.992 101.153 235.668 99.9488 235.058 98.8845C234.357 97.6587 233.433 96.5744 232.334 95.6873C230.035 93.752 226.911 92.5447 223.889 90.8338C222.4 89.9965 221.05 88.9344 219.885 87.6851C219.332 87.0822 218.861 86.409 218.484 85.683C218.126 84.9865 217.86 84.2462 217.695 83.4808C217.425 82.0656 217.36 80.6191 217.501 79.1854C217.604 77.8446 217.774 76.6131 217.889 75.4786C218.151 73.7061 218.122 71.9029 217.804 70.1397C217.725 69.8364 217.652 69.5694 217.586 69.3268C217.519 69.0841 217.422 68.9081 217.367 68.7504C217.3 68.5942 217.241 68.4341 217.191 68.2711C217.283 68.4146 217.361 68.5671 217.422 68.7261C217.489 68.8839 217.592 69.0659 217.671 69.2964L217.919 70.1155C218.288 71.8876 218.349 73.7098 218.101 75.5028C217.998 76.6373 217.841 77.875 217.75 79.2036C217.619 80.6224 217.693 82.0525 217.968 83.4504C218.302 84.9727 219.039 86.3768 220.103 87.5152C221.25 88.7401 222.578 89.7816 224.041 90.6033C227.032 92.3202 230.174 93.5457 232.534 95.5296C233.655 96.4419 234.594 97.5575 235.301 98.8178C235.928 99.9276 236.25 101.183 236.235 102.458C236.195 103.503 235.897 104.522 235.368 105.425C234.978 106.109 234.442 106.697 233.796 107.148C233.386 107.423 232.933 107.628 232.456 107.754C232.278 107.774 232.099 107.776 231.922 107.76Z" fill="#455A64"/>
<path d="M242.842 89.0563C243.178 88.6017 243.376 88.0606 243.413 87.4971C243.433 86.839 243.282 86.1869 242.976 85.6042C242.587 84.8266 241.994 84.1699 241.259 83.7053C240.334 83.1859 239.319 82.8463 238.268 82.7043C237.14 82.504 235.908 82.4312 234.628 82.231C231.818 81.782 229.141 80.7239 226.783 79.1309C224.42 77.5406 222.439 75.4457 220.984 72.9973C219.811 70.9962 219.006 68.802 218.605 66.5179C218.324 64.9838 218.24 63.4199 218.357 61.8646C218.384 61.4437 218.432 61.0246 218.502 60.6087C218.513 60.4622 218.542 60.3176 218.587 60.178C218.617 60.178 218.514 60.7847 218.472 61.8767C218.309 65.7256 219.264 69.5393 221.22 72.8577C222.668 75.2584 224.623 77.3143 226.947 78.8821C229.272 80.4471 231.906 81.496 234.67 81.958C235.944 82.1643 237.182 82.2492 238.311 82.4555C239.381 82.6144 240.412 82.979 241.344 83.5294C242.107 84.018 242.717 84.7119 243.103 85.5314C243.409 86.1416 243.547 86.822 243.504 87.5031C243.468 87.9335 243.331 88.3493 243.103 88.7165C243.024 88.8318 242.946 88.9167 242.897 88.9774L242.842 89.0563Z" fill="#455A64"/>
<path d="M177.484 118.262C178.284 109.884 178.97 101.05 178.97 101.05C178.97 101.05 168.359 98.199 167.51 83.8994C166.697 70.2671 171.957 39.4838 171.957 39.4838C188.113 34.6789 206.095 40.6972 215.942 54.2203L208.334 122.169C207.454 130.056 199.967 135.577 191.528 134.564C183.011 133.538 176.725 126.246 177.484 118.262Z" fill="#B78876"/>
<path d="M173.571 64.091C173.523 64.5601 173.658 65.0297 173.949 65.4009C174.24 65.7721 174.663 66.0159 175.13 66.081C175.358 66.1225 175.592 66.1179 175.818 66.0674C176.044 66.0168 176.258 65.9214 176.446 65.7867C176.635 65.652 176.794 65.4809 176.915 65.2834C177.036 65.0859 177.116 64.8661 177.151 64.6371C177.199 64.168 177.064 63.6984 176.773 63.3272C176.482 62.956 176.059 62.7122 175.591 62.6471C175.364 62.6055 175.13 62.6102 174.904 62.6607C174.678 62.7112 174.464 62.8067 174.276 62.9414C174.087 63.0761 173.928 63.2472 173.807 63.4447C173.686 63.6422 173.606 63.862 173.571 64.091Z" fill="#263238"/>
<path d="M170.84 61.7795C171.041 62.0404 172.509 61.1728 174.45 61.3548C176.392 61.5368 177.72 62.6653 177.957 62.4469C178.072 62.3498 177.884 61.9069 177.308 61.3912C176.524 60.7254 175.553 60.3185 174.529 60.2264C173.523 60.1214 172.509 60.3335 171.629 60.8331C170.986 61.2578 170.743 61.6642 170.84 61.7795Z" fill="#263238"/>
<path d="M193.422 66.3904C193.373 66.8604 193.51 67.3308 193.802 67.7021C194.094 68.0735 194.519 68.3167 194.987 68.3803C195.215 68.4219 195.449 68.4173 195.675 68.3667C195.901 68.3162 196.114 68.2207 196.303 68.0861C196.491 67.9514 196.651 67.7802 196.772 67.5827C196.893 67.3853 196.973 67.1655 197.007 66.9364C197.056 66.4674 196.92 65.9978 196.629 65.6266C196.339 65.2554 195.915 65.0116 195.448 64.9465C195.22 64.9049 194.986 64.9094 194.759 64.9599C194.533 65.0104 194.319 65.1058 194.13 65.2404C193.941 65.375 193.781 65.5461 193.659 65.7437C193.538 65.9412 193.457 66.1611 193.422 66.3904Z" fill="#263238"/>
<path d="M191.044 64.4792C191.244 64.7401 192.712 63.8725 194.653 64.0606C196.595 64.2487 197.923 65.365 198.16 65.1466C198.269 65.0556 198.087 64.6066 197.511 64.0909C196.726 63.4261 195.756 63.0194 194.732 62.9261C193.726 62.8211 192.712 63.0332 191.832 63.5328C191.189 63.9575 190.947 64.3639 191.044 64.4792Z" fill="#263238"/>
<path d="M182.574 78.1965C182.574 78.0873 181.409 77.7597 179.473 77.3168C178.982 77.2137 178.527 77.0681 178.472 76.7101C178.484 76.1935 178.651 75.6924 178.952 75.2723L180.772 71.6322C183.338 66.4571 185.249 62.18 185.019 62.0768C184.788 61.9737 182.561 66.0931 179.995 71.2681C179.388 72.5483 178.782 73.7616 178.212 74.9083C177.843 75.4756 177.685 76.1536 177.763 76.8254C177.815 77.0091 177.909 77.178 178.039 77.3182C178.169 77.4584 178.33 77.566 178.509 77.6323C178.776 77.7344 179.055 77.8017 179.34 77.8325C181.336 78.1783 182.555 78.3057 182.574 78.1965Z" fill="#263238"/>
<path d="M178.97 101.05C185.589 101.806 192.287 100.708 198.317 97.8773C198.317 97.8773 192.766 107.099 178.812 104.393L178.97 101.05Z" fill="#AA6550"/>
<path d="M182.938 82.959C183.353 82.5299 183.87 82.2134 184.441 82.0394C185.012 81.8653 185.618 81.8394 186.202 81.964C186.626 82.0467 187.03 82.2132 187.389 82.4538C187.749 82.6945 188.057 83.0044 188.295 83.3655C188.523 83.7159 188.637 84.1279 188.623 84.5458C188.609 84.9636 188.467 85.3669 188.216 85.7012C187.87 86.0197 187.436 86.227 186.971 86.2963C186.506 86.3655 186.031 86.2935 185.607 86.0895C184.722 85.6762 183.928 85.0904 183.271 84.3665C183.07 84.1963 182.901 83.9907 182.774 83.7598C182.713 83.6459 182.687 83.5163 182.7 83.3877C182.713 83.2591 182.764 83.1373 182.847 83.0378" fill="#AA6550"/>
<path d="M188.161 80.1014C187.846 80.0529 187.633 82.1581 185.68 83.4807C183.726 84.8032 181.506 84.3482 181.463 84.6394C181.421 84.7668 181.925 85.1005 182.871 85.2461C184.103 85.3858 185.346 85.0849 186.378 84.3968C187.372 83.7384 188.069 82.7171 188.319 81.5514C188.519 80.6474 188.307 80.1014 188.161 80.1014Z" fill="#263238"/>
<path d="M209.244 69.2418C210.783 69.0674 212.341 69.3215 213.745 69.9759C214.446 70.3048 215.075 70.7689 215.595 71.3415C216.116 71.9142 216.518 72.5841 216.779 73.3127C217.223 74.8096 217.079 76.4193 216.378 77.8143C215.674 79.1966 214.671 80.4048 213.442 81.3513C212.607 82.0878 211.609 82.6158 210.53 82.8923C209.99 83.0269 209.424 83.0248 208.885 82.886C208.346 82.7472 207.85 82.4763 207.442 82.0975" fill="#B78876"/>
<path d="M209.177 78.4512C209.001 78.4876 209.565 79.4644 210.997 79.2278C211.752 79.0433 212.406 78.5708 212.817 77.9113C213.306 77.1755 213.646 76.351 213.818 75.4845C214.014 74.5644 213.881 73.6046 213.442 72.7726C213.254 72.4199 212.989 72.1141 212.667 71.8778C212.344 71.6415 211.973 71.4808 211.58 71.4076C210.166 71.2377 209.626 72.1781 209.76 72.2206C209.893 72.263 210.463 71.8929 211.367 72.2206C212.271 72.5482 212.993 73.7797 212.653 75.254C212.314 76.7282 211.598 78.1418 210.736 78.4148C209.875 78.6878 209.286 78.3359 209.177 78.4512Z" fill="#AA6550"/>
<path d="M178.764 45.5021C177.703 47.9121 176.105 50.0471 174.091 51.7434C172.077 53.4397 169.701 54.6522 167.146 55.288C166.849 51.8117 166.643 48.2929 167.213 44.8469C167.783 41.4009 169.178 38.0096 171.69 35.5889C174.202 33.1682 177.921 31.8638 181.294 32.7617" fill="#263238"/>
<path d="M179.735 39.1198C178.855 41.3337 178.562 43.7372 178.883 46.0977C179.204 48.4582 180.129 50.6958 181.568 52.5943C183.008 54.4927 184.912 55.9877 187.098 56.9347C189.284 57.8816 191.677 58.2485 194.047 57.9999C194.969 57.9028 195.939 57.7208 196.801 58.0545C197.662 58.3881 198.336 59.2678 198.888 60.1051C201.133 63.46 203.505 66.9485 207.042 68.8899C210.579 70.8313 215.639 70.6371 218.005 67.3671C219.151 65.7776 219.491 63.7573 219.758 61.8159C220.656 55.2819 221.026 48.2625 217.908 42.4505C215.596 38.1248 211.531 34.9154 207.036 32.968C202.54 31.0205 197.614 30.244 192.718 29.9345C189.879 29.7586 186.936 29.7525 184.297 30.8324C181.658 31.9123 179.383 34.3027 179.231 37.148" fill="#263238"/>
<path d="M219.133 63.6603C219.065 63.5048 219.008 63.3446 218.963 63.181C218.866 62.8656 218.702 62.3984 218.49 61.8099C217.859 60.1393 217.056 58.5391 216.093 57.0353C214.661 54.8138 212.886 52.8337 210.833 51.1686C208.264 49.195 205.427 47.5975 202.407 46.4244C199.228 45.0897 196.115 43.9976 193.391 42.7175C190.957 41.6258 188.672 40.2293 186.59 38.5617C185.194 37.4278 183.979 36.0878 182.987 34.5879C182.719 34.179 182.478 33.7534 182.265 33.3139C182.178 33.168 182.107 33.0135 182.052 32.8528C182.15 32.993 182.239 33.1388 182.319 33.2896C182.553 33.7068 182.808 34.1117 183.084 34.503C184.102 35.965 185.329 37.2709 186.724 38.3797C188.804 40.0126 191.08 41.3782 193.5 42.4445C196.212 43.7003 199.325 44.7924 202.516 46.1271C205.562 47.3143 208.423 48.9324 211.009 50.932C213.077 52.6257 214.855 54.6439 216.275 56.9079C217.227 58.435 218.006 60.0628 218.599 61.7614C218.799 62.3681 218.945 62.8352 219.018 63.1628C219.07 63.3251 219.109 63.4916 219.133 63.6603Z" fill="#455A64"/>
<path d="M214.759 62.8898C214.667 62.7646 214.587 62.6305 214.522 62.4894C214.364 62.2285 214.134 61.8402 213.794 61.3731C212.823 60.0673 211.645 58.9298 210.306 58.0059C208.295 56.6609 206.147 55.5323 203.899 54.6388C202.643 54.0989 201.315 53.5407 199.968 52.8976C198.621 52.2546 197.244 51.5387 195.885 50.7257C193.31 49.2102 190.938 47.3756 188.823 45.2655C187.098 43.5405 185.613 41.5918 184.406 39.4717C183.599 38.0412 182.948 36.5279 182.465 34.9579C182.307 34.3998 182.192 33.9629 182.137 33.6657C182.094 33.5151 182.066 33.3607 182.052 33.2046C182.113 33.3472 182.16 33.4956 182.192 33.6475C182.271 33.9447 182.404 34.3694 182.58 34.9215C183.1 36.4659 183.775 37.9538 184.594 39.3625C185.813 41.4505 187.3 43.3698 189.017 45.0714C191.128 47.1583 193.488 48.9778 196.042 50.4891C197.389 51.296 198.754 52.0119 200.095 52.661C201.436 53.3102 202.752 53.8744 204.008 54.4083C206.268 55.3167 208.421 56.4723 210.427 57.8543C211.774 58.8046 212.946 59.9807 213.891 61.3306C214.144 61.6989 214.371 62.084 214.571 62.4833C214.643 62.614 214.706 62.7498 214.759 62.8898Z" fill="#455A64"/>
<path d="M167.194 60.8754C167.141 60.7701 167.096 60.6605 167.061 60.5478C166.982 60.3355 166.861 60.0139 166.727 59.5953C166.389 58.4086 166.185 57.1875 166.12 55.9552C165.936 51.8149 167.226 47.7433 169.761 44.4646C170.474 43.536 171.287 42.6895 172.187 41.9408C173.067 41.2249 173.971 40.6182 174.832 40.0479C176.396 39.1081 177.863 38.0168 179.213 36.79C180.109 35.9517 180.837 34.9512 181.36 33.8415C181.712 33.0467 181.791 32.5614 181.822 32.5674C181.82 32.6867 181.802 32.8052 181.767 32.9193C181.692 33.2478 181.593 33.5702 181.47 33.8839C180.974 35.0236 180.259 36.0544 179.364 36.9174C178.025 38.1766 176.559 39.2947 174.99 40.2542C174.087 40.8409 173.215 41.4727 172.375 42.147C171.492 42.8836 170.69 43.7135 169.985 44.6223C168.618 46.3831 167.604 48.3917 167 50.5375C166.497 52.2873 166.27 54.105 166.327 55.9249C166.374 57.1523 166.545 58.3718 166.836 59.565C166.946 59.9695 167.037 60.291 167.109 60.5296C167.152 60.6409 167.18 60.7571 167.194 60.8754Z" fill="#455A64"/>
<path d="M201.964 88.9469C198.656 88.9825 195.449 87.8064 192.948 85.6405L193.337 85.2097C195.476 87.1378 198.205 88.2863 201.079 88.469C203.953 88.6517 206.805 87.8578 209.172 86.2162C211.539 84.5745 213.281 82.1814 214.117 79.4251C214.952 76.6688 214.832 73.7109 213.776 71.0314L214.316 70.8191C215.336 73.6289 215.417 76.6935 214.549 79.5537C213.681 82.4139 211.909 84.9156 209.499 86.684C207.274 88.1834 204.646 88.9725 201.964 88.9469Z" fill="#AB5517"/>
<path d="M194.477 89.2746C196.022 89.2746 197.274 88.0224 197.274 86.4777C197.274 84.9331 196.022 83.6809 194.477 83.6809C192.932 83.6809 191.68 84.9331 191.68 86.4777C191.68 88.0224 192.932 89.2746 194.477 89.2746Z" fill="#AB5517"/>
<path d="M225.181 73.7592C226.005 68.6553 222.535 63.8498 217.431 63.0258C212.327 62.2019 207.522 65.6716 206.698 70.7755C205.874 75.8795 209.344 80.685 214.448 81.5089C219.552 82.3328 224.357 78.8632 225.181 73.7592Z" fill="#AB5517"/>
<path d="M214.431 70.9648C214.365 70.1745 214.381 69.3795 214.479 68.5926L214.589 65.8201C214.589 64.7402 214.637 63.5086 214.589 62.1496C214.589 61.4701 214.54 60.7603 214.504 60.0262C214.467 59.2921 214.388 58.5216 214.316 57.7268C214.243 56.9321 214.103 56.1252 214 55.3001C213.921 54.8876 213.842 54.4629 213.764 54.0382C213.685 53.6135 213.6 53.1767 213.484 52.746C212.677 48.9729 210.998 45.441 208.582 42.4323C206.075 39.498 202.865 37.2478 199.252 35.8922C196.289 34.7726 193.207 33.999 190.066 33.5868C187.373 33.2106 185.17 33.0954 183.654 32.9801C182.86 32.9961 182.068 32.9311 181.288 32.786C182.071 32.6566 182.866 32.6057 183.66 32.6343C185.826 32.6154 187.991 32.7187 190.145 32.9437C193.36 33.2742 196.521 34.0038 199.555 35.1156C203.32 36.4806 206.665 38.8013 209.262 41.8499C211.766 44.969 213.487 48.643 214.279 52.5639C214.388 53.0068 214.473 53.4497 214.546 53.8926C214.619 54.3355 214.692 54.7602 214.765 55.1848C214.862 56.0463 214.995 56.8714 215.044 57.6783C215.092 58.4852 215.171 59.2678 215.177 60.0141C215.183 60.7603 215.226 61.4822 215.177 62.1678C215.177 63.545 215.098 64.7826 215.038 65.8686C214.977 66.9546 214.868 67.8828 214.777 68.6472C214.736 69.429 214.62 70.2052 214.431 70.9648Z" fill="#AB5517"/>
<g opacity="0.4">
<path d="M218.681 78.2296C221.964 76.8587 223.515 73.0854 222.144 69.8017C220.773 66.518 217 64.9674 213.716 66.3383C210.432 67.7092 208.882 71.4825 210.253 74.7662C211.624 78.0499 215.397 79.6005 218.681 78.2296Z" fill="black"/>
</g>
<path d="M214.079 66.263C214.17 66.2034 214.268 66.1545 214.37 66.1174C214.657 65.9968 214.956 65.9073 215.262 65.8504C216.409 65.6543 217.588 65.8555 218.605 66.4207C219.314 66.8081 219.907 67.3778 220.322 68.0709C220.79 68.8702 221.028 69.7838 221.008 70.71C220.993 71.5172 220.776 72.3078 220.379 73.0103C219.981 73.7129 219.414 74.3051 218.73 74.7334C218.046 75.1617 217.265 75.4125 216.46 75.4632C215.654 75.5139 214.848 75.3628 214.116 75.0235C213.189 74.5702 212.435 73.8268 211.968 72.9062C211.535 72.0845 211.343 71.1568 211.416 70.2307C211.499 69.4301 211.772 68.6607 212.211 67.986C212.809 66.9845 213.762 66.2441 214.88 65.9111C215.182 65.8275 215.495 65.7906 215.808 65.8019C215.917 65.8053 216.025 65.8216 216.13 65.8504C215.72 65.8514 215.311 65.9086 214.916 66.0203C213.854 66.3879 212.96 67.1269 212.399 68.1012C211.948 68.7915 211.693 69.5911 211.661 70.4149C211.629 71.2386 211.821 72.0556 212.217 72.7788C212.662 73.6386 213.373 74.3321 214.243 74.7566C215.194 75.1762 216.257 75.2704 217.267 75.0247C218.277 74.779 219.178 74.2071 219.831 73.3976C220.407 72.6165 220.725 71.6747 220.741 70.7039C220.773 69.8288 220.563 68.9616 220.134 68.1983C219.75 67.5342 219.195 66.9853 218.526 66.6088C217.555 66.0439 216.424 65.8177 215.311 65.9657C214.894 66.0387 214.483 66.138 214.079 66.263Z" fill="#263238"/>
<path d="M216.142 78.6151C215.922 78.139 215.822 77.6161 215.851 77.0923C215.782 76.5749 215.838 76.0485 216.015 75.5574C216.131 76.0561 216.176 76.5688 216.148 77.0802C216.221 77.5894 216.218 78.1064 216.142 78.6151Z" fill="#263238"/>
<path d="M219.697 77.3653C219.163 76.5412 218.803 75.6161 218.642 74.6473C219.176 75.4714 219.535 76.3965 219.697 77.3653Z" fill="#263238"/>
<path d="M222.094 74.5625C222.039 74.6231 221.596 74.3137 221.105 73.8708C220.613 73.428 220.267 73.0154 220.322 72.9547C220.377 72.8941 220.82 73.2035 221.311 73.6464C221.802 74.0892 222.148 74.5018 222.094 74.5625Z" fill="#263238"/>
<path d="M222.263 70.6492C222.233 70.7281 221.918 70.6856 221.547 70.5521C221.177 70.4187 220.904 70.2488 220.941 70.1699C220.977 70.0911 221.287 70.1335 221.657 70.267C222.027 70.4005 222.294 70.5703 222.263 70.6492Z" fill="#263238"/>
<path d="M211.938 77.1833C212.105 76.1464 212.595 75.1889 213.339 74.4471C213.183 74.9381 212.965 75.407 212.69 75.8425C212.496 76.3189 212.243 76.7693 211.938 77.1833Z" fill="#263238"/>
<path d="M210.014 73.889C209.954 73.8283 210.324 73.3733 210.833 72.8758C211.343 72.3783 211.804 72.0143 211.865 72.075C211.925 72.1356 211.555 72.5907 211.046 73.0881C210.536 73.5856 210.075 73.9496 210.014 73.889Z" fill="#263238"/>
<path d="M211.519 69.4238C211.519 69.5026 211.276 69.6422 210.912 69.7332C210.548 69.8242 210.269 69.8363 210.251 69.7332C210.233 69.63 210.488 69.5087 210.858 69.4177C211.228 69.3267 211.495 69.3449 211.519 69.4238Z" fill="#263238"/>
<path d="M260.484 120.64C259.878 117.212 258.537 115.35 257.536 114.373C256.649 113.412 255.653 112.557 254.569 111.825C253.21 110.994 251.36 109.969 250.177 109.708C248.715 109.392 248.357 107.493 249.57 106.947C250.783 106.401 254.848 107.184 258.749 110.047C262.65 112.911 260.672 105.655 260.005 102.998C259.338 100.341 257.682 92.0289 258.288 91.1917C259.253 89.9783 260.776 90.8034 261.388 93.4728C262.001 96.1422 264.385 104.029 265.775 103.641C267.164 103.253 263.548 89.772 263.548 89.772C263.548 89.772 262.335 87.0055 263.906 86.5081C266.782 85.6041 269.548 100.201 269.779 101.596C269.937 102.561 271.465 102.203 271.241 101.166C271.016 100.128 267.334 87.7882 270.252 86.8417C272.491 86.1198 272.642 98.8299 274.826 101.002C277.011 103.174 273.722 91.3494 275.894 90.7427C276.701 90.5183 277.338 90.4637 278.242 97.5012C278.734 101.281 278.418 106.492 279.892 113.706" fill="#B78876"/>
<path d="M253.211 147.771L266.473 166.803L260.109 117.722L279.067 110.242C279.067 110.242 302.995 201.973 270.908 203.259C270.908 203.259 248.697 202.652 232.122 164.213L253.211 147.771Z" fill="#B78876"/>
<path d="M274.481 109.884C274.517 109.932 274.068 110.23 273.48 110.885C272.711 111.746 272.176 112.791 271.927 113.918L271.854 114.276L271.593 114.009C271.288 113.699 270.959 113.413 270.61 113.154C269.427 112.29 268.038 111.75 266.582 111.589C265.459 111.467 264.762 111.589 264.762 111.522C265.355 111.305 265.991 111.23 266.618 111.303C268.626 111.396 270.519 112.266 271.896 113.73L271.557 113.821C271.824 112.621 272.435 111.525 273.316 110.666C273.637 110.317 274.036 110.048 274.481 109.884Z" fill="#AA6550"/>
<path d="M243.686 187.449L227.639 167.094L223.465 187.916C221.777 196.348 222.647 205.093 225.964 213.027L228.033 217.983H153.726L155.583 211.364C156.632 203.259 155.231 194.802 155.473 183.19L153.411 170.103L142.169 217.983H109.123C109.123 217.983 127.244 143.67 138.626 128.964C152.95 110.43 177.981 112.875 177.981 112.875L193.312 136.912L208.292 115.235C208.292 115.235 234.027 109.775 254.121 144.356L264.871 162.781L259.878 124.845L283.163 119.482C283.163 119.482 291.565 156.75 291.013 176.71C290.522 194.535 282.932 203.884 272.418 204.806C255.862 206.25 243.686 187.449 243.686 187.449Z" fill="#AB5517"/>
<path d="M177.981 112.875L178.242 109.878C178.242 109.878 189.599 112.401 193.409 132.234C193.409 132.234 197.231 113.93 209.462 112.092L211.525 117.364L204.014 136.918L190.825 140.776L177.987 136.918L172.139 125.324L177.981 112.875Z" fill="#AB5517"/>
<path d="M146.324 120.762C146.358 120.93 146.379 121.1 146.385 121.271C146.385 121.635 146.446 122.127 146.494 122.752C146.573 124.032 146.707 125.882 146.889 128.175C147.259 132.75 147.884 139.065 148.872 146C149.861 152.934 151.038 159.177 151.967 163.673C152.434 165.923 152.822 167.737 153.107 168.993C153.235 169.6 153.338 170.085 153.417 170.437C153.46 170.604 153.488 170.775 153.501 170.947C153.441 170.787 153.392 170.623 153.356 170.455C153.263 170.103 153.141 169.624 152.992 169.017C152.676 167.774 152.252 165.984 151.778 163.721C150.796 159.232 149.594 152.989 148.593 146.042C147.592 139.096 147.01 132.774 146.701 128.187C146.543 125.894 146.44 124.038 146.391 122.758C146.391 122.151 146.355 121.641 146.343 121.277C146.33 120.913 146.318 120.762 146.324 120.762Z" fill="#263238"/>
<path d="M211.246 114.531C211.202 114.632 211.147 114.727 211.082 114.816L210.573 115.605L208.68 118.493C207.09 120.919 204.949 124.347 202.716 128.2C202.631 128.351 202.54 128.497 202.461 128.643L202.316 128.891L202.194 128.63C201.807 127.667 201.255 126.778 200.562 126.003C200.246 125.657 199.851 125.39 199.411 125.226C198.971 125.061 198.499 125.003 198.032 125.057C197.191 125.24 196.447 125.728 195.945 126.428C195.483 127.027 195.13 127.703 194.902 128.424C194.477 129.759 194.228 130.881 193.907 131.609C193.794 131.891 193.663 132.165 193.513 132.428C193.403 132.606 193.343 132.691 193.331 132.683C193.331 132.683 193.537 132.301 193.804 131.567C194.071 130.833 194.295 129.747 194.708 128.363C194.925 127.61 195.279 126.902 195.751 126.276C196.281 125.514 197.081 124.982 197.99 124.79C198.499 124.724 199.016 124.781 199.499 124.956C199.981 125.131 200.415 125.42 200.762 125.797C201.488 126.59 202.065 127.506 202.467 128.503H202.2L202.455 128.06C204.688 124.202 206.866 120.78 208.522 118.39C209.341 117.176 210.021 116.212 210.494 115.55C210.724 115.247 210.906 114.992 211.052 114.792C211.107 114.698 211.172 114.611 211.246 114.531Z" fill="#263238"/>
<path d="M200.429 125.761C200.429 125.761 200.398 125.852 200.307 126.016L199.907 126.719L198.384 129.279L196.091 133.047L194.726 135.274C194.483 135.656 194.24 136.05 193.992 136.451C193.916 136.565 193.819 136.664 193.707 136.742C193.639 136.786 193.563 136.814 193.483 136.824C193.403 136.835 193.322 136.827 193.245 136.802C192.982 136.699 192.767 136.503 192.639 136.25C190.509 133.047 188.92 129.947 187.676 127.757C187.069 126.659 186.554 125.779 186.202 125.172C186.003 124.867 185.824 124.549 185.668 124.22C185.668 124.22 185.741 124.293 185.844 124.444C185.947 124.596 186.111 124.814 186.299 125.112C186.687 125.718 187.221 126.568 187.858 127.654C189.15 129.807 190.77 132.889 192.894 136.074C193.021 136.281 193.142 136.457 193.306 136.505C193.47 136.554 193.597 136.444 193.725 136.269L194.453 135.104L195.83 132.889L198.178 129.152L199.78 126.646C199.962 126.38 200.107 126.155 200.235 125.973C200.29 125.894 200.355 125.823 200.429 125.761Z" fill="#263238"/>
<path d="M241.574 127.538C241.525 127.674 241.466 127.805 241.398 127.933C241.265 128.212 241.083 128.582 240.852 129.043C240.367 130.001 239.688 131.397 238.875 133.132C238.062 134.867 237.139 136.96 236.169 139.302C235.198 141.644 234.209 144.253 233.251 147.019C232.292 149.786 231.491 152.479 230.824 154.906C230.156 157.333 229.61 159.565 229.168 161.434C228.725 163.303 228.415 164.825 228.209 165.875C228.106 166.378 228.021 166.779 227.96 167.088C227.938 167.231 227.901 167.371 227.851 167.507C227.852 167.362 227.868 167.218 227.9 167.076C227.948 166.767 228.015 166.36 228.094 165.863C228.264 164.801 228.561 163.272 228.961 161.391C229.362 159.511 229.896 157.29 230.557 154.833C231.218 152.376 232.043 149.713 232.984 146.946C233.924 144.18 234.955 141.571 235.926 139.223C236.897 136.875 237.861 134.794 238.705 133.065C239.548 131.336 240.252 129.953 240.767 129.013L241.374 127.933C241.426 127.794 241.494 127.662 241.574 127.538Z" fill="#263238"/>
<path d="M207.582 202.913C207.428 202.921 207.274 202.921 207.121 202.913L205.792 202.81C205.186 202.761 204.512 202.701 203.699 202.598C202.886 202.494 201.952 202.403 200.933 202.246C198.882 201.967 196.455 201.542 193.78 200.99C191.104 200.438 188.186 199.698 185.159 198.806C182.131 197.914 179.298 196.901 176.744 195.924C174.19 194.947 171.939 193.952 170.071 193.066C169.124 192.642 168.293 192.211 167.559 191.853C166.825 191.495 166.194 191.161 165.69 190.882L164.519 190.245C164.382 190.177 164.25 190.098 164.125 190.009C164.272 190.055 164.414 190.116 164.55 190.191L165.763 190.797C166.279 191.058 166.91 191.404 167.65 191.72C168.39 192.035 169.227 192.484 170.174 192.891C172.054 193.752 174.317 194.711 176.847 195.681C179.377 196.652 182.229 197.629 185.244 198.533C188.259 199.437 191.177 200.147 193.834 200.735C196.492 201.323 198.918 201.748 200.963 202.052C201.976 202.227 202.904 202.337 203.717 202.446C204.53 202.555 205.228 202.646 205.804 202.707L207.127 202.871C207.28 202.871 207.432 202.886 207.582 202.913Z" fill="#263238"/>
<path d="M204.294 204.211C204.194 204.25 204.09 204.277 203.984 204.29L203.099 204.46C202.328 204.6 201.206 204.776 199.816 204.97C192.579 205.945 185.263 206.199 177.976 205.728C176.574 205.631 175.446 205.534 174.669 205.443L173.771 205.34C173.667 205.329 173.564 205.311 173.462 205.285C173.567 205.271 173.673 205.271 173.777 205.285L174.675 205.334C175.458 205.388 176.586 205.455 177.988 205.522C180.779 205.655 184.661 205.746 188.908 205.601C193.155 205.455 197.026 205.091 199.829 204.763C201.218 204.6 202.34 204.454 203.117 204.351L204.015 204.236C204.106 204.215 204.2 204.207 204.294 204.211Z" fill="#263238"/>
<path d="M230.594 170.844C230.607 170.695 230.635 170.549 230.679 170.407L230.988 169.193L232.141 164.649C233.118 160.815 234.41 155.506 236.005 149.682C236.806 146.77 237.625 144.01 238.432 141.516C239.239 139.023 240.016 136.802 240.731 134.958C241.071 134.024 241.423 133.199 241.714 132.471C242.006 131.743 242.279 131.124 242.509 130.62L243.037 129.461C243.094 129.322 243.163 129.188 243.243 129.061C243.204 129.206 243.153 129.348 243.091 129.486C242.976 129.777 242.818 130.171 242.618 130.663C242.418 131.154 242.151 131.803 241.872 132.537C241.593 133.271 241.265 134.097 240.932 135.031C240.24 136.881 239.488 139.114 238.699 141.601C237.91 144.089 237.103 146.855 236.303 149.761C234.713 155.579 233.391 160.882 232.359 164.704C231.85 166.615 231.425 168.162 231.115 169.224L230.751 170.437C230.714 170.578 230.661 170.714 230.594 170.844Z" fill="#263238"/>
<path d="M153.022 169.849C152.909 169.734 152.804 169.613 152.707 169.485C152.513 169.23 152.203 168.878 151.863 168.387C150.864 167.008 149.977 165.552 149.212 164.031C148.075 161.773 147.143 159.418 146.427 156.993C145.56 154.026 144.915 150.998 144.498 147.935C143.612 141.419 143.467 135.462 143.2 131.179C143.079 129.031 142.963 127.296 142.878 126.094C142.836 125.518 142.799 125.057 142.775 124.717C142.763 124.556 142.763 124.393 142.775 124.232C142.815 124.389 142.842 124.549 142.854 124.711C142.89 125.021 142.951 125.488 143.012 126.088C143.139 127.302 143.285 129.019 143.43 131.16C143.752 135.45 143.928 141.401 144.814 147.893C145.227 150.942 145.861 153.957 146.713 156.914C147.403 159.33 148.302 161.68 149.4 163.94C150.146 165.46 151 166.926 151.954 168.326C152.282 168.829 152.561 169.187 152.755 169.454C152.857 169.577 152.946 169.709 153.022 169.849Z" fill="#263238"/>
<path d="M150.201 156.489C150.201 156.58 149.34 156.768 148.381 157.327C147.422 157.885 146.846 158.54 146.779 158.479C147.143 157.898 147.642 157.413 148.233 157.067C148.825 156.72 149.492 156.522 150.177 156.489H150.201Z" fill="#263238"/>
<path d="M149.637 148.7C148.861 148.913 148.102 149.185 147.368 149.512C146.683 149.933 146.03 150.404 145.414 150.92C145.864 150.209 146.493 149.629 147.239 149.239C147.985 148.849 148.82 148.663 149.661 148.7H149.637Z" fill="#263238"/>
<path d="M147.932 141.577C147.314 141.743 146.706 141.945 146.112 142.184C145.568 142.507 145.043 142.861 144.541 143.245C144.878 142.67 145.377 142.205 145.975 141.909C146.573 141.612 147.245 141.497 147.908 141.577H147.932Z" fill="#263238"/>
<path d="M147.101 134.212C147.101 134.297 146.342 134.448 145.469 134.819C144.595 135.189 143.952 135.644 143.897 135.577C144.266 135.094 144.771 134.732 145.347 134.54C145.887 134.26 146.497 134.146 147.101 134.212Z" fill="#263238"/>
<path d="M146.621 128.278C146.621 128.363 145.857 128.509 144.983 128.922C144.11 129.334 143.503 129.838 143.448 129.771C143.786 129.256 144.279 128.863 144.856 128.649C145.39 128.342 146.008 128.212 146.621 128.278Z" fill="#263238"/>
<path d="M232.152 161.755C232.08 161.81 231.685 161.276 230.939 160.991C230.485 160.857 230.02 160.762 229.55 160.706C229.781 160.586 230.038 160.523 230.299 160.523C230.56 160.523 230.817 160.586 231.048 160.706C231.898 161.046 232.231 161.731 232.152 161.755Z" fill="#263238"/>
<path d="M234.41 155.683C234.098 155.089 233.638 154.585 233.075 154.22C232.512 153.856 231.864 153.643 231.194 153.602C231.194 153.565 231.419 153.486 231.801 153.499C232.311 153.527 232.804 153.688 233.233 153.966C233.663 154.242 234.013 154.627 234.246 155.082C234.422 155.446 234.446 155.671 234.41 155.683Z" fill="#263238"/>
<path d="M236.102 149.003C235.68 148.533 235.154 148.168 234.567 147.935C233.98 147.702 233.346 147.609 232.717 147.662C232.717 147.632 232.911 147.523 233.275 147.474C233.752 147.415 234.236 147.477 234.682 147.656C235.128 147.833 235.522 148.119 235.829 148.487C236.06 148.772 236.132 148.991 236.102 149.003Z" fill="#263238"/>
<path d="M238.098 142.59C238.019 142.633 237.704 142.032 237 141.674C236.559 141.495 236.099 141.364 235.629 141.286C235.629 141.249 235.787 141.177 236.072 141.158C236.444 141.152 236.811 141.24 237.14 141.414C237.469 141.588 237.749 141.842 237.953 142.153C238.098 142.396 238.128 142.572 238.098 142.59Z" fill="#263238"/>
<path d="M240.428 136.699C240.096 136.276 239.683 135.921 239.215 135.656C238.704 135.467 238.163 135.376 237.619 135.389C237.619 135.358 237.777 135.243 238.098 135.189C238.522 135.137 238.951 135.205 239.338 135.384C239.724 135.563 240.054 135.846 240.289 136.202C240.434 136.481 240.458 136.687 240.428 136.699Z" fill="#263238"/>
<path d="M202.291 128.278C202.259 128.377 202.214 128.47 202.158 128.557L201.733 129.334C201.357 130.001 200.799 130.966 200.095 132.149C199.392 133.332 198.542 134.727 197.571 136.262C197.08 137.027 196.564 137.828 196.006 138.647C195.448 139.504 194.84 140.329 194.186 141.116C194.014 141.332 193.809 141.52 193.579 141.674C193.499 141.721 193.405 141.741 193.313 141.729C193.233 141.715 193.155 141.691 193.082 141.656C192.96 141.587 192.845 141.508 192.736 141.419C192.35 141.081 191.995 140.71 191.674 140.309C191.068 139.545 190.461 138.768 189.958 138.028C188.914 136.535 188.028 135.158 187.294 133.993C186.56 132.829 185.99 131.882 185.602 131.215L185.165 130.444C185.106 130.359 185.061 130.265 185.031 130.165C185.099 130.243 185.16 130.326 185.213 130.414L185.699 131.154C186.141 131.834 186.742 132.756 187.47 133.884C188.198 135.013 189.132 136.39 190.182 137.864C190.71 138.604 191.274 139.369 191.899 140.121C192.211 140.504 192.554 140.862 192.924 141.189C193.106 141.334 193.337 141.492 193.452 141.401C193.65 141.265 193.827 141.101 193.98 140.916C194.63 140.14 195.238 139.33 195.8 138.489C196.358 137.676 196.88 136.881 197.371 136.117C198.354 134.594 199.222 133.211 199.95 132.04C200.678 130.869 201.242 129.971 201.667 129.279L202.146 128.533C202.219 128.357 202.279 128.272 202.291 128.278Z" fill="#263238"/>
<path d="M189.363 136.912C189.326 136.912 189.26 136.705 189.284 136.353C189.33 135.897 189.507 135.463 189.794 135.104C190.075 134.739 190.457 134.465 190.892 134.315C191.225 134.212 191.444 134.23 191.45 134.266C190.912 134.509 190.43 134.858 190.03 135.292C189.698 135.779 189.47 136.331 189.363 136.912Z" fill="#263238"/>
<path d="M193.373 141.692C192.997 140.122 192.985 138.487 193.337 136.912C193.412 137.706 193.426 138.505 193.379 139.302C193.437 140.098 193.435 140.897 193.373 141.692Z" fill="#263238"/>
<path d="M197.875 135.601C197.79 135.601 197.602 134.952 196.971 134.436C196.566 134.156 196.128 133.928 195.667 133.757C195.667 133.72 195.849 133.678 196.14 133.726C196.517 133.795 196.871 133.96 197.165 134.206C197.461 134.45 197.687 134.768 197.82 135.128C197.917 135.425 197.911 135.589 197.875 135.601Z" fill="#263238"/>
<path d="M200.829 130.657C200.633 130.209 200.382 129.787 200.083 129.401C199.712 129.077 199.305 128.798 198.869 128.57C198.869 128.533 199.057 128.515 199.336 128.57C199.701 128.686 200.029 128.895 200.289 129.176C200.551 129.453 200.735 129.794 200.823 130.165C200.895 130.469 200.865 130.651 200.829 130.657Z" fill="#263238"/>
<path d="M186.347 132.392C186.311 132.392 186.214 132.167 186.202 131.785C186.192 131.252 186.32 130.726 186.572 130.256C186.823 129.785 187.188 129.385 187.633 129.091C187.979 128.879 188.24 128.831 188.24 128.861C187.649 129.245 187.165 129.772 186.833 130.394C186.501 131.016 186.332 131.711 186.341 132.416L186.347 132.392Z" fill="#263238"/>
<g opacity="0.4">
<path d="M177.824 112.826C179.122 117.813 181.294 125.937 183.642 132.289C183.729 132.588 183.882 132.864 184.091 133.096C184.697 133.66 185.71 133.314 186.275 132.713C186.753 132.095 187.181 131.44 187.555 130.754C187.746 130.413 188.014 130.121 188.337 129.901C188.66 129.681 189.03 129.539 189.417 129.486C189.736 129.494 190.049 129.572 190.334 129.714C190.62 129.857 190.87 130.061 191.068 130.311C191.459 130.815 191.799 131.358 192.081 131.931C192.145 132.089 192.242 132.232 192.365 132.35C192.489 132.468 192.636 132.559 192.797 132.616C192.877 132.641 192.964 132.641 193.044 132.617C193.125 132.593 193.197 132.546 193.252 132.481C193.306 132.417 193.34 132.337 193.35 132.254C193.359 132.17 193.344 132.085 193.306 132.01L191.231 126.622C191.231 126.622 190.279 122.673 186.985 123.285C183.296 123.971 184.97 130.038 184.97 130.038C184.97 130.038 177.769 112.614 177.824 112.826Z" fill="black"/>
</g>
<path d="M193.409 132.234C193.335 132.125 193.276 132.007 193.234 131.882C193.124 131.645 192.973 131.275 192.785 130.845C192.415 129.898 191.893 128.588 191.256 126.98C191.092 126.574 190.916 126.149 190.728 125.712C190.551 125.265 190.294 124.854 189.97 124.499C189.597 124.121 189.147 123.829 188.65 123.644C188.154 123.458 187.622 123.384 187.094 123.425C186.532 123.495 186.004 123.732 185.577 124.104C185.183 124.556 184.903 125.094 184.758 125.676C184.59 126.267 184.547 126.887 184.631 127.496C184.705 128.145 184.821 128.79 184.977 129.425C185.031 129.662 185.092 129.898 185.146 130.117L184.855 130.202C184.006 127.775 183.035 125.494 182.137 123.449C181.239 121.405 180.42 119.56 179.777 117.989C179.134 116.418 178.661 115.15 178.376 114.252C178.224 113.809 178.133 113.457 178.066 113.214C178.023 113.097 177.995 112.975 177.981 112.85C178.037 112.962 178.084 113.077 178.121 113.196C178.206 113.433 178.315 113.803 178.485 114.215C178.8 115.095 179.304 116.363 179.971 117.904C180.639 119.445 181.47 121.277 182.398 123.322C183.326 125.366 184.297 127.635 185.152 130.092L184.867 130.183C184.813 129.959 184.752 129.722 184.691 129.486C184.534 128.836 184.419 128.178 184.346 127.514C184.254 126.856 184.304 126.186 184.491 125.548C184.652 124.923 184.96 124.345 185.389 123.862C185.862 123.447 186.45 123.186 187.076 123.115C187.645 123.07 188.218 123.152 188.752 123.356C189.286 123.56 189.769 123.879 190.164 124.292C190.502 124.677 190.769 125.119 190.952 125.597C191.14 126.04 191.304 126.47 191.468 126.877C192.075 128.497 192.554 129.819 192.906 130.778C193.07 131.215 193.197 131.567 193.3 131.834C193.349 131.963 193.386 132.097 193.409 132.234Z" fill="#263238"/>
<g opacity="0.4">
<path d="M193.7 132.088C193.579 132.173 193.67 132.398 193.816 132.428C193.892 132.436 193.969 132.426 194.041 132.401C194.113 132.376 194.179 132.336 194.234 132.282C194.936 131.608 195.526 130.825 195.982 129.965C196.528 129.152 197.322 128.375 198.299 128.375C199.276 128.375 200.174 129.237 200.683 130.141C201.193 131.045 201.545 132.064 202.285 132.792C206.007 127.336 208.969 121.399 211.088 115.144C209.875 115.987 209.068 117.303 208.309 118.571C206.34 121.86 204.37 125.146 202.4 128.43C202.032 127.448 201.464 126.554 200.732 125.803C200.365 125.429 199.912 125.15 199.414 124.989C198.915 124.829 198.385 124.792 197.868 124.881C196.722 125.154 195.921 126.191 195.363 127.235C194.536 128.759 193.999 130.423 193.779 132.143" fill="black"/>
</g>
<path d="M271.181 180.69C271.026 180.484 270.894 180.263 270.786 180.029C270.55 179.592 270.222 178.949 269.84 178.154C268.846 176.066 267.957 173.93 267.177 171.754C266.397 169.579 265.729 167.365 265.175 165.123C264.962 164.261 264.81 163.563 264.713 163.072C264.652 162.823 264.614 162.569 264.598 162.314C264.7 162.55 264.778 162.796 264.829 163.048C264.974 163.582 265.162 164.261 265.381 165.068C265.854 166.773 266.552 169.115 267.462 171.657C268.372 174.199 269.318 176.449 270.034 178.063C270.38 178.828 270.641 179.471 270.89 179.974C271.011 180.202 271.109 180.442 271.181 180.69Z" fill="#263238"/>
<path d="M265.411 179.55C265.308 179.338 265.227 179.116 265.168 178.888C265.029 178.451 264.853 177.821 264.659 177.032C263.666 172.904 263.33 168.645 263.664 164.413C263.731 163.606 263.803 162.951 263.876 162.502C263.892 162.266 263.939 162.033 264.016 161.81C264.041 162.044 264.041 162.28 264.016 162.514C263.979 162.963 263.943 163.618 263.9 164.425C263.69 168.636 264.023 172.857 264.889 176.983C265.059 177.778 265.199 178.415 265.308 178.858C265.372 179.083 265.407 179.316 265.411 179.55Z" fill="#263238"/>
<path d="M283.951 126.44C284.111 126.481 284.266 126.54 284.413 126.616L284.504 126.659L284.413 126.695C280.635 127.961 276.77 128.951 272.849 129.656C269.464 130.262 266.364 130.638 264.119 130.82C262.996 130.911 262.086 130.966 261.455 130.984C261.129 131.013 260.8 131.013 260.473 130.984C260.793 130.921 261.117 130.881 261.443 130.863L264.101 130.602C266.333 130.365 269.421 129.995 272.794 129.352C278.424 128.327 283.054 126.962 284.406 126.61V126.683C284.245 126.621 284.093 126.539 283.951 126.44Z" fill="#263238"/>
<path d="M278.728 123.807C278.728 123.807 278.782 123.71 278.97 123.656C279.106 123.627 279.246 123.629 279.381 123.659C279.516 123.689 279.643 123.748 279.753 123.831C279.93 123.946 280.07 124.108 280.158 124.299C280.246 124.49 280.278 124.703 280.25 124.911C280.226 125.039 280.174 125.159 280.097 125.264C280.02 125.369 279.922 125.456 279.807 125.518C279.572 125.652 279.299 125.703 279.031 125.664C278.764 125.629 278.514 125.512 278.315 125.33C278.223 125.239 278.15 125.13 278.101 125.01C278.052 124.89 278.028 124.762 278.03 124.632C278.044 124.425 278.111 124.224 278.224 124.05C278.338 123.876 278.495 123.734 278.679 123.637C278.916 123.501 279.194 123.455 279.462 123.51C279.65 123.558 279.723 123.643 279.717 123.656C279.398 123.588 279.065 123.647 278.788 123.819C278.648 123.906 278.532 124.025 278.448 124.167C278.365 124.308 278.317 124.468 278.309 124.632C278.322 124.826 278.408 125.008 278.548 125.143C278.688 125.277 278.873 125.355 279.067 125.36C279.255 125.406 279.454 125.379 279.623 125.285C279.792 125.19 279.918 125.035 279.977 124.851C279.988 124.714 279.971 124.577 279.927 124.448C279.882 124.318 279.812 124.199 279.72 124.098C279.628 123.997 279.516 123.916 279.391 123.859C279.266 123.803 279.131 123.773 278.995 123.771C278.825 123.783 278.74 123.838 278.728 123.807Z" fill="#263238"/>
<path d="M188.574 136.639C188.469 136.743 188.358 136.84 188.24 136.93C188.01 137.1 187.694 137.391 187.239 137.694C185.976 138.596 184.624 139.367 183.205 139.994C181.095 140.927 178.865 141.56 176.58 141.874C175.231 142.056 173.869 142.129 172.509 142.093C171.048 142.041 169.594 141.86 168.165 141.553C165.228 140.891 162.583 139.812 160.09 139.126C158.921 138.791 157.725 138.555 156.516 138.422C155.457 138.317 154.388 138.329 153.331 138.459C151.802 138.615 150.332 139.133 149.042 139.969C148.586 140.301 148.146 140.655 147.726 141.031C148.084 140.587 148.505 140.196 148.975 139.872C150.264 138.984 151.752 138.425 153.307 138.246C154.373 138.107 155.452 138.085 156.523 138.18C157.754 138.301 158.972 138.53 160.163 138.865C162.68 139.52 165.326 140.594 168.226 141.249C169.639 141.551 171.076 141.732 172.521 141.789C173.865 141.826 175.21 141.759 176.543 141.589C178.809 141.288 181.022 140.676 183.12 139.769C184.538 139.169 185.895 138.434 187.172 137.573C187.639 137.288 187.961 137.015 188.204 136.857C188.319 136.771 188.443 136.697 188.574 136.639Z" fill="#FAFAFA"/>
<path d="M227.123 161.598C227.06 161.576 226.998 161.548 226.941 161.513L226.413 161.24C226.183 161.124 225.886 161.003 225.54 160.845C225.194 160.688 224.781 160.548 224.326 160.427C221.627 159.728 218.807 159.626 216.063 160.129C214.165 160.44 212.286 160.865 210.439 161.403C208.437 161.95 206.302 162.587 204.009 163.054C201.602 163.582 199.127 163.734 196.674 163.503C194.055 163.187 191.481 162.576 188.999 161.683C186.433 160.821 183.982 159.863 181.573 159.056C179.275 158.247 176.904 157.664 174.493 157.314C170.394 156.773 166.23 156.999 162.214 157.982C160.675 158.37 159.163 158.859 157.688 159.444C157.051 159.723 156.444 159.972 155.904 160.233C155.364 160.493 154.873 160.73 154.442 160.973L153.296 161.61L152.477 162.119L151.973 162.423C151.918 162.465 151.857 162.498 151.791 162.52L151.955 162.398L152.446 162.065C152.659 161.925 152.926 161.737 153.247 161.537L154.382 160.87C154.812 160.621 155.31 160.384 155.844 160.105C156.378 159.826 156.984 159.577 157.627 159.286C159.103 158.683 160.617 158.178 162.159 157.776C166.2 156.755 170.397 156.506 174.53 157.041C176.961 157.385 179.352 157.966 181.67 158.777C184.097 159.577 186.524 160.536 189.09 161.397C191.552 162.286 194.106 162.896 196.704 163.217C199.128 163.456 201.574 163.312 203.954 162.793C206.235 162.338 208.365 161.713 210.373 161.173C212.232 160.643 214.123 160.228 216.033 159.929C218.787 159.437 221.615 159.564 224.314 160.299C224.794 160.433 225.2 160.615 225.558 160.748C225.916 160.882 226.195 161.039 226.426 161.167L226.935 161.47C227.069 161.555 227.129 161.592 227.123 161.598Z" fill="#FAFAFA"/>
<path d="M196.552 136.184C197.062 136.327 197.581 136.441 198.105 136.523C199.539 136.685 200.991 136.57 202.382 136.184C204.434 135.555 206.446 134.801 208.406 133.927C209.594 133.445 210.825 133.079 212.083 132.835C213.438 132.593 214.817 132.514 216.19 132.598C218.84 132.771 221.442 133.386 223.889 134.418C225.878 135.258 227.797 136.254 229.628 137.397C231.2 138.356 232.431 139.217 233.268 139.769C233.675 140.048 233.996 140.273 234.239 140.449C234.356 140.521 234.465 140.605 234.567 140.697C234.44 140.644 234.32 140.577 234.209 140.497L233.208 139.89C232.334 139.344 231.09 138.538 229.507 137.603C227.669 136.497 225.753 135.526 223.774 134.697C221.352 133.679 218.78 133.065 216.16 132.877C214.809 132.798 213.453 132.873 212.119 133.102C210.875 133.342 209.656 133.7 208.479 134.169C206.222 135.043 204.232 135.989 202.412 136.372C200.996 136.749 199.518 136.833 198.068 136.62C197.544 136.55 197.033 136.403 196.552 136.184Z" fill="#FAFAFA"/>
<path d="M232.013 120.968C231.733 121.077 231.445 121.164 231.151 121.229C230.866 121.308 230.544 121.393 230.12 121.471C229.695 121.55 229.258 121.66 228.743 121.732C227.538 121.935 226.323 122.066 225.102 122.127C223.627 122.201 222.148 122.185 220.674 122.078C219.189 121.944 217.714 121.717 216.257 121.399C215.068 121.134 213.895 120.802 212.744 120.404C212.253 120.246 211.822 120.058 211.434 119.912C211.046 119.767 210.724 119.621 210.463 119.5C210.183 119.388 209.913 119.252 209.656 119.093C209.947 119.168 210.231 119.268 210.506 119.391C210.779 119.5 211.112 119.627 211.495 119.755C211.877 119.882 212.32 120.058 212.811 120.204C213.794 120.519 214.983 120.841 216.312 121.132C219.207 121.747 222.169 121.998 225.127 121.878C226.486 121.817 227.711 121.702 228.73 121.556C229.246 121.496 229.701 121.405 230.108 121.338C230.514 121.271 230.86 121.205 231.139 121.144C231.424 121.056 231.716 120.997 232.013 120.968Z" fill="#FAFAFA"/>
<path d="M146.573 124.863C146.653 124.778 146.74 124.701 146.834 124.632C147.016 124.487 147.283 124.268 147.635 124.026C148.333 123.492 149.352 122.739 150.668 121.866C154.048 119.534 157.749 117.707 161.655 116.442C165.586 115.192 169.759 114.9 173.826 115.593C175.049 115.817 176.248 116.161 177.405 116.618C177.818 116.77 178.121 116.933 178.333 117.024C178.442 117.068 178.546 117.123 178.643 117.188C178.643 117.188 178.188 117.024 177.369 116.727C176.206 116.312 175.008 116.003 173.789 115.805C169.755 115.182 165.632 115.497 161.74 116.727C157.876 117.994 154.202 119.782 150.82 122.042C149.504 122.891 148.46 123.619 147.744 124.123L146.913 124.729C146.807 124.79 146.692 124.835 146.573 124.863Z" fill="#FAFAFA"/>
<path d="M222.931 188.486C222.877 188.511 222.82 188.528 222.761 188.535L222.251 188.644C221.975 188.706 221.696 188.749 221.414 188.771L220.88 188.832H220.273C218.532 188.905 216.026 188.456 213.072 187.509C211.592 187.048 209.99 186.478 208.249 185.962C206.398 185.412 204.498 185.045 202.576 184.864C198.505 184.476 194.004 184.967 189.369 185.811C184.734 186.654 180.329 187.703 176.252 188.189C172.643 188.696 168.983 188.718 165.368 188.256C162.931 187.936 160.562 187.221 158.355 186.138L157.336 185.604L156.608 185.174L156.171 184.888L156.031 184.785C156.088 184.803 156.141 184.83 156.189 184.864L156.638 185.119L157.366 185.55L158.391 186.059C160.604 187.091 162.964 187.771 165.386 188.074C168.983 188.499 172.619 188.454 176.204 187.94C180.262 187.437 184.643 186.381 189.302 185.513C193.961 184.646 198.481 184.179 202.588 184.591C204.526 184.779 206.441 185.159 208.303 185.726C210.051 186.253 211.652 186.83 213.12 187.303C215.41 188.151 217.821 188.629 220.261 188.717H220.868L221.402 188.668C221.683 188.657 221.963 188.625 222.239 188.571L222.749 188.492L222.931 188.486Z" fill="#FAFAFA"/>
<g opacity="0.3">
<path d="M169.482 192.666C172.23 199.528 177.551 204.399 184.873 205.406C192.196 206.414 199.604 204.739 206.714 202.798C193.749 200.978 182.277 199.188 169.463 192.666" fill="black"/>
</g>
<path d="M224.787 211.534L224.611 211.467L224.096 211.249L222.136 210.375C220.425 209.629 217.98 208.476 214.929 207.154C213.269 206.428 211.549 205.846 209.79 205.413C207.772 204.93 205.68 204.834 203.626 205.127C202.516 205.291 201.421 205.541 200.35 205.874C199.236 206.222 198.141 206.627 197.068 207.087C194.878 208.046 192.7 209.235 190.455 210.436C188.283 211.641 186.029 212.692 183.709 213.579C181.538 214.413 179.244 214.878 176.92 214.956C174.809 214.981 172.717 214.568 170.774 213.742C169.104 213.024 167.483 212.197 165.921 211.267C164.471 210.436 163.166 209.684 161.983 209.107C160.974 208.599 159.925 208.173 158.847 207.833C158.449 207.703 158.044 207.595 157.633 207.512C157.342 207.435 157.046 207.378 156.747 207.342L156.195 207.251C156.131 207.247 156.068 207.235 156.007 207.214C156.07 207.205 156.133 207.205 156.195 207.214L156.754 207.275C157.056 207.302 157.356 207.351 157.651 207.421C158.061 207.493 158.467 207.591 158.865 207.712C159.954 208.03 161.015 208.436 162.038 208.925C163.251 209.49 164.556 210.236 166.006 211.049C167.569 211.962 169.19 212.773 170.859 213.475C172.78 214.274 174.846 214.668 176.926 214.634C179.211 214.544 181.466 214.077 183.599 213.251C185.894 212.364 188.124 211.318 190.273 210.12C192.512 208.907 194.696 207.73 196.904 206.772C197.987 206.297 199.095 205.88 200.223 205.522C201.311 205.193 202.422 204.945 203.547 204.782C205.633 204.491 207.756 204.598 209.802 205.097C211.576 205.55 213.305 206.159 214.971 206.917C218.005 208.27 220.431 209.447 222.142 210.23L224.078 211.152L224.581 211.401C224.733 211.498 224.793 211.528 224.787 211.534Z" fill="#FAFAFA"/>
</svg>
