<svg width="28" height="20" viewBox="0 0 28 20" fill="none" xmlns="http://www.w3.org/2000/svg">
<path d="M28 17.3333C28 18.806 26.806 20 25.3333 20H2.66667C1.194 20 0 18.806 0 17.3333V2.66667C0 1.194 1.194 0 2.66667 0H25.3333C26.806 0 28 1.194 28 2.66667V17.3333Z" fill="#3F51B5"/>
<path d="M18 3.33203C16.2319 3.33203 14.5362 4.03441 13.286 5.28465C12.0357 6.5349 11.3333 8.23059 11.3333 9.9987C11.3333 11.7668 12.0357 13.4625 13.286 14.7128C14.5362 15.963 16.2319 16.6654 18 16.6654C19.7681 16.6654 21.4638 15.963 22.7141 14.7128C23.9643 13.4625 24.6667 11.7668 24.6667 9.9987C24.6667 8.23059 23.9643 6.5349 22.7141 5.28465C21.4638 4.03441 19.7681 3.33203 18 3.33203Z" fill="#FFC107"/>
<path d="M12.676 13.9987C12.3667 13.5874 12.1007 13.1427 11.892 12.6654H15.442C15.6273 12.2414 15.7727 11.796 15.8667 11.332H11.468C11.38 10.9014 11.3333 10.456 11.3333 9.9987H16C16 9.54137 15.9533 9.09604 15.866 8.66537H11.4673C11.562 8.20137 11.7067 7.75603 11.892 7.33203H15.442C15.2333 6.8547 14.968 6.41003 14.658 5.9987H12.676C12.9673 5.61203 13.296 5.2507 13.6633 4.93537C12.498 3.93803 10.9873 3.33203 9.33333 3.33203C5.65133 3.33203 2.66666 6.3167 2.66666 9.9987C2.66666 13.6807 5.65133 16.6654 9.33333 16.6654C11.5127 16.6654 13.4413 15.6154 14.6573 13.9987H12.676Z" fill="#FF3D00"/>
</svg>
