<svg width="24" height="29" viewBox="0 0 24 29" fill="none" xmlns="http://www.w3.org/2000/svg">
<path d="M21.3333 20.6665V13.7332C20.6667 13.8665 20 13.9998 19.3333 13.9998H18.6667V21.9998H5.33333V12.6665C5.33333 8.93317 8.26667 5.99984 12 5.99984C12.1333 4.2665 12.9333 2.79984 14 1.59984C13.6 1.0665 12.8 0.666504 12 0.666504C10.5333 0.666504 9.33333 1.8665 9.33333 3.33317V3.73317C5.33333 4.93317 2.66667 8.53317 2.66667 12.6665V20.6665L0 23.3332V24.6665H24V23.3332L21.3333 20.6665ZM9.33333 25.9998C9.33333 27.4665 10.5333 28.6665 12 28.6665C13.4667 28.6665 14.6667 27.4665 14.6667 25.9998H9.33333ZM24 6.6665C24 9.19984 21.8667 11.3332 19.3333 11.3332C16.8 11.3332 14.6667 9.19984 14.6667 6.6665C14.6667 4.13317 16.8 1.99984 19.3333 1.99984C21.8667 1.99984 24 4.13317 24 6.6665Z" fill="black"/>
</svg>
