<svg width="58" height="48" viewBox="0 0 58 48" fill="none" xmlns="http://www.w3.org/2000/svg">
<rect width="58" height="48" fill="#AB5517"/>
<path d="M31.455 16.005C31.5033 15.871 31.5125 15.7261 31.4815 15.5871C31.4505 15.4481 31.3805 15.3209 31.2798 15.2202C31.1791 15.1195 31.0519 15.0495 30.9129 15.0185C30.7739 14.9875 30.6289 14.9967 30.495 15.045L13.995 21.045C13.8522 21.0968 13.7285 21.1907 13.6403 21.3143C13.552 21.4379 13.5034 21.5854 13.5008 21.7372C13.4981 21.8891 13.5417 22.0382 13.6257 22.1647C13.7097 22.2913 13.8301 22.3894 13.971 22.446L20.6205 25.1055L24.9705 20.4705L26.031 21.531L21.561 26.295L24.054 32.529C24.1105 32.67 24.2084 32.7905 24.3349 32.8746C24.4614 32.9587 24.6104 33.0024 24.7622 33C24.9141 32.9975 25.0616 32.949 25.1853 32.8609C25.309 32.7728 25.4031 32.6492 25.455 32.5065L31.455 16.005Z" fill="white"/>
<path d="M31.455 16.005C31.5033 15.871 31.5125 15.7261 31.4815 15.5871C31.4505 15.4481 31.3805 15.3209 31.2798 15.2202C31.1791 15.1195 31.0519 15.0495 30.9129 15.0185C30.7739 14.9875 30.6289 14.9967 30.495 15.045L13.995 21.045C13.8522 21.0968 13.7285 21.1907 13.6403 21.3143C13.552 21.4379 13.5034 21.5854 13.5008 21.7372C13.4981 21.8891 13.5417 22.0382 13.6257 22.1647C13.7097 22.2913 13.8301 22.3894 13.971 22.446L20.6205 25.1055L24.9705 20.4705L26.031 21.531L21.561 26.295L24.054 32.529C24.1105 32.67 24.2084 32.7905 24.3349 32.8746C24.4614 32.9587 24.6104 33.0024 24.7622 33C24.9141 32.9975 25.0616 32.949 25.1853 32.8609C25.309 32.7728 25.4031 32.6492 25.455 32.5065L31.455 16.005Z" fill="white"/>
</svg>
