<svg width="17" height="16" viewBox="0 0 17 16" fill="none" xmlns="http://www.w3.org/2000/svg">
<path d="M13.28 1.33335C13.1467 0.946687 12.7733 0.666687 12.3333 0.666687H5.00001C4.56001 0.666687 4.19334 0.946687 4.05334 1.33335L2.66667 5.33335V10.6667C2.66667 11.0334 2.96667 11.3334 3.33334 11.3334H4.00001C4.36667 11.3334 4.66667 11.0334 4.66667 10.6667V10H12.6667V10.6667C12.6667 11.0334 12.9667 11.3334 13.3333 11.3334H14C14.3667 11.3334 14.6667 11.0334 14.6667 10.6667V5.33335L13.28 1.33335ZM5.23334 2.00002H12.0933L12.8133 4.07335H4.51334L5.23334 2.00002ZM13.3333 8.66669H4.00001V5.33335H13.3333V8.66669ZM5.66667 6.00002C6.22001 6.00002 6.66667 6.44669 6.66667 7.00002C6.66667 7.55335 6.22001 8.00002 5.66667 8.00002C5.11334 8.00002 4.66667 7.55335 4.66667 7.00002C4.66667 6.44669 5.11334 6.00002 5.66667 6.00002ZM11.6667 6.00002C12.22 6.00002 12.6667 6.44669 12.6667 7.00002C12.6667 7.55335 12.22 8.00002 11.6667 8.00002C11.1133 8.00002 10.6667 7.55335 10.6667 7.00002C10.6667 6.44669 11.1133 6.00002 11.6667 6.00002ZM5.33334 13.3334H8.00001V12L12 14H9.33334V15.3334L5.33334 13.3334Z" fill="#959596"/>
</svg>
