<svg width="24" height="24" viewBox="0 0 24 24" fill="none" xmlns="http://www.w3.org/2000/svg">
<path d="M9.13133 5.17798L9.13466 5.17931C9.20399 4.88398 9.45599 4.66665 9.77133 4.66665H18.7526C18.764 4.66665 18.7753 4.66198 18.7866 4.66265C18.5953 1.47666 15.9226 0 13.5646 0H4.58335C4.26735 0 4.01535 0.223332 3.94668 0.517998L3.94335 0.516665L0.0173638 18.5419L0.0260304 18.5426C0.0166971 18.5853 3.05176e-05 18.6259 3.05176e-05 18.6719C3.05176e-05 19.0406 0.298029 19.3326 0.666695 19.3326H6.04734L9.13133 5.17798Z" fill="#1565C0"/>
<path d="M18.7866 4.66211C18.8219 5.24611 18.7833 5.88144 18.6339 6.58344C17.7799 10.5801 14.6926 12.6601 10.8773 12.6601C10.8773 12.6601 8.56398 12.6601 8.00198 12.6601C7.65465 12.6601 7.49065 12.8641 7.41532 13.0201L6.25532 18.3861L6.05199 19.3387H6.04799L5.20599 23.2027L5.21466 23.2034C5.20533 23.246 5.18866 23.2867 5.18866 23.3327C5.18866 23.7014 5.48666 23.9994 5.85532 23.9994H10.744L10.7526 23.9927C11.0673 23.988 11.3173 23.7634 11.3826 23.4674L11.3946 23.4574L12.6026 17.8467C12.6026 17.8467 12.6866 17.3114 13.2493 17.3114C13.812 17.3114 16.0346 17.3114 16.0346 17.3114C19.8499 17.3114 22.9686 15.2407 23.8233 11.2434C24.7846 6.73677 21.5699 4.67878 18.7866 4.66211Z" fill="#039BE5"/>
<path d="M9.7713 4.66764C9.4553 4.66764 9.2033 4.88497 9.13464 5.1803L9.1313 5.17897L7.41464 13.0223C7.48998 12.8663 7.65397 12.6623 8.00131 12.6623C8.56397 12.6623 10.8246 12.6623 10.8246 12.6623C14.6399 12.6623 17.7793 10.5823 18.6333 6.58563C18.7833 5.88363 18.8213 5.2483 18.7859 4.6643C18.7753 4.66297 18.7633 4.66764 18.7526 4.66764H9.7713Z" fill="#283593"/>
</svg>
