<svg width="32" height="32" viewBox="0 0 32 32" fill="none" xmlns="http://www.w3.org/2000/svg">
<rect width="32" height="32" rx="8" fill="#FFF2F2"/>
<path d="M23 23H9V9H23M23 7H9C8.46957 7 7.96086 7.21071 7.58579 7.58579C7.21071 7.96086 7 8.46957 7 9V23C7 23.5304 7.21071 24.0391 7.58579 24.4142C7.96086 24.7893 8.46957 25 9 25H23C23.5304 25 24.0391 24.7893 24.4142 24.4142C24.7893 24.0391 25 23.5304 25 23V9C25 8.46957 24.7893 7.96086 24.4142 7.58579C24.0391 7.21071 23.5304 7 23 7ZM17.96 16.29L15.21 19.83L13.25 17.47L10.5 21H21.5L17.96 16.29Z" fill="#FF0000"/>
</svg>
