<svg width="14" height="10" viewBox="0 0 14 10" fill="none" xmlns="http://www.w3.org/2000/svg">
<path d="M4.5008 3.33683C4.53545 3.37636 4.56196 3.42235 4.57882 3.47214C4.59569 3.52193 4.60257 3.57456 4.59908 3.62702C4.59559 3.67948 4.58179 3.73073 4.55847 3.77785C4.53516 3.82497 4.50278 3.86703 4.4632 3.90163L3.6648 4.60003H5.8C5.90609 4.60003 6.00783 4.64217 6.08284 4.71718C6.15786 4.7922 6.2 4.89394 6.2 5.00003C6.2 5.10611 6.15786 5.20785 6.08284 5.28287C6.00783 5.35788 5.90609 5.40003 5.8 5.40003H3.664L4.464 6.09923C4.54388 6.16924 4.59268 6.26813 4.59966 6.37412C4.60663 6.48012 4.57122 6.58454 4.5012 6.66442C4.43118 6.74431 4.3323 6.79311 4.2263 6.80008C4.12031 6.80706 4.01588 6.77164 3.936 6.70163L2.336 5.30163C2.29303 5.26408 2.2586 5.21778 2.23501 5.16583C2.21141 5.11388 2.19921 5.05748 2.19921 5.00042C2.19921 4.94337 2.21141 4.88697 2.23501 4.83502C2.2586 4.78307 2.29303 4.73677 2.336 4.69922L3.936 3.29923C3.97554 3.26458 4.02152 3.23806 4.07131 3.2212C4.12111 3.20434 4.17374 3.19745 4.22619 3.20094C4.27865 3.20444 4.3299 3.21824 4.37702 3.24155C4.42414 3.26487 4.4662 3.29724 4.5008 3.33683ZM10.3352 5.40083L9.5368 6.09923C9.45755 6.16921 9.40923 6.26772 9.4024 6.37322C9.39557 6.47873 9.43079 6.58265 9.50036 6.66226C9.56993 6.74187 9.66819 6.79071 9.77366 6.79808C9.87913 6.80546 9.98323 6.77078 10.0632 6.70163L11.6632 5.30163C11.7062 5.26408 11.7406 5.21778 11.7642 5.16583C11.7878 5.11388 11.8 5.05748 11.8 5.00042C11.8 4.94337 11.7878 4.88697 11.7642 4.83502C11.7406 4.78307 11.7062 4.73677 11.6632 4.69922L10.0632 3.29923C9.98323 3.23007 9.87913 3.19539 9.77366 3.20277C9.66819 3.21014 9.56993 3.25898 9.50036 3.33859C9.43079 3.4182 9.39557 3.52212 9.4024 3.62763C9.40923 3.73313 9.45755 3.83164 9.5368 3.90163L10.3352 4.60003H8.2C8.09391 4.60003 7.99217 4.64217 7.91716 4.71718C7.84214 4.7922 7.8 4.89394 7.8 5.00003C7.8 5.10611 7.84214 5.20785 7.91716 5.28287C7.99217 5.35788 8.09391 5.40003 8.2 5.40003L10.3352 5.40083ZM0.599998 1.79843C0.599998 1.37408 0.768569 0.967113 1.06863 0.667055C1.36869 0.366996 1.77565 0.198425 2.2 0.198425H11.8C12.2243 0.198425 12.6313 0.366996 12.9314 0.667055C13.2314 0.967113 13.4 1.37408 13.4 1.79843V8.20243C13.4 8.62677 13.2314 9.03374 12.9314 9.3338C12.6313 9.63385 12.2243 9.80243 11.8 9.80243H2.2C1.77565 9.80243 1.36869 9.63385 1.06863 9.3338C0.768569 9.03374 0.599998 8.62677 0.599998 8.20243V1.79843ZM2.2 0.998425C1.98783 0.998425 1.78434 1.08271 1.63431 1.23274C1.48428 1.38277 1.4 1.58625 1.4 1.79843V8.20243C1.4 8.4146 1.48428 8.61808 1.63431 8.76811C1.78434 8.91814 1.98783 9.00243 2.2 9.00243H11.8C12.0122 9.00243 12.2157 8.91814 12.3657 8.76811C12.5157 8.61808 12.6 8.4146 12.6 8.20243V1.79843C12.6 1.58625 12.5157 1.38277 12.3657 1.23274C12.2157 1.08271 12.0122 0.998425 11.8 0.998425H2.2Z" fill="#959596"/>
</svg>
