<svg width="299" height="269" viewBox="0 0 299 269" fill="none" xmlns="http://www.w3.org/2000/svg">
<g clip-path="url(#clip0_870_49841)">
<rect width="298.5" height="267.75" transform="translate(0.239258 0.873779)" fill="white"/>
<mask id="mask0_870_49841" style="mask-type:luminance" maskUnits="userSpaceOnUse" x="0" y="0" width="299" height="269">
<path d="M298.738 0.874023H0.238281V268.624H298.738V0.874023Z" fill="white"/>
</mask>
<g mask="url(#mask0_870_49841)">
<mask id="mask1_870_49841" style="mask-type:luminance" maskUnits="userSpaceOnUse" x="-81" y="-39" width="1298" height="1439">
<path d="M-80.7617 -38.876H1216.36V1400H-80.7617V-38.876Z" fill="white"/>
</mask>
<g mask="url(#mask1_870_49841)">
<g opacity="0.5">
<path d="M42.0283 134.054L182.338 53.4373L42.0283 134.054Z" fill="white"/>
<path d="M42.0283 134.054L182.338 53.4373" stroke="#FDCAB5" stroke-width="34.5052" stroke-linecap="round"/>
</g>
<g opacity="0.5">
<path d="M75.4033 186.929L215.713 106.312L75.4033 186.929Z" fill="white"/>
<path d="M75.4033 186.929L215.713 106.312" stroke="#FDCAB5" stroke-width="34.5052" stroke-linecap="round"/>
</g>
<g opacity="0.5">
<path d="M251.653 86.0537L262.589 79.688L251.653 86.0537Z" fill="white"/>
<path d="M251.653 86.0537L262.589 79.688" stroke="#FDCAB5" stroke-width="34.5052" stroke-linecap="round"/>
</g>
<g opacity="0.5">
<path d="M124.903 230.429L231.463 168.188L124.903 230.429Z" fill="white"/>
<path d="M124.903 230.429L231.463 168.188" stroke="#FDCAB5" stroke-width="34.5052" stroke-linecap="round"/>
</g>
<path d="M257.808 173.383C259.515 173.548 260.768 175.069 260.603 176.777C260.438 178.485 258.918 179.738 257.21 179.573C255.502 179.408 254.249 177.887 254.414 176.179C254.579 174.471 256.1 173.218 257.808 173.383Z" stroke="#FDCAB5" stroke-width="1.60633"/>
<path d="M76.9551 238.201C79.7637 238.472 81.8238 240.973 81.5524 243.782C81.2811 246.59 78.7805 248.65 75.9719 248.379C73.1633 248.108 71.1033 245.607 71.3746 242.798C71.6459 239.99 74.1466 237.93 76.9551 238.201Z" stroke="#FDCAB5" stroke-width="2.6415"/>
<path d="M146.88 28.0473C149.689 28.3186 151.749 30.8193 151.477 33.6279C151.206 36.4364 148.705 38.4965 145.897 38.2252C143.088 37.9538 141.028 35.4532 141.299 32.6446C141.571 29.836 144.071 27.776 146.88 28.0473Z" stroke="#FDCAB5" stroke-width="2.6415"/>
<path d="M29.3767 94.5868C30.6658 94.5868 31.7124 95.6334 31.7124 96.9225C31.7124 98.2116 30.6658 99.2582 29.3767 99.2582C28.0876 99.2582 27.041 98.2116 27.041 96.9225C27.041 95.6334 28.0876 94.5868 29.3767 94.5868Z" stroke="#FDCAB5" stroke-width="1.93083"/>
<path d="M210.789 246.902C212.078 246.902 213.125 247.949 213.125 249.238C213.125 250.527 212.078 251.574 210.789 251.574C209.5 251.574 208.453 250.527 208.453 249.238C208.453 247.949 209.5 246.902 210.789 246.902Z" stroke="#FDCAB5" stroke-width="1.93083"/>
<path d="M238.271 27.4521L239.263 18.1297" stroke="#FDCAB5" stroke-width="1.125"/>
<path d="M234.264 22.3311L243.586 23.3221" stroke="#FDCAB5" stroke-width="1.125"/>
<path d="M39.7324 180.471L40.2986 171.113" stroke="#FDCAB5" stroke-width="1.125"/>
<path d="M35.4961 175.537L44.854 176.103" stroke="#FDCAB5" stroke-width="1.125"/>
<path d="M234.711 220.98L234.565 211.606" stroke="#FDCAB5" stroke-width="1.125"/>
<path d="M230.112 216.382L239.486 216.237" stroke="#FDCAB5" stroke-width="1.125"/>
</g>
<path d="M149.531 67.354C186.733 67.354 216.938 97.5588 216.938 134.76C216.938 171.962 186.733 202.167 149.531 202.167C112.33 202.167 82.125 171.962 82.125 134.76C82.125 97.5588 112.33 67.354 149.531 67.354Z" fill="#FDCAB5"/>
<path d="M149.488 73.7295C183.171 73.7295 210.519 101.078 210.519 134.761C210.519 168.444 183.171 195.792 149.488 195.792C115.805 195.792 88.457 168.444 88.457 134.761C88.457 101.078 115.805 73.7295 149.488 73.7295Z" fill="#F0BC45"/>
<path d="M121.926 136.999L138.426 153.124L177.051 114.499" stroke="white" stroke-width="6.75"/>
</g>
</g>
<defs>
<clipPath id="clip0_870_49841">
<rect width="298.5" height="267.75" fill="white" transform="translate(0.239258 0.873779)"/>
</clipPath>
</defs>
</svg>
