<svg width="48" height="48" viewBox="0 0 48 48" fill="none" xmlns="http://www.w3.org/2000/svg">
<path d="M44.4056 19.6877C43.0931 18.7145 41.4806 18.0002 39.7781 17.6148C39.4986 17.552 39.2427 17.4108 39.0403 17.208C38.838 17.0051 38.6975 16.7489 38.6353 16.4692C37.9041 13.2114 36.33 10.4177 34.0163 8.30078C31.3266 5.83609 27.7697 4.48047 24 4.48047C20.6859 4.48047 17.625 5.51922 15.1528 7.48516C13.4773 8.81965 12.1287 10.5191 11.2097 12.4539C11.1101 12.6656 10.9623 12.8511 10.7782 12.9955C10.5941 13.1398 10.3787 13.2392 10.1494 13.2855C7.64156 13.7917 5.3775 14.867 3.64875 16.3905C1.26187 18.4998 0 21.3039 0 24.5055C0 27.7417 1.35844 30.693 3.82406 32.8267C6.17906 34.8602 9.34969 35.9805 12.75 35.9805H22.5V21.602L19.0603 25.0417C18.9167 25.1853 18.7454 25.2982 18.5569 25.3737C18.3684 25.4491 18.1665 25.4855 17.9634 25.4806C17.7604 25.4757 17.5605 25.4296 17.3758 25.3451C17.1912 25.2607 17.0256 25.1396 16.8891 24.9892C16.3453 24.392 16.3978 23.4611 16.9688 22.8902L22.9397 16.9202C23.221 16.6391 23.6023 16.4812 24 16.4812C24.3977 16.4812 24.779 16.6391 25.0603 16.9202L31.0312 22.8883C31.62 23.478 31.6538 24.4445 31.0678 25.0361C30.9288 25.1765 30.7634 25.288 30.5812 25.3643C30.3989 25.4406 30.2034 25.4802 30.0059 25.4807C29.8083 25.4812 29.6126 25.4427 29.4299 25.3674C29.2473 25.2921 29.0813 25.1814 28.9416 25.0417L25.5 21.602V35.9805H37.125C40.0631 35.9805 42.7416 35.1555 44.6672 33.6583C46.8478 31.9614 48 29.5333 48 26.643C48 23.8361 46.7569 21.4295 44.4056 19.6877ZM22.5 42.0198C22.5 42.4177 22.658 42.7992 22.9393 43.0805C23.2206 43.3618 23.6022 43.5198 24 43.5198C24.3978 43.5198 24.7794 43.3618 25.0607 43.0805C25.342 42.7992 25.5 42.4177 25.5 42.0198V35.9805H22.5V42.0198Z" fill="#959596"/>
</svg>
