<svg width="16" height="16" viewBox="0 0 16 16" fill="none" xmlns="http://www.w3.org/2000/svg">
<g clip-path="url(#clip0_444_19)">
<path fill-rule="evenodd" clip-rule="evenodd" d="M8 0.188797L7.8848 0.388797L6.76912 2.31872H7.6V9.19552L1.64432 12.6339L1.2288 11.9142L0 14.0453H0.23056L2.46 14.0466L2.04432 13.3269L8 9.88848L13.9557 13.3269L13.54 14.0466L16 14.0453L15.8848 13.8453L14.7712 11.9142L14.3557 12.6341L8.4 9.19568V2.31856H9.23088L8 0.188797Z" fill="black"/>
<path fill-rule="evenodd" clip-rule="evenodd" d="M7.84928 4.55216L3.16992 7.6208C3.06208 7.69872 3.03312 7.78736 3.0312 7.868V12.4536C3.0312 12.5544 3.08368 12.6482 3.16992 12.7008L7.84928 15.7693C7.96208 15.8309 8.0768 15.8205 8.15296 15.7677L12.8301 12.7008C12.8724 12.6749 12.9075 12.6386 12.9317 12.5953C12.956 12.552 12.9688 12.5032 12.9688 12.4536V7.868C12.9678 7.74576 12.916 7.68128 12.8256 7.61776L8.15072 4.55216C8.03936 4.48864 7.952 4.51888 7.84928 4.55216ZM8 5.13776L12.0824 7.84272L7.99744 10.5957L3.8768 7.86784L8 5.13776ZM3.6096 8.38304L7.71072 11.0992V15.0072L3.60992 12.291L3.6096 8.38304ZM12.3904 8.38304V12.2909L8.28928 15.007V11.0989L12.3904 8.38304Z" fill="black"/>
</g>
<defs>
<clipPath id="clip0_444_19">
<rect width="16" height="16" fill="white"/>
</clipPath>
</defs>
</svg>
