<svg width="34" height="24" viewBox="0 0 34 24" fill="none" xmlns="http://www.w3.org/2000/svg">
<path d="M33.6 20.8C33.6 22.5672 32.1672 24 30.4 24H3.2C1.4328 24 0 22.5672 0 20.8V3.2C0 1.4328 1.4328 0 3.2 0H30.4C32.1672 0 33.6 1.4328 33.6 3.2V20.8Z" fill="#1565C0"/>
<path d="M9.7488 8.0008L7.648 14.2664C7.648 14.2664 7.1144 11.616 7.0616 11.2832C5.8656 8.5544 4.1008 8.7064 4.1008 8.7064L6.1808 16.8008V16.7992H8.7096L12.2064 8.0008H9.7488ZM11.7512 16.8008H14.048L15.4368 8.0008H13.1112L11.7512 16.8008ZM28.0064 8.0008H25.5896L21.8216 16.8008H24.1032L24.5736 15.544H27.4504L27.6952 16.8008H29.7856L28.0064 8.0008ZM25.2104 13.8632L26.4608 10.5376L27.1152 13.8632H25.2104ZM18.6952 10.5656C18.6952 10.0808 19.0936 9.72 20.236 9.72C20.9784 9.72 21.8288 10.2592 21.8288 10.2592L22.2016 8.412C22.2016 8.412 21.1152 8 20.0488 8C17.6336 8 16.388 9.1552 16.388 10.6176C16.388 13.2624 19.5712 12.9 19.5712 14.2584C19.5712 14.4912 19.3864 15.0296 18.0608 15.0296C16.7312 15.0296 15.8536 14.5424 15.8536 14.5424L15.4576 16.3152C15.4576 16.3152 16.308 16.8 17.9512 16.8C19.5984 16.8 21.8832 15.568 21.8832 13.7984C21.8832 11.6696 18.6952 11.516 18.6952 10.5656Z" fill="white"/>
<path d="M7.36961 12.7564L6.59681 8.95797C6.59681 8.95797 6.24721 8.13477 5.33841 8.13477C4.42961 8.13477 1.78641 8.13477 1.78641 8.13477C1.78641 8.13477 6.31521 9.47237 7.36961 12.7564Z" fill="#FFC107"/>
</svg>
