<svg width="64" height="65" viewBox="0 0 64 65" fill="none" xmlns="http://www.w3.org/2000/svg">
<path d="M1.3659 32.0144C1.3644 37.4337 2.7804 42.7252 5.4729 47.3892L1.1084 63.3247L17.4164 59.0487C21.927 61.5042 26.9808 62.7908 32.1164 62.7912H32.1299C49.0836 62.7912 62.8844 48.9954 62.8916 32.0387C62.8949 23.8219 59.6979 16.0954 53.8894 10.2824C48.0819 4.46993 40.3582 1.26718 32.1287 1.26343C15.1729 1.26343 1.37315 15.0584 1.36615 32.0144" fill="url(#paint0_linear_873_77246)"/>
<path d="M0.2675 32.0044C0.26575 37.6186 1.7325 43.0994 4.521 47.9304L0 64.4371L16.8927 60.0079C21.5472 62.5456 26.7878 63.8836 32.1203 63.8856H32.134C49.696 63.8856 63.9925 49.5936 64 32.0299C64.003 23.5179 60.691 15.5136 54.675 9.49239C48.6582 3.47189 40.6582 0.153891 32.134 0.150391C14.569 0.150391 0.2745 14.4404 0.2675 32.0044ZM10.3278 47.0984L9.697 46.0971C7.0455 41.8811 5.646 37.0091 5.648 32.0064C5.6535 17.4076 17.5345 5.53039 32.144 5.53039C39.219 5.53339 45.868 8.29139 50.869 13.2954C55.8698 18.2999 58.6215 24.9524 58.6198 32.0279C58.6133 46.6266 46.732 58.5054 32.134 58.5054H32.1235C27.3703 58.5029 22.7085 57.2264 18.643 54.8141L17.6755 54.2404L7.651 56.8686L10.3278 47.0984Z" fill="url(#paint1_linear_873_77246)"/>
<path d="M24.1694 18.6874C23.5729 17.3616 22.9451 17.3349 22.3779 17.3116C21.9134 17.2916 21.3824 17.2931 20.8519 17.2931C20.3209 17.2931 19.4581 17.4929 18.7289 18.2891C17.9989 19.0861 15.9419 21.0121 15.9419 24.9294C15.9419 28.8466 18.7951 32.6326 19.1929 33.1644C19.5911 33.6951 24.7011 41.9911 32.7941 45.1826C39.5201 47.8349 40.8889 47.3074 42.3486 47.1744C43.8086 47.0419 47.0596 45.2489 47.7229 43.3896C48.3866 41.5306 48.3866 39.9371 48.1876 39.6041C47.9886 39.2724 47.4576 39.0731 46.6614 38.6751C45.8651 38.2771 41.9504 36.3506 41.2206 36.0849C40.4906 35.8194 39.9599 35.6869 39.4289 36.4841C38.8979 37.2801 37.3731 39.0731 36.9084 39.6041C36.4441 40.1364 35.9794 40.2026 35.1834 39.8044C34.3866 39.4049 31.8224 38.5651 28.7801 35.8529C26.4131 33.7424 24.8151 31.1361 24.3506 30.3389C23.8861 29.5429 24.3009 29.1114 24.7001 28.7146C25.0579 28.3579 25.4966 27.7849 25.8951 27.3201C26.2921 26.8551 26.4246 26.5234 26.6901 25.9924C26.9559 25.4609 26.8229 24.9959 26.6241 24.5976C26.4246 24.1994 24.8774 20.2616 24.1694 18.6874Z" fill="white"/>
<defs>
<linearGradient id="paint0_linear_873_77246" x1="3090.27" y1="6207.39" x2="3090.27" y2="1.26343" gradientUnits="userSpaceOnUse">
<stop stop-color="#1FAF38"/>
<stop offset="1" stop-color="#60D669"/>
</linearGradient>
<linearGradient id="paint1_linear_873_77246" x1="3200" y1="6428.83" x2="3200" y2="0.150391" gradientUnits="userSpaceOnUse">
<stop stop-color="#F9F9F9"/>
<stop offset="1" stop-color="white"/>
</linearGradient>
</defs>
</svg>
