<svg width="16" height="17" viewBox="0 0 16 17" fill="none" xmlns="http://www.w3.org/2000/svg">
<path d="M13.3333 10.8363C12.5333 10.8363 11.6667 10.7029 10.9333 10.4363H10.7333C10.5333 10.4363 10.4 10.5029 10.2667 10.6363L8.8 12.1029C6.93333 11.1029 5.33333 9.5696 4.4 7.70293L5.86667 6.23626C6.06667 6.03626 6.13333 5.7696 6 5.5696C5.8 4.83626 5.66667 3.9696 5.66667 3.1696C5.66667 2.83626 5.33333 2.50293 5 2.50293H2.66667C2.33333 2.50293 2 2.83626 2 3.1696C2 9.43626 7.06667 14.5029 13.3333 14.5029C13.6667 14.5029 14 14.1696 14 13.8363V11.5029C14 11.1696 13.6667 10.8363 13.3333 10.8363ZM3.33333 3.83626H4.33333C4.4 4.43626 4.53333 5.03626 4.66667 5.5696L3.86667 6.3696C3.6 5.5696 3.4 4.70293 3.33333 3.83626ZM12.6667 13.1696C11.8 13.1029 10.9333 12.9029 10.1333 12.6363L10.9333 11.8363C11.4667 11.9696 12.0667 12.1029 12.6667 12.1029V13.1696Z" fill="#ECEEF0"/>
</svg>
