<svg width="24" height="25" viewBox="0 0 24 25" fill="none" xmlns="http://www.w3.org/2000/svg">
<path d="M12 2.54297C6.5 2.54297 2 7.03297 2 12.563C2 17.563 5.66 21.713 10.44 22.463V15.463H7.9V12.563H10.44V10.353C10.44 7.84297 11.93 6.46297 14.22 6.46297C15.31 6.46297 16.45 6.65297 16.45 6.65297V9.12297H15.19C13.95 9.12297 13.56 9.89297 13.56 10.683V12.563H16.34L15.89 15.463H13.56V22.463C15.9164 22.0908 18.0622 20.8885 19.6099 19.073C21.1576 17.2576 22.0054 14.9486 22 12.563C22 7.03297 17.5 2.54297 12 2.54297Z" fill="#ECEEF0"/>
</svg>
