<svg width="24" height="25" viewBox="0 0 24 25" fill="none" xmlns="http://www.w3.org/2000/svg">
<path d="M10 15.5029L15.19 12.5029L10 9.50293V15.5029ZM21.56 7.67293C21.69 8.14293 21.78 8.77293 21.84 9.57293C21.91 10.3729 21.94 11.0629 21.94 11.6629L22 12.5029C22 14.6929 21.84 16.3029 21.56 17.3329C21.31 18.2329 20.73 18.8129 19.83 19.0629C19.36 19.1929 18.5 19.2829 17.18 19.3429C15.88 19.4129 14.69 19.4429 13.59 19.4429L12 19.5029C7.81 19.5029 5.2 19.3429 4.17 19.0629C3.27 18.8129 2.69 18.2329 2.44 17.3329C2.31 16.8629 2.22 16.2329 2.16 15.4329C2.09 14.6329 2.06 13.9429 2.06 13.3429L2 12.5029C2 10.3129 2.16 8.70293 2.44 7.67293C2.69 6.77293 3.27 6.19293 4.17 5.94293C4.64 5.81293 5.5 5.72293 6.82 5.66293C8.12 5.59293 9.31 5.56293 10.41 5.56293L12 5.50293C16.19 5.50293 18.8 5.66293 19.83 5.94293C20.73 6.19293 21.31 6.77293 21.56 7.67293Z" fill="#ECEEF0"/>
</svg>
