<svg width="16" height="17" viewBox="0 0 16 17" fill="none" xmlns="http://www.w3.org/2000/svg">
<path d="M7.99998 4.83643C8.44201 4.83643 8.86593 5.01202 9.17849 5.32458C9.49105 5.63714 9.66665 6.06107 9.66665 6.50309C9.66665 6.72196 9.62354 6.93869 9.53978 7.1409C9.45602 7.34311 9.33326 7.52684 9.17849 7.6816C9.02373 7.83637 8.83999 7.95913 8.63779 8.04289C8.43558 8.12665 8.21885 8.16976 7.99998 8.16976C7.55795 8.16976 7.13403 7.99416 6.82147 7.6816C6.50891 7.36904 6.33331 6.94512 6.33331 6.50309C6.33331 6.06107 6.50891 5.63714 6.82147 5.32458C7.13403 5.01202 7.55795 4.83643 7.99998 4.83643ZM7.99998 1.83643C9.23766 1.83643 10.4246 2.32809 11.2998 3.20326C12.175 4.07843 12.6666 5.26542 12.6666 6.50309C12.6666 10.0031 7.99998 15.1698 7.99998 15.1698C7.99998 15.1698 3.33331 10.0031 3.33331 6.50309C3.33331 5.26542 3.82498 4.07843 4.70015 3.20326C5.57532 2.32809 6.7623 1.83643 7.99998 1.83643ZM7.99998 3.16976C7.11592 3.16976 6.26808 3.52095 5.64296 4.14607C5.01784 4.77119 4.66665 5.61904 4.66665 6.50309C4.66665 7.16976 4.66665 8.50309 7.99998 12.9764C11.3333 8.50309 11.3333 7.16976 11.3333 6.50309C11.3333 5.61904 10.9821 4.77119 10.357 4.14607C9.73188 3.52095 8.88403 3.16976 7.99998 3.16976Z" fill="#ECEEF0"/>
</svg>
