<svg width="24" height="25" viewBox="0 0 24 25" fill="none" xmlns="http://www.w3.org/2000/svg">
<path d="M22.46 6.50293C21.69 6.85293 20.86 7.08293 20 7.19293C20.88 6.66293 21.56 5.82293 21.88 4.81293C21.05 5.31293 20.13 5.66293 19.16 5.86293C18.37 5.00293 17.26 4.50293 16 4.50293C13.65 4.50293 11.73 6.42293 11.73 8.79293C11.73 9.13293 11.77 9.46293 11.84 9.77293C8.27998 9.59293 5.10998 7.88293 2.99998 5.29293C2.62998 5.92293 2.41998 6.66293 2.41998 7.44293C2.41998 8.93293 3.16998 10.2529 4.32998 11.0029C3.61998 11.0029 2.95998 10.8029 2.37998 10.5029V10.5329C2.37998 12.6129 3.85998 14.3529 5.81998 14.7429C5.19082 14.9159 4.53002 14.9398 3.88998 14.8129C4.16159 15.6654 4.69352 16.4113 5.411 16.9459C6.12847 17.4804 6.99543 17.7766 7.88998 17.7929C6.37365 18.9934 4.49399 19.6423 2.55998 19.6329C2.21998 19.6329 1.87998 19.6129 1.53998 19.5729C3.43998 20.7929 5.69998 21.5029 8.11998 21.5029C16 21.5029 20.33 14.9629 20.33 9.29293C20.33 9.10293 20.33 8.92293 20.32 8.73293C21.16 8.13293 21.88 7.37293 22.46 6.50293Z" fill="#ECEEF0"/>
</svg>
