<svg width="16" height="16" viewBox="0 0 16 16" fill="none" xmlns="http://www.w3.org/2000/svg">
<path d="M7.99999 0.666016L5.33332 3.33268H7.33332V9.33268H8.66666V3.33268H10.6667M12 15.3327H3.99999C3.64637 15.3327 3.30723 15.1922 3.05718 14.9422C2.80713 14.6921 2.66666 14.353 2.66666 13.9993V5.99935C2.66666 5.64573 2.80713 5.30659 3.05718 5.05654C3.30723 4.80649 3.64637 4.66602 3.99999 4.66602H5.99999V5.99935H3.99999V13.9993H12V5.99935H9.99999V4.66602H12C12.3536 4.66602 12.6927 4.80649 12.9428 5.05654C13.1928 5.30659 13.3333 5.64573 13.3333 5.99935V13.9993C13.3333 14.353 13.1928 14.6921 12.9428 14.9422C12.6927 15.1922 12.3536 15.3327 12 15.3327Z" fill="white"/>
</svg>
